<?xml version="1.0" encoding="utf-8"?>
<svg width="58px" height="47" viewBox="0 0 58 47" preserveAspectRatio="xMidYMid slice" xmlns="http://www.w3.org/2000/svg">
  <g id="All_Games" data-name="All Games" transform="translate(270.001 -9169)">
    <g id="Group_60922" data-name="Group 60922" transform="translate(-289.276 8891.5)">
      <path id="Path_142482" data-name="Path 142482" d="M32.615,287.483a9,9,0,0,0-8.977,5.581l-.034,0c-4.608,9.907-5.67,18.72-2.546,30.687l6.834,4.012,1.541-1.136c4.045-9.335,7.4-8.137,18.917-9.223V289.681C40.73,289.851,35.978,287.615,32.615,287.483Z" transform="translate(0 -3.265)" fill="#fdc00f"/>
      <path id="Path_142483" data-name="Path 142483" d="M78.236,287.483a9,9,0,0,1,8.977,5.581l.033,0c4.608,9.907,5.67,18.72,2.546,30.687l-6.833,4.012-1.541-1.136c-4.045-9.335-7.4-8.137-18.916-9.223V289.681C70.121,289.851,74.874,287.615,78.236,287.483Z" transform="translate(-14.3 -3.265)" fill="#ffa90a"/>
      <path id="Path_142484" data-name="Path 142484" d="M32.615,287.483a9,9,0,0,0-8.977,5.581l-.034,0c-4.608,9.907-5.67,18.72-2.546,30.687l6.834,4.012-5.541-4.012c-2.831-11.967-1.869-20.78,2.307-30.687a9.432,9.432,0,0,1,8.293-5.563Q32.782,287.49,32.615,287.483Z" transform="translate(0 -3.265)" fill="#ffa90a"/>
      <path id="Path_142485" data-name="Path 142485" d="M85.73,287.483a9,9,0,0,1,8.977,5.581l.033,0c4.608,9.907,5.67,18.72,2.546,30.687l-6.833,4.012,4.908-4.012c2.831-11.967,2.5-20.78-1.674-30.687-2.413-4.059-4.811-5.283-8.294-5.563C85.506,287.494,85.619,287.487,85.73,287.483Z" transform="translate(-21.793 -3.265)" fill="#f99a26"/>
      <path id="Path_142486" data-name="Path 142486" d="M45.368,323.637a6.815,6.815,0,1,0-6.815-6.815A6.828,6.828,0,0,0,45.368,323.637Z" transform="translate(-6.354 -10.697)" fill="#0f4283"/>
      <g id="Group_60916" data-name="Group 60916" transform="translate(34.025 301.141)">
        <rect id="Rectangle_18623" data-name="Rectangle 18623" width="3.165" height="9.972" transform="translate(3.403 0)" fill="#d9f1fd"/>
        <rect id="Rectangle_18624" data-name="Rectangle 18624" width="9.971" height="3.165" transform="translate(0 3.403)" fill="#d9f1fd"/>
      </g>
      <path id="Path_142487" data-name="Path 142487" d="M73.019,323.637a6.815,6.815,0,1,0-6.815-6.815A6.828,6.828,0,0,0,73.019,323.637Z" transform="translate(-15.468 -10.697)" fill="#072d5e"/>
      <path id="Path_142488" data-name="Path 142488" d="M74.033,322.566a4.73,4.73,0,1,0-4.729-4.729A4.739,4.739,0,0,0,74.033,322.566Z" transform="translate(-16.48 -11.71)" fill="#f5500a"/>
      <g id="Group_60920" data-name="Group 60920" transform="translate(56.169 284.543)">
        <circle id="Ellipse_3822" data-name="Ellipse 3822" cx="6.371" cy="6.371" r="6.371" transform="translate(0 11.784) rotate(-67.636)" fill="#072d5e"/>
        <g id="Group_60919" data-name="Group 60919" transform="translate(3.121 3.122)">
          <g id="Group_60917" data-name="Group 60917">
            <path id="Path_142489" data-name="Path 142489" d="M79.48,297.072l3.968-3.968a1.7,1.7,0,0,1,2.391,0h0a1.7,1.7,0,0,1,0,2.391l-3.968,3.968a1.7,1.7,0,0,1-2.391,0h0A1.7,1.7,0,0,1,79.48,297.072Z" transform="translate(-78.986 -292.611)" fill="#d9f1fd"/>
            <path id="Path_142490" data-name="Path 142490" d="M80.1,299.383a1.271,1.271,0,1,1,0,1.8A1.27,1.27,0,0,1,80.1,299.383Z" transform="translate(-79.229 -294.705)" fill="#00c9dd"/>
            <path id="Path_142491" data-name="Path 142491" d="M85.758,293.726a1.271,1.271,0,1,1,0,1.8A1.271,1.271,0,0,1,85.758,293.726Z" transform="translate(-81.081 -292.854)" fill="#005a78"/>
          </g>
          <g id="Group_60918" data-name="Group 60918" transform="translate(3.044 3.044)">
            <path id="Path_142492" data-name="Path 142492" d="M84,301.6l3.968-3.968a1.7,1.7,0,0,1,2.391,0h0a1.7,1.7,0,0,1,0,2.391L86.4,303.988a1.7,1.7,0,0,1-2.391,0h0A1.7,1.7,0,0,1,84,301.6Z" transform="translate(-83.511 -297.136)" fill="#d9f1fd"/>
            <path id="Path_142493" data-name="Path 142493" d="M84.627,303.907a1.271,1.271,0,1,1,0,1.8A1.272,1.272,0,0,1,84.627,303.907Z" transform="translate(-83.754 -299.231)" fill="#ffa90a"/>
            <path id="Path_142494" data-name="Path 142494" d="M90.283,298.251a1.271,1.271,0,1,1,0,1.8A1.271,1.271,0,0,1,90.283,298.251Z" transform="translate(-85.606 -297.379)" fill="#f5500a"/>
          </g>
        </g>
      </g>
      <path id="Path_142495" data-name="Path 142495" d="M35.4,303.6a6.371,6.371,0,1,0-6.371-6.371A6.383,6.383,0,0,0,35.4,303.6Z" transform="translate(-3.192 -4.396)" fill="#072d5e"/>
      <path id="Path_142496" data-name="Path 142496" d="M36.938,301.981a3.211,3.211,0,1,0-3.211-3.211A3.217,3.217,0,0,0,36.938,301.981Z" transform="translate(-4.759 -5.937)" fill="#0f4283"/>
      <g id="Group_60921" data-name="Group 60921" transform="translate(26.564 277.5)">
        <path id="Path_142497" data-name="Path 142497" d="M35.113,287.166h4.556v8.979c-.934,1.942-4.014,1.7-4.556,0Z" transform="translate(-31.748 -280.664)" fill="#ffa90a"/>
        <path id="Path_142498" data-name="Path 142498" d="M35.543,288.363a5.432,5.432,0,1,0-5.432-5.432A5.442,5.442,0,0,0,35.543,288.363Z" transform="translate(-30.111 -277.5)" fill="#f5500a"/>
      </g>
      <path id="Path_142499" data-name="Path 142499" d="M26.932,315.975l.061,17.621-1.352-1.072a30.293,30.293,0,0,1-.259-15.8Z" transform="translate(-1.695 -12.68)" fill="#ffa90a"/>
      <path id="Path_142500" data-name="Path 142500" d="M96.833,315.975,96.772,333.6l1.351-1.072a30.279,30.279,0,0,0,.259-15.8Z" transform="translate(-25.518 -12.68)" fill="#f99a26"/>
    </g>
  </g>
</svg>