<svg xmlns="http://www.w3.org/2000/svg" xmlns:xlink="http://www.w3.org/1999/xlink" width="48" height="19" viewBox="0 0 48 19">
  <defs>
    <linearGradient id="linear-gradient" x1="0.5" x2="0.5" y2="1" gradientUnits="objectBoundingBox">
      <stop offset="0" stop-color="#e8b652"/>
      <stop offset="1" stop-color="#bf335c"/>
    </linearGradient>
  </defs>
  <g id="Group_65144" data-name="Group 65144" transform="translate(0 0.727)">
    <text id="Welcome_back" data-name="Welcome back" transform="translate(32 12.273)" font-size="12" font-family="Avenir-Regular, Avenir"><tspan x="-15.12" y="0">Coins</tspan></text>
    <path id="Coins" d="M0,9.5v1C0,11.327,2.016,12,4.5,12S9,11.327,9,10.5v-1a8.523,8.523,0,0,1-4.5,1A8.523,8.523,0,0,1,0,9.5ZM7.5,3C9.984,3,12,2.327,12,1.5S9.984,0,7.5,0,3,.673,3,1.5,5.016,3,7.5,3ZM0,7.041V8.25c0,.827,2.016,1.5,4.5,1.5S9,9.077,9,8.25V7.041A7.548,7.548,0,0,1,4.5,8.25,7.548,7.548,0,0,1,0,7.041ZM9.75,7.3C11.093,7.038,12,6.555,12,6V5a5.756,5.756,0,0,1-2.25.809ZM4.5,3.75C2.016,3.75,0,4.589,0,5.625S2.016,7.5,4.5,7.5,9,6.661,9,5.625,6.984,3.75,4.5,3.75ZM9.64,5.07C11.046,4.816,12,4.32,12,3.75v-1a7.63,7.63,0,0,1-3.766.98A2.625,2.625,0,0,1,9.64,5.07Z" transform="translate(0 2)" fill="url(#linear-gradient)"/>
  </g>
</svg>
