<svg xmlns="http://www.w3.org/2000/svg" width="70.437" height="66.076" viewBox="0 0 70.437 66.076">
  <g id="coin-trans" transform="translate(0 0)">
    <g id="Group_60612" data-name="Group 60612" transform="matrix(-0.052, -0.999, 0.999, -0.052, 3.278, 66.076)">
      <g id="Group_60611" data-name="Group 60611" transform="translate(0 0)">
        <path id="Path_141015" data-name="Path 141015" d="M28.349,0h5.943V67.251H28.349C12.693,67.251,0,52.2,0,33.625S12.693,0,28.349,0Z" transform="translate(0 0)" fill="#db6402"/>
        <path id="Path_141016" data-name="Path 141016" d="M23.542,5.45V7.274H17.6A25.6,25.6,0,0,1,0,0L23.542.259Z" transform="translate(10.751 59.977)" fill="#dba97f" style="mix-blend-mode: multiply;isolation: isolate"/>
        <path id="Path_141017" data-name="Path 141017" d="M20.224,12.538,0,12.345A35.221,35.221,0,0,1,6.309,0L20.348.134Z" transform="translate(1.512 10.448)" fill="#fff" style="mix-blend-mode: soft-light;isolation: isolate"/>
        <path id="Path_141018" data-name="Path 141018" d="M11.963,1.892,0,1.777Q.919.842,1.9,0L11.982.1Z" transform="translate(9.9 6.329)" fill="#fff" style="mix-blend-mode: soft-light;isolation: isolate"/>
      </g>
      <ellipse id="Ellipse_3786" data-name="Ellipse 3786" cx="28.35" cy="33.625" rx="28.35" ry="33.625" transform="translate(5.943 0)" fill="#fee475"/>
      <ellipse id="Ellipse_3787" data-name="Ellipse 3787" cx="27.418" cy="32.521" rx="27.418" ry="32.521" transform="translate(6.875 1.105)" fill="#fed425"/>
      <path id="Path_141019" data-name="Path 141019" d="M39.492,51.019,0,12.151A33.945,33.945,0,0,1,6.346,0L48.393,41.383A29.946,29.946,0,0,1,39.492,51.019Z" transform="translate(8.377 10.856)" fill="#fff" style="mix-blend-mode: soft-light;isolation: isolate"/>
      <path id="Path_141020" data-name="Path 141020" d="M0,0,24.3,23.917C12.6,22.831,2.968,13.043,0,0Z" transform="translate(7.825 42.118)" fill="#fff" style="mix-blend-mode: soft-light;isolation: isolate"/>
      <path id="Path_141021" data-name="Path 141021" d="M23.058,22.694,0,0A23.957,23.957,0,0,1,7.858,2.513L19.511,13.981A35.243,35.243,0,0,1,23.058,22.694Z" transform="translate(37.435 1.324)" fill="#fff" style="mix-blend-mode: soft-light;isolation: isolate"/>
      <path id="Path_141022" data-name="Path 141022" d="M41.457,42.2,0,1.4C.5.91,1.018.447,1.546,0L42.335,40.145Q41.925,41.193,41.457,42.2Z" transform="translate(16.837 7.148)" fill="#fff" style="mix-blend-mode: soft-light;isolation: isolate"/>
      <path id="Path_141023" data-name="Path 141023" d="M28.35,1.23C12.867,1.23.291,15.954.013,34.24c0-.205-.013-.409-.013-.615C0,15.055,12.693,0,28.35,0S56.7,15.055,56.7,33.625c0,.206-.01.41-.013.615C56.409,15.954,43.833,1.23,28.35,1.23Z" transform="translate(5.943 0)" fill="#fff" style="mix-blend-mode: soft-light;isolation: isolate"/>
      <ellipse id="Ellipse_3788" data-name="Ellipse 3788" cx="19.503" cy="23.132" rx="19.503" ry="23.132" transform="translate(14.159 11.404)" fill="#fff" style="mix-blend-mode: soft-light;isolation: isolate"/>
      <ellipse id="Ellipse_3789" data-name="Ellipse 3789" cx="19.503" cy="23.132" rx="19.503" ry="23.132" transform="translate(14.79 10.493)" fill="#feb724"/>
      <path id="Path_141024" data-name="Path 141024" d="M34.126,25.091c0-12.776-8.732-23.132-19.5-23.132C8.8,1.959,3.574,4.991,0,9.792,3.532,3.87,9.347,0,15.928,0c10.771,0,19.5,10.357,19.5,23.132a25.633,25.633,0,0,1-4.88,15.3A26.053,26.053,0,0,0,34.126,25.091Z" transform="translate(18.364 10.493)" fill="#fb9d12"/>
    </g>
  </g>
</svg>
