<svg xmlns="http://www.w3.org/2000/svg" width="199.887" height="263.538" viewBox="0 0 199.887 263.538">
  <g id="daily_bonus_path" data-name="daily bonus path" transform="translate(-93.789 -429.629)">
    <g id="path4">
      <path id="Path_141522" data-name="Path 141522" d="M-930.363,7650.209s21.694,30.455,62.287,37.471" transform="translate(1042 -7220)" fill="none" stroke="#fff" stroke-width="2" stroke-dasharray="10"/>
      <path id="Path_141528" data-name="Path 141528" d="M-813,7666.978l8.9,10.881v-14.306l-3.314,5.424Z" transform="matrix(0.777, -0.629, 0.629, 0.777, -4051.338, -6008.775)" fill="#fff"/>
    </g>
    <g id="path3">
      <path id="Path_141769" data-name="Path 141769" d="M-893.093,7614.122s69.674,18.949-62.282,49.2" transform="translate(1156 -7122)" fill="none" stroke="#fff" stroke-width="2" stroke-dasharray="10"/>
      <path id="Path_141772" data-name="Path 141772" d="M0,10.882,8.9,0V14.306L5.585,8.882Z" transform="translate(244.311 539.129) rotate(-131)" fill="#fff"/>
    </g>
    <g id="path2">
      <path id="Path_141771" data-name="Path 141771" d="M-892.727,7590.135s103.314,23.708-59.393,45.776" transform="translate(1153.044 -6943.735)" fill="none" stroke="#fff" stroke-width="2" stroke-dasharray="10"/>
      <path id="Path_141773" data-name="Path 141773" d="M0,10.882,8.9,0V14.306L5.585,8.882Z" transform="translate(266.311 689.129) rotate(-131)" fill="#fff"/>
    </g>
    <g id="path1">
      <path id="Path_141770" data-name="Path 141770" d="M-938.675,7609.909s-24.478,29.714,77.729,43.977" transform="translate(1036.044 -7027.122)" fill="none" stroke="#fff" stroke-width="2" stroke-dasharray="10"/>
      <path id="Path_141774" data-name="Path 141774" d="M-813,7666.978l8.9,10.881v-14.306l-3.314,5.424Z" transform="translate(-5038.419 -5117.434) rotate(-48)" fill="#fff"/>
    </g>
  </g>
</svg>
