<svg xmlns="http://www.w3.org/2000/svg" width="56.7" height="48.6" viewBox="0 0 56.7 48.6">
  <path id="Path_184526" data-name="Path 184526" d="M1152.3,99.63a1.676,1.676,0,0,1-1.43.115,1.09,1.09,0,0,1-.059,1.063.978.978,0,0,1-.3.341,1.673,1.673,0,0,1-.85.282,1.259,1.259,0,0,1-1.342-1.578,1.792,1.792,0,0,1-1.136-.017,2.009,2.009,0,0,0,.033.217,1.06,1.06,0,0,1-.091.715.888.888,0,0,1-.089.13.162.162,0,0,0,.146-.006,1.353,1.353,0,0,1,1.172.043,1.092,1.092,0,0,1,.64.889.931.931,0,0,1-.166.656,1.285,1.285,0,0,1-1.026.556,1.376,1.376,0,0,1-.649-.114,1.083,1.083,0,0,1-.7-1.141,2.1,2.1,0,0,1,.1-.326l.047-.151a1.564,1.564,0,0,1-1.451.02c-.046.1.039.17.067.245a1,1,0,0,1,.02.639,1.156,1.156,0,0,1-.6.683,1.322,1.322,0,0,1-.8.142,1.214,1.214,0,0,1-.7-.3,1.087,1.087,0,0,1-.371-.5.984.984,0,0,1,.069-.789c.035-.061.067-.125.114-.212a1.6,1.6,0,0,1-1.678-.014.332.332,0,0,0,.036.1.95.95,0,0,1,.2.6,1.007,1.007,0,0,1-.333.753,1.229,1.229,0,0,1-.719.323,1.313,1.313,0,0,1-.7-.089,1.061,1.061,0,0,1-.712-.96.965.965,0,0,1,.27-.716,1.36,1.36,0,0,1,1.637-.219.606.606,0,0,0,.142.034,1.108,1.108,0,0,1-.163-1.317,1.106,1.106,0,0,0-.156.029,1.479,1.479,0,0,1-.967.035c-.09-.028-.183-.048-.289-.075a1.071,1.071,0,0,1-.5,1.5,1.378,1.378,0,0,1-1.569-.192,1.011,1.011,0,0,1-.181-1.366,1.39,1.39,0,0,1,1.689-.428,1.893,1.893,0,0,0-.072-.231,1.08,1.08,0,0,1-.02-.782,4.652,4.652,0,0,1-.568.04,4.5,4.5,0,0,1-.553-.09,1.142,1.142,0,0,1-.445,1.373,1.456,1.456,0,0,1-1.722-.124,1.031,1.031,0,0,1-.244-1.335,1.406,1.406,0,0,1,1.691-.564,1.288,1.288,0,0,1-.061-.99,1.8,1.8,0,0,1-1.114-.046,1.145,1.145,0,0,0,.026.155,1.008,1.008,0,0,1-.074.767,1.053,1.053,0,0,1-.419.456,1.456,1.456,0,0,1-1.43.064,1.1,1.1,0,0,1-.3-.2,1.06,1.06,0,0,1-.322-1.091.731.731,0,0,1,.135-.287.553.553,0,0,0,.056-.145,1.465,1.465,0,0,1-1.777-.176,1.046,1.046,0,0,1,.025-1.509,1.4,1.4,0,0,1,1.518-.286,2.079,2.079,0,0,1-.144-.571,2.933,2.933,0,0,1,.111-.58,1.758,1.758,0,0,1-.691.092,3.81,3.81,0,0,1-.623-.158,1.093,1.093,0,0,1,.053,1.035,1.062,1.062,0,0,1-.472.484,1.363,1.363,0,0,1-1.661-.239.976.976,0,0,1-.057-1.326,1.361,1.361,0,0,1,1.678-.339c.047-.028.025-.062.006-.092a1.191,1.191,0,0,1-.162-.452,1.088,1.088,0,0,1,.059-.5,2.329,2.329,0,0,1,.108-.239c-.125.034-.233.067-.342.093a1.373,1.373,0,0,1-.876-.076,1.138,1.138,0,0,1-.446-.3,1.041,1.041,0,0,1-.2-1.167,1.057,1.057,0,0,1,.315-.424,1.458,1.458,0,0,1,1.2-.276c.071.013.138.037.223.06,0-.031.02-.062.01-.084a1.116,1.116,0,0,1-.008-.967c.008-.018.009-.053,0-.058a.118.118,0,0,0-.078-.008,1.537,1.537,0,0,1-.954-.024,1.2,1.2,0,0,1-.562-.381,1.059,1.059,0,0,1-.093-1.237,1.183,1.183,0,0,1,.314-.348,1.432,1.432,0,0,1,1.124-.245,3.629,3.629,0,0,1,.388.113.442.442,0,0,0-.033-.132,1.009,1.009,0,0,1-.068-.9c.044-.12.109-.233.164-.347l-.317.11a1.429,1.429,0,0,1-.857,0,1.282,1.282,0,0,1-.267-.136c-.042-.023-.082-.05-.123-.075a.4.4,0,0,1-.084-.054,1.054,1.054,0,0,1-.245-1.274,1.128,1.128,0,0,1,.533-.519,1.347,1.347,0,0,1,1.163-.038c.078.034.155.07.258.117a1.078,1.078,0,0,1,.085-1.5,1.5,1.5,0,0,1,1.757-.23,1.02,1.02,0,0,1-.209-.459.953.953,0,0,1,.019-.506c.053-.154.136-.3.2-.46a1.375,1.375,0,0,1-1.134.138,1.068,1.068,0,0,1-.57-.343,1,1,0,0,1,.152-1.5,1.314,1.314,0,0,1,1.627-.018,1.006,1.006,0,0,1,.194,1.476.475.475,0,0,0,.135-.024,1.527,1.527,0,0,1,1.276-.095c.058-.021.043-.054.027-.1a1.1,1.1,0,0,1-.06-.668.891.891,0,0,1,.164-.375.245.245,0,0,0,.038-.13,1.361,1.361,0,0,1-1.132.124,1.15,1.15,0,0,1-.591-.385,1,1,0,0,1,.209-1.477,1.337,1.337,0,0,1,1.614.01,1,1,0,0,1,.2,1.444.148.148,0,0,0,.151-.016,1.44,1.44,0,0,1,1.039-.127,3.525,3.525,0,0,1,.385.129c-.036-.089-.071-.177-.108-.265a.978.978,0,0,1-.015-.718.805.805,0,0,1,.2-.346.573.573,0,0,0,.06-.091.266.266,0,0,1,.069-.085,1.953,1.953,0,0,1,.744-.312,1.453,1.453,0,0,1,.79.1,1.259,1.259,0,0,0,.139.049.194.194,0,0,0,.047,0,.972.972,0,0,1-.07-.1,1.016,1.016,0,0,1-.037-.935,1.092,1.092,0,0,1,.329-.432,1.43,1.43,0,0,1,1.091-.281,1.269,1.269,0,0,1,.775.377,1.028,1.028,0,0,1,.239,1.161.947.947,0,0,0-.033.144,1.726,1.726,0,0,1,1.263-.059.346.346,0,0,0,0-.109,1.043,1.043,0,0,1,.017-.707,1.211,1.211,0,0,1,.738-.718,1.479,1.479,0,0,1,.876-.07,2.567,2.567,0,0,1,.383.144.86.86,0,0,1,.142.073.694.694,0,0,1,.171.126,1.213,1.213,0,0,1,.334.915c-.011.089-.031.178-.052.3.042-.008.081-.013.117-.024a1.725,1.725,0,0,1,1.032.04s.008,0,.031-.011c-.011-.062-.018-.129-.036-.194a.967.967,0,0,1,.075-.711c.039-.079.087-.154.137-.241-.119.041-.229.081-.341.118a1.38,1.38,0,0,1-.819,0,1.174,1.174,0,0,1-.666-.464.955.955,0,0,1-.064-1.078,1.239,1.239,0,0,1,.465-.457,1.344,1.344,0,0,1,.923-.155,1.3,1.3,0,0,1,.815.49.944.944,0,0,1,.206.6,1.4,1.4,0,0,1-.225.685,1.556,1.556,0,0,1,1.643.015.527.527,0,0,0-.04-.131.952.952,0,0,1-.064-1.019,1.052,1.052,0,0,1,.48-.474,1.369,1.369,0,0,1,.691-.164,1.241,1.241,0,0,1,1.034.537.932.932,0,0,1,.132.856,1.122,1.122,0,0,1-.755.73,1.475,1.475,0,0,1-.984-.024c-.076-.026-.133-.094-.24-.081a1.244,1.244,0,0,1,.26.558,1.65,1.65,0,0,1-.058.588,4.82,4.82,0,0,1,.62-.063,4.664,4.664,0,0,1,.608.091,1.022,1.022,0,0,1-.066-.718,1.093,1.093,0,0,1,.472-.652,1.436,1.436,0,0,1,1.108-.2,1.248,1.248,0,0,1,.694.368,1.054,1.054,0,0,1,.272,1,.855.855,0,0,1-.16.348.325.325,0,0,0-.055.15,1.481,1.481,0,0,1,1.046-.241,1.363,1.363,0,0,1,.728.312,1.109,1.109,0,0,1,.28,1.41c.1-.026.191-.047.278-.069a1.5,1.5,0,0,1,.857.031,1.36,1.36,0,0,1,.541.318,1.146,1.146,0,0,1,.335.622,1.112,1.112,0,0,1-.177.824c.069-.02.123-.03.172-.05a1.492,1.492,0,0,1,1.179.028,1.156,1.156,0,0,1,.73,1.136.992.992,0,0,1-.107.416.483.483,0,0,0-.03.117,1.487,1.487,0,0,1,1.659.293,1.049,1.049,0,0,1,.194,1.232,1.43,1.43,0,0,1-1.676.648,1.257,1.257,0,0,1,.008,1.018,2.164,2.164,0,0,1,.623-.066c.195.008.364.1.579.122a1.052,1.052,0,0,1-.045-.937,1.146,1.146,0,0,1,.585-.582,1.371,1.371,0,0,1,1.546.221.99.99,0,0,1,.169,1.36,1.376,1.376,0,0,1-1.656.449c-.048.028-.038.06-.018.1a1.077,1.077,0,0,1,.038.926c-.018.045-.04.088-.068.15a.837.837,0,0,0,.145-.02,1.485,1.485,0,0,1,1.005.029,1.17,1.17,0,0,1,.524.381,1.053,1.053,0,0,1,.209.952,1.147,1.147,0,0,1-.525.681,1.382,1.382,0,0,1-1.065.178c-.113-.025-.222-.062-.332-.093.048.132.105.262.142.4a.835.835,0,0,1,.014.413c-.03.132-.069.262-.109.41a1.424,1.424,0,0,1,1.613.4,1.02,1.02,0,0,1,.089,1.213,1.26,1.26,0,0,1-.79.561,1.636,1.636,0,0,1-1.034-.095,1.071,1.071,0,0,1-.068,1.34,1.481,1.481,0,0,1-1.631.436,1.489,1.489,0,0,1,.094.573,1.332,1.332,0,0,1-.187.566,1.082,1.082,0,0,0,.151-.028,1.407,1.407,0,0,1,.981,0,1.15,1.15,0,0,1,.771.8.928.928,0,0,1-.176.859,1.2,1.2,0,0,1-.218.249,1.435,1.435,0,0,1-1.292.229,1.162,1.162,0,0,1-.492-.26,1.063,1.063,0,0,1-.334-1.125c.016-.05.043-.1.059-.146a.6.6,0,0,0,.011-.113,1.679,1.679,0,0,1-1.09.124.616.616,0,0,0-.129,0,1.211,1.211,0,0,1-.034.953.073.073,0,0,0,0,.069.1.1,0,0,0,.076.005,1.476,1.476,0,0,1,1,.033,1.1,1.1,0,0,1,.574.458,1.489,1.489,0,0,1,.14.284.992.992,0,0,1-.119.88,1.058,1.058,0,0,1-.23.274,1.42,1.42,0,0,1-.958.316,1.535,1.535,0,0,1-.605-.148.587.587,0,0,0-.106-.022c.048.1.093.18.126.263a.984.984,0,0,1-.089.951,1.031,1.031,0,0,1-.227.276,1.432,1.432,0,0,1-.959.317,1.529,1.529,0,0,1-.629-.164,1.141,1.141,0,0,1-.359-.272,1.06,1.06,0,0,1-.269-.6,1.048,1.048,0,0,1,.077-.526c.019-.046,0-.065-.04-.085a1.689,1.689,0,0,1-1.091.057.3.3,0,0,0-.106.013,1.163,1.163,0,0,1-.162,1.13c.077-.023.136-.036.19-.058a1.314,1.314,0,0,1,1.18.056,1.039,1.039,0,0,1,.615,1.157,1.06,1.06,0,0,1-.493.707,1.328,1.328,0,0,1-.842.232,1.281,1.281,0,0,1-.836-.33,1.032,1.032,0,0,1-.293-1.213,1.092,1.092,0,0,1,.058-.106C1152.267,99.719,1152.279,99.687,1152.3,99.63Zm-20.391-15.29.106-.056c.026-.014.05-.03.076-.042a1.669,1.669,0,0,1,.963-.116.631.631,0,0,0,.11,0c-.022-.119-.047-.222-.057-.326a1.1,1.1,0,0,1,.1-.575c.02-.044.02-.076-.034-.1a1.581,1.581,0,0,1-1.281-.148A1.085,1.085,0,0,1,1131.913,84.339Zm22.913,12.218a1.222,1.222,0,0,1-.067.879.2.2,0,0,0,0,.071.4.4,0,0,0,.094,0,1.424,1.424,0,0,1,.932.023c.078.032.16.057.276.1a1.811,1.811,0,0,1-.2-.561,1.25,1.25,0,0,1,.1-.573c-.141-.034-.243.06-.363.066s-.243.03-.364.03S1154.973,96.57,1154.826,96.558ZM1143.233,101c.061-.032.089-.049.12-.063s.065-.02.1-.034a1.367,1.367,0,0,1,1.078-.015,1.016,1.016,0,0,0,.152.029,1.421,1.421,0,0,1-.189-.49,1.3,1.3,0,0,1,.043-.511,5.061,5.061,0,0,1-.54.048,5.433,5.433,0,0,1-.549-.059A1.187,1.187,0,0,1,1143.233,101Zm-9.289-6.214a1.289,1.289,0,0,1,.1.6,1.361,1.361,0,0,1-.224.561,2.4,2.4,0,0,1,.616-.189,1.992,1.992,0,0,1,.676.063,1.331,1.331,0,0,1-.068-.964A1.832,1.832,0,0,1,1133.944,94.781Zm18.149-17.343a1.955,1.955,0,0,1-.014-.584,1.336,1.336,0,0,1,.266-.529.732.732,0,0,0-.2.067,1.351,1.351,0,0,1-.587.153,1.768,1.768,0,0,1-.606-.093,1.306,1.306,0,0,1,.08.956A1.985,1.985,0,0,1,1152.093,77.439Zm-12.543-1.065a1.177,1.177,0,0,1,.1,1.077,1.977,1.977,0,0,1,1.073-.052,1.271,1.271,0,0,1,.153-.962,1.446,1.446,0,0,0-.175.033,1.369,1.369,0,0,1-.562.07A1.6,1.6,0,0,1,1139.55,76.373Zm-5.691,4.994c.009.02.019.04.027.061a.362.362,0,0,0,.022.074,1.017,1.017,0,0,1,.089.865.106.106,0,0,0,0,.081c.027.039.069.014.106,0a1.792,1.792,0,0,1,.567-.084c.1,0,.193.019.312.032a1.5,1.5,0,0,1,.069-.9A1.662,1.662,0,0,1,1133.859,81.368Zm3.959-2.3a2.048,2.048,0,0,1,.837-.075c.106.012.111.006.1-.091a1.293,1.293,0,0,1,.078-.646.3.3,0,0,0,0-.1c-.034.01-.052.017-.071.022a1.427,1.427,0,0,1-.826-.023c-.091-.032-.185-.058-.3-.1A1.194,1.194,0,0,1,1137.818,79.066Zm-5.825,7.362a1.085,1.085,0,0,1,.113.98.24.24,0,0,0,0,.081.347.347,0,0,0,.082-.007,1.635,1.635,0,0,1,.562-.087c.1,0,.2.017.308.027a.706.706,0,0,0-.006-.1,1.251,1.251,0,0,1-.027-.538c.013-.059.022-.118.035-.188a4.635,4.635,0,0,1-.535-.022A4.857,4.857,0,0,1,1131.993,86.429Zm26.725,1a1.943,1.943,0,0,1,1.052.149c-.017-.04-.023-.055-.03-.07a1.025,1.025,0,0,1-.041-.919.393.393,0,0,0,.011-.122,1.657,1.657,0,0,1-1.005.1A1.522,1.522,0,0,1,1158.718,87.428Zm-26.672,2.394a1.12,1.12,0,0,1-.043,1.063c.105-.038.181-.071.26-.091a1.4,1.4,0,0,1,.61-.056c.059.011.134.039.192-.022a1.469,1.469,0,0,1-.023-.8,4.791,4.791,0,0,1-.5,0A4.873,4.873,0,0,1,1132.046,89.822Zm27.655,1.069c-.043-.175-.1-.341-.122-.51a1.016,1.016,0,0,1,.1-.533.357.357,0,0,0-.111,0,1.636,1.636,0,0,1-.875.072,1.474,1.474,0,0,1-.025.825c.188,0,.364,0,.538,0A1.325,1.325,0,0,1,1159.7,90.891Zm-1.835-9.428c-.112.033-.195.06-.278.083a1.7,1.7,0,0,1-.647.042c-.1-.011-.119.014-.1.091a1.474,1.474,0,0,1,.022.668c.149,0,.3-.013.44,0s.293.051.45.081A1.127,1.127,0,0,1,1157.865,81.463Zm-21.935-.74a2.047,2.047,0,0,1,.75-.089c.12.008.125,0,.114-.108a1.386,1.386,0,0,1,.063-.555c.009-.027.012-.055.021-.1a1.744,1.744,0,0,1-.932-.049c-.015-.005-.042.013-.071.023A1.2,1.2,0,0,1,1135.93,80.723Zm19.043-.073a2.436,2.436,0,0,1,.777.04c.016,0,.056-.037.073-.063s0-.042-.005-.064a.943.943,0,0,1,.032-.481c.034-.1.078-.2.123-.318a1.6,1.6,0,0,1-1,.137c-.01.035-.031.065-.023.089A1.278,1.278,0,0,1,1154.973,80.65Zm-12.389,18.486c-.013-.042-.018-.058-.023-.075a1.248,1.248,0,0,1-.053-.633c0-.019-.024-.044-.031-.056-.125.012-.237.029-.35.031s-.227-.014-.341-.021l-.142-.007a1.04,1.04,0,0,1-.1.7.094.094,0,0,0,.007.123A1.567,1.567,0,0,1,1142.584,99.136ZM1153,78.246a1.394,1.394,0,0,1,.079.725,1.821,1.821,0,0,1,.763.03c.02.006.051-.017.074-.026a1.066,1.066,0,0,1,.079-.71.474.474,0,0,0,.013-.116,1.564,1.564,0,0,1-.9.083A.516.516,0,0,0,1153,78.246Zm-4.7-1.714c-.192.018-.361.047-.53.046a4.975,4.975,0,0,1-.5-.048c.033.125.073.242.092.361s.017.239.024.367a2.292,2.292,0,0,1,.808.024A1.384,1.384,0,0,1,1148.3,76.532Zm1.9,22.607a1.238,1.238,0,0,1-.123-.758.5.5,0,0,0-.1-.007,1.716,1.716,0,0,1-.616.011c-.022,0-.052.019-.083.031a1.373,1.373,0,0,1-.082.68A1.746,1.746,0,0,1,1150.2,99.14Zm-6.7-22.568a1.151,1.151,0,0,1,.114.672l.738-.005.086-.651a4.386,4.386,0,0,1-.447.036C1143.834,76.621,1143.679,76.592,1143.5,76.572ZM1134.8,92.347c-.007-.21-.014-.424-.021-.638l-.7-.054a.234.234,0,0,0,0,.083.862.862,0,0,1,0,.412c-.02.088-.047.174-.076.281.145.009.263-.073.395-.079S1134.666,92.348,1134.8,92.347Zm10.667,6.76a1.862,1.862,0,0,1,.886,0,1.56,1.56,0,0,1-.115-.541c0-.1-.01-.109-.133-.095a1.721,1.721,0,0,1-.44-.007c-.047-.007-.094-.01-.145-.016,0,.115-.007.22-.009.325S1145.429,98.979,1145.469,99.106Zm11.5-6.783a1.8,1.8,0,0,1,.752.088,1.351,1.351,0,0,1-.064-.747l-.659.057Zm.036-7.289c0,.166.005.318,0,.47,0,.1.005.1.106.111.123.008.246.022.369.034l.208.022a1.259,1.259,0,0,1,.037-.723Zm-5.767,12.319a1.674,1.674,0,0,1,.657.037.094.094,0,0,0,.075-.014c.013-.014.008-.046,0-.069-.021-.1-.052-.2-.067-.3a1.464,1.464,0,0,1,0-.214l-.617.022C1151.274,96.994,1151.259,97.166,1151.242,97.353Zm-10.774,0c.009-.024.019-.036.018-.048-.011-.135-.021-.27-.04-.4a.107.107,0,0,0-.078-.061c-.167-.013-.334-.017-.494-.024-.023.184-.047.371-.072.563A1.658,1.658,0,0,1,1140.468,97.356Zm9.58-19.064-.675.029.052.473.243.015.236.017c.072.006.089-.023.094-.084.01-.125.036-.249.053-.374A.357.357,0,0,0,1150.048,78.292Zm-15.907,6.7c.01.1.012.2.032.307s-.056.212.015.307l.531-.056c.005-.166.01-.329.016-.49Zm21.554,8.438-.471.021a.069.069,0,0,0-.074.078c0,.137,0,.274-.005.422a1.946,1.946,0,0,1,.61.092Zm-21.555-4.47c.174-.048.374-.024.556-.065,0-.138-.011-.258-.013-.379,0-.1-.005-.1-.108-.107-.082-.007-.163-.024-.245-.033s-.139-.01-.188-.014C1134.141,88.572,1134.14,88.761,1134.14,88.961Zm4.348,6.225-.5-.021-.079.525.625-.059Zm-1.916-1.689-.494-.043c-.014.182-.027.357-.04.54l.556-.057C1136.586,93.782,1136.579,93.644,1136.572,93.5Zm21.026-4.534c0-.195-.007-.37-.011-.547-.125.016-.241.034-.358.046s-.131.011-.131.124,0,.226,0,.331Zm-4.356,6.637.553.038c-.009-.142-.017-.282-.03-.422,0-.018-.027-.034-.037-.046l-.441.029C1153.27,95.338,1153.256,95.467,1153.241,95.6ZM1141.8,78.344l.061.437.474-.024a2.694,2.694,0,0,0,.02-.4Zm2.411,18.946-.038-.264c-.012-.086-.024-.1-.129-.1a1.74,1.74,0,0,1-.19-.006.082.082,0,0,0-.1.069c-.017.1-.024.2-.037.31Zm-8.06-13.48c.1,0,.2,0,.293-.014.026,0,.068-.036.069-.057,0-.1,0-.2,0-.306l-.4-.035C1136.123,83.546,1136.136,83.675,1136.149,83.81Zm19.145-.011.349.028a2.516,2.516,0,0,0,.01-.413l-.193.015-.193.017C1155.276,83.572,1155.284,83.683,1155.293,83.8Zm-14.922-3.712c-.116-.011-.223-.024-.33-.032-.061,0-.093.018-.081.078s.014.111.025.166a.087.087,0,0,0,.111.078c.085-.009.171-.009.255-.012C1140.359,80.273,1140.365,80.187,1140.372,80.087Zm11.46-.018-.335.008a.084.084,0,0,0-.042.009c-.093.066,0,.147-.02.221-.005.019.04.068.067.07.1.009.193,0,.291,0Zm-6.164-1.669c.007.082.012.149.018.217s.061.09.125.077c.083-.017.193.054.246-.057a.1.1,0,0,0,.01-.038c0-.06.006-.121.009-.2Zm7.7,3.378c.007.093.013.182.019.271l.328.021c.008-.117.016-.221.024-.33Zm-17.186,8.42a.566.566,0,0,0-.022.317l.348-.037c0-.095-.006-.179-.009-.262Zm11.477,6.76c-.014.091-.023.151-.031.211s.012.08.081.078c.087,0,.174,0,.263.006.066-.1,0-.187-.005-.283Zm7.926-6.709c-.091.029-.2-.046-.256.059a.126.126,0,0,0,.025.129.236.236,0,0,0,.238.01C1155.588,90.386,1155.586,90.327,1155.583,90.249Zm-17.48-8.46c0,.06,0,.1,0,.144s.024.082.075.083.131.015.174-.041.03-.157-.032-.17A1.528,1.528,0,0,0,1138.1,81.789Zm17.175,5.3c.071,0,.129,0,.188,0s.08-.034.083-.086.013-.09-.048-.111a.155.155,0,0,0-.218.141A.479.479,0,0,1,1155.279,87.092Zm-19.037-.2c0,.051-.042.112.027.14a.23.23,0,0,0,.151,0c.065-.026.039-.079.015-.128ZM1149.8,95.5l-.01-.2-.111-.012-.048.2Zm-7.711-.2a.192.192,0,0,0-.074.011.126.126,0,0,0-.022.164.078.078,0,0,0,.105,0A.132.132,0,0,0,1142.091,95.3Zm-1.83-1.689c-.172,0-.172,0-.151.153C1140.256,93.773,1140.261,93.769,1140.261,93.609Zm-2.072-1.51c.065-.043.147.011.175-.072-.037-.086-.108-.065-.185-.054C1138.182,92.009,1138.184,92.039,1138.189,92.1Zm15.225-.124.027.1c.067.008.133.034.162-.045C1153.568,91.943,1153.488,91.986,1153.414,91.974Zm-5.61-11.78c-.071.062-.052.121-.04.187C1147.859,80.316,1147.865,80.293,1147.8,80.194Zm3.842,13.536a.215.215,0,0,0-.03-.05.04.04,0,0,0-.035,0,.1.1,0,0,0-.009.04Zm-7.629-10.044.011-.021c-.008,0-.017-.009-.024-.008a.02.02,0,0,0-.009.019S1144.01,83.683,1144.017,83.686Zm-3.755,3.308c0-.007,0-.018-.009-.019s-.016,0-.023.007l.009.021Zm11.287,3.326a.12.12,0,0,0-.007-.018s-.011,0-.012,0a.089.089,0,0,0,0,.021Zm-7.527,0,0-.02s-.012,0-.013,0a.105.105,0,0,0-.006.02Zm3.766-3.333a.153.153,0,0,0-.024.006s0,.007,0,.011.017,0,.022,0S1147.786,86.991,1147.788,86.984Zm0,6.653a.121.121,0,0,0-.007-.018s-.011,0-.012,0a.112.112,0,0,0,0,.02Zm-3.8-13.356a.173.173,0,0,0,0-.021s-.012,0-.013,0a.117.117,0,0,0-.009.02Zm16.057,12.57a1.027,1.027,0,0,0,0,1.567,1.393,1.393,0,0,0,1.772.005,1.021,1.021,0,0,0,.006-1.564A1.386,1.386,0,0,0,1160.039,92.851Zm-18.806-19.884a1.008,1.008,0,0,0-.005,1.559,1.357,1.357,0,0,0,1.766.006,1.007,1.007,0,0,0,.008-1.558A1.369,1.369,0,0,0,1141.232,72.967Zm15.065,3.3a.983.983,0,0,0-.013,1.537,1.325,1.325,0,0,0,1.754.015,1,1,0,0,0,.019-1.552A1.363,1.363,0,0,0,1156.3,76.264Zm-3.893,24.882a1.33,1.33,0,0,0-1.755,0,.989.989,0,0,0,.011,1.542,1.356,1.356,0,0,0,1.749-.006A1,1,0,0,0,1152.4,101.146Zm7.55-21.655a.991.991,0,0,0-.007-1.538,1.34,1.34,0,0,0-1.754-.008,1.023,1.023,0,0,0,0,1.544A1.39,1.39,0,0,0,1159.955,79.491Zm-31.829,9.939a1.294,1.294,0,0,0,1.733,0,.964.964,0,0,0,0-1.535,1.332,1.332,0,0,0-1.734-.005A.985.985,0,0,0,1128.126,89.43Zm35.532-.028a.972.972,0,0,0,0-1.532,1.307,1.307,0,0,0-1.736.01.992.992,0,0,0,0,1.533A1.344,1.344,0,0,0,1163.658,89.4Zm-9.2-13.251a1.333,1.333,0,0,0,1.708.015.992.992,0,0,0,.018-1.515,1.328,1.328,0,0,0-1.714-.021A.974.974,0,0,0,1154.454,76.151Zm-17.051-.017a.987.987,0,0,0-.021-1.515,1.314,1.314,0,0,0-1.718.019.964.964,0,0,0,.021,1.513A1.323,1.323,0,0,0,1137.4,76.134Zm24.525,9.98a1.338,1.338,0,0,0,1.722,0,.98.98,0,0,0,.005-1.507,1.309,1.309,0,0,0-1.716,0A.976.976,0,0,0,1161.928,86.114Zm-32.115-1.522a1.358,1.358,0,0,0-1.71-.008,1,1,0,0,0-.008,1.517,1.313,1.313,0,0,0,1.7-.007A.973.973,0,0,0,1129.813,84.592Zm.188-3.455a1.352,1.352,0,0,0,1.7.012,1,1,0,0,0,.024-1.51,1.316,1.316,0,0,0-1.7,0A.966.966,0,0,0,1130,81.136Zm31.777-.022a1,1,0,0,0,.019-1.492,1.354,1.354,0,0,0-1.7-.023.969.969,0,0,0-.012,1.5A1.312,1.312,0,0,0,1161.778,81.114Zm-33.634,11.579a1.346,1.346,0,0,0,1.691,0,.988.988,0,0,0,.006-1.5,1.33,1.33,0,0,0-1.69,0A.981.981,0,0,0,1128.144,92.694Zm35.492-1.441a1.347,1.347,0,0,0-1.686-.012,1,1,0,0,0-.02,1.5,1.327,1.327,0,0,0,1.695,0A.971.971,0,0,0,1163.636,91.253ZM1146.7,104.3a.967.967,0,0,0,0-1.483,1.314,1.314,0,0,0-1.681,0,.971.971,0,0,0,0,1.483A1.314,1.314,0,0,0,1146.7,104.3Zm-9.148-29.81a1.3,1.3,0,0,0,1.677,0,.962.962,0,0,0-.005-1.485,1.3,1.3,0,0,0-1.669.007A.96.96,0,0,0,1137.554,74.486Zm16.686-.03a.946.946,0,0,0,0-1.48,1.284,1.284,0,0,0-1.664,0,.958.958,0,0,0,0,1.478A1.291,1.291,0,0,0,1154.24,74.456Zm5.616,24.88a.951.951,0,0,0,0-1.476,1.272,1.272,0,0,0-1.672.007.947.947,0,0,0,.007,1.47A1.3,1.3,0,0,0,1159.856,99.336Zm-26.317-.013a.939.939,0,0,0,0-1.476,1.258,1.258,0,0,0-1.662.009.947.947,0,0,0,0,1.468A1.29,1.29,0,0,0,1133.539,99.323Zm1.915.22a1.255,1.255,0,0,0-1.663-.011.929.929,0,0,0-.019,1.457,1.275,1.275,0,0,0,1.666.015A.943.943,0,0,0,1135.453,99.543Zm20.883-.042a.919.919,0,0,0-.016,1.461,1.248,1.248,0,0,0,1.669.006.943.943,0,0,0,0-1.463A1.265,1.265,0,0,0,1156.336,99.5Zm-9.374-28.117a.907.907,0,0,0,0,1.448,1.266,1.266,0,0,0,1.664.008.964.964,0,0,0-.015-1.46A1.259,1.259,0,0,0,1146.962,71.385Zm-4.008,32.9a.9.9,0,0,0,.019-1.447,1.22,1.22,0,0,0-1.655-.016.931.931,0,0,0-.009,1.453A1.252,1.252,0,0,0,1142.954,104.285Zm1.892-32.941a1.23,1.23,0,0,0-1.643,0,.908.908,0,0,0-.008,1.452,1.25,1.25,0,0,0,1.644.012A.937.937,0,0,0,1144.846,71.344Zm5.6,32.974a.91.91,0,0,0,0-1.44,1.229,1.229,0,0,0-1.64,0,.929.929,0,0,0-.009,1.44A1.252,1.252,0,0,0,1150.445,104.318Zm-20.617-23.008a1.218,1.218,0,0,0-1.64-.015.937.937,0,0,0-.029,1.457,1.293,1.293,0,0,0,1.644,0A.92.92,0,0,0,1129.829,81.309Zm31.922,14.9a1.209,1.209,0,0,0-1.635-.017.914.914,0,0,0-.027,1.437,1.259,1.259,0,0,0,1.644.024A.916.916,0,0,0,1161.751,96.206Zm-30.081.015a1.214,1.214,0,0,0-1.63,0,.9.9,0,0,0-.015,1.447,1.248,1.248,0,0,0,1.645.005A.926.926,0,0,0,1131.669,96.221Zm31.98-13.459a.941.941,0,0,0,.006-1.435,1.283,1.283,0,0,0-1.628-.017.923.923,0,0,0,0,1.44A1.239,1.239,0,0,0,1163.65,82.762Zm-26.372,19.864a.964.964,0,0,0,.01-1.426,1.312,1.312,0,0,0-1.628,0,.931.931,0,0,0,.01,1.418A1.263,1.263,0,0,0,1137.278,102.626Zm18.787-1.424a1.3,1.3,0,0,0-1.618,0,.947.947,0,0,0,0,1.421,1.265,1.265,0,0,0,1.613.005A.941.941,0,0,0,1156.064,101.2Zm-28.17-14.91a1.235,1.235,0,0,0-1.587-.022.913.913,0,0,0-.017,1.412,1.233,1.233,0,0,0,1.588.007A.91.91,0,0,0,1127.895,86.292Zm11.56-13.484a1.229,1.229,0,0,0,1.594,0,.909.909,0,0,0,0-1.4,1.23,1.23,0,0,0-1.585-.006A.907.907,0,0,0,1139.455,72.808Zm22.528,23.164a1.211,1.211,0,0,0,1.586.019.9.9,0,0,0,.018-1.4,1.226,1.226,0,0,0-1.589-.01A.9.9,0,0,0,1161.983,95.972Zm-32.241-.013a.9.9,0,0,0,0-1.391,1.217,1.217,0,0,0-1.587,0,.908.908,0,0,0,0,1.4A1.232,1.232,0,0,0,1129.742,95.959Zm35.7-9.656a1.206,1.206,0,0,0-1.586,0,.9.9,0,0,0,0,1.4,1.225,1.225,0,0,0,1.582,0A.9.9,0,0,0,1165.445,86.3Zm-13.114-13.525a.9.9,0,0,0,.013-1.4,1.213,1.213,0,0,0-1.582-.007.906.906,0,0,0-.011,1.4A1.235,1.235,0,0,0,1152.331,72.778ZM1126.346,91a1.186,1.186,0,0,0,1.578,0,.887.887,0,0,0,0-1.385,1.224,1.224,0,0,0-1.583-.007A.9.9,0,0,0,1126.346,91Zm39.137-1.37a1.181,1.181,0,0,0-1.581,0,.876.876,0,0,0,.005,1.381,1.218,1.218,0,0,0,1.58,0A.9.9,0,0,0,1165.483,89.628Zm-11.32,14.61a.868.868,0,0,0,0-1.374,1.1,1.1,0,0,0-.814-.28,1.137,1.137,0,0,0-.743.292.884.884,0,0,0,.018,1.367A1.177,1.177,0,0,0,1154.163,104.239Zm-15.019.036a.9.9,0,0,0,0-1.364,1.2,1.2,0,0,0-1.543,0,.864.864,0,0,0,.011,1.355A1.185,1.185,0,0,0,1139.144,104.274Zm19.123-28.2a1.214,1.214,0,0,0,1.535-.009.89.89,0,0,0-.007-1.352,1.175,1.175,0,0,0-1.526.014A.873.873,0,0,0,1158.267,76.078Zm-26.314-.02a1.2,1.2,0,0,0,1.516.016.9.9,0,0,0,.036-1.354,1.193,1.193,0,0,0-1.533-.017A.869.869,0,0,0,1131.953,76.058Zm-4.09,6.971a1.2,1.2,0,0,0-1.532,0,.882.882,0,0,0-.008,1.347,1.18,1.18,0,0,0,1.528.009A.879.879,0,0,0,1127.863,83.029Zm33.842-5.28a.883.883,0,0,0,0-1.341,1.2,1.2,0,0,0-1.531-.006.877.877,0,0,0,0,1.35A1.187,1.187,0,0,0,1161.7,77.749Zm-30.073-1.39a1.224,1.224,0,0,0-1.522-.021.906.906,0,0,0-.021,1.358,1.184,1.184,0,0,0,1.52,0A.865.865,0,0,0,1131.631,76.359Zm33.825,8a.905.905,0,0,0,.013-1.346,1.229,1.229,0,0,0-1.539-.006.878.878,0,0,0,.006,1.341A1.191,1.191,0,0,0,1165.457,84.359ZM1157.941,73.1a1.186,1.186,0,0,0-1.521-.014.875.875,0,0,0-.01,1.334,1.163,1.163,0,0,0,1.5.007A.858.858,0,0,0,1157.941,73.1Zm-13.194,32.768a.884.884,0,0,0,.02-1.334,1.2,1.2,0,0,0-1.51-.018.861.861,0,0,0-.015,1.333A1.17,1.17,0,0,0,1144.747,105.868Zm2.264-1.307a.886.886,0,0,0,0,1.338,1.194,1.194,0,0,0,1.5,0,.871.871,0,0,0,.011-1.33A1.193,1.193,0,0,0,1147.011,104.562Zm-13.139-31.522a.882.882,0,0,0,0,1.328,1.19,1.19,0,0,0,1.513.006.868.868,0,0,0,0-1.327A1.183,1.183,0,0,0,1133.872,73.039ZM1163.9,92.973a.868.868,0,0,0-.013,1.322,1.171,1.171,0,0,0,1.5.007.865.865,0,0,0,0-1.32A1.18,1.18,0,0,0,1163.9,92.973Zm-36.068-.009a1.15,1.15,0,0,0-1.487,0,.85.85,0,0,0-.012,1.32,1.162,1.162,0,0,0,1.5,0A.859.859,0,0,0,1127.836,92.964Zm35.705-14.9a1.127,1.127,0,0,0-1.493,0,.834.834,0,0,0-.005,1.308,1.157,1.157,0,0,0,1.5.016A.856.856,0,0,0,1163.541,78.065Zm-33.843,1.3a.851.851,0,0,0,.008-1.312,1.158,1.158,0,0,0-1.5-.007.862.862,0,0,0,0,1.314A1.163,1.163,0,0,0,1129.7,79.365Zm16.931-9.585a1.142,1.142,0,0,0-1.5-.009.848.848,0,0,0-.005,1.313,1.169,1.169,0,0,0,1.5.012A.859.859,0,0,0,1146.629,69.78Zm-3.724,1.274a.833.833,0,0,0-.044-1.285,1.117,1.117,0,0,0-1.434.026.811.811,0,0,0,.026,1.287A1.1,1.1,0,0,0,1142.905,71.053Zm7.489.042a.841.841,0,0,0,.05-1.275,1.123,1.123,0,0,0-1.464-.042.813.813,0,0,0-.037,1.268A1.112,1.112,0,0,0,1150.394,71.1Zm5.6.352a1.119,1.119,0,0,0-1.439-.02.826.826,0,0,0-.022,1.279,1.105,1.105,0,0,0,1.439.019A.818.818,0,0,0,1156,71.447Zm-18.8,1.264a.852.852,0,0,0,.016-1.277,1.168,1.168,0,0,0-1.451-.009.826.826,0,0,0,0,1.268A1.112,1.112,0,0,0,1137.2,72.711Zm2.305,33.147a1.163,1.163,0,0,0,1.445.009.855.855,0,0,0,.009-1.266,1.124,1.124,0,0,0-1.442,0A.83.83,0,0,0,1139.509,105.858Zm12.7.008a.844.844,0,0,0,0-1.266,1.151,1.151,0,0,0-1.442,0,.822.822,0,0,0,.009,1.263A1.111,1.111,0,0,0,1152.21,105.866Zm-20.644-5a.854.854,0,0,0-.011-1.273,1.159,1.159,0,0,0-1.43.007.822.822,0,0,0,.013,1.256A1.121,1.121,0,0,0,1131.566,100.861Zm30.065.051a.841.841,0,0,0,.006-1.262,1.145,1.145,0,0,0-1.424-.006.819.819,0,0,0,0,1.256A1.112,1.112,0,0,0,1161.631,100.912Zm-3.274.371a.833.833,0,0,0-.007,1.264,1.133,1.133,0,0,0,1.419,0,.819.819,0,0,0,0-1.252A1.111,1.111,0,0,0,1158.357,101.283Zm-26.322,1.249a1.148,1.148,0,0,0,1.426,0,.842.842,0,0,0,.005-1.257,1.108,1.108,0,0,0-1.42,0A.819.819,0,0,0,1132.035,102.533Zm-5.648-22.821a.829.829,0,0,0-.01,1.255,1.129,1.129,0,0,0,1.432,0,.826.826,0,0,0,0-1.248A1.117,1.117,0,0,0,1126.387,79.711Zm39.462,8.336a.821.821,0,0,0-.013,1.253,1.118,1.118,0,0,0,1.429.006.819.819,0,0,0,0-1.246A1.106,1.106,0,0,0,1165.849,88.048Zm-.453-7.012a.818.818,0,0,0,.025-1.247,1.122,1.122,0,0,0-1.425-.021.815.815,0,0,0-.012,1.245A1.092,1.092,0,0,0,1165.4,81.036Zm-39.447,6.972a1.108,1.108,0,0,0-1.426-.011.823.823,0,0,0-.005,1.249,1.108,1.108,0,0,0,1.411.007A.81.81,0,0,0,1125.949,88.008Zm36.179,9.972a.8.8,0,0,0-.005,1.24,1.076,1.076,0,0,0,1.413-.007.8.8,0,0,0,0-1.238A1.09,1.09,0,0,0,1162.128,97.98Zm-32.436-.011a1.064,1.064,0,0,0-1.409,0,.789.789,0,0,0,0,1.233,1.086,1.086,0,0,0,1.41,0A.8.8,0,0,0,1129.692,97.968Zm-5.16-12a1.066,1.066,0,0,0,1.4-.012.784.784,0,0,0,0-1.228,1.08,1.08,0,0,0-1.406,0A.8.8,0,0,0,1124.532,85.964Zm41.321-.033a1.032,1.032,0,0,0,1.4,0,.766.766,0,0,0,0-1.224,1.071,1.071,0,0,0-1.394-.007A.793.793,0,0,0,1165.853,85.931ZM1135.3,104.157a.768.768,0,0,0,.008-1.213,1.036,1.036,0,0,0-1.386-.012.787.787,0,0,0-.013,1.227A1.063,1.063,0,0,0,1135.3,104.157Zm21.162-1.164a.763.763,0,0,0,0,1.211,1.021,1.021,0,0,0,1.38,0,.783.783,0,0,0,0-1.215A1.065,1.065,0,0,0,1156.464,102.993Zm10.769-10.428a.8.8,0,0,0,0-1.207,1.082,1.082,0,0,0-1.364.01.768.768,0,0,0,.005,1.185A1.045,1.045,0,0,0,1167.233,92.566Zm-42.687.018a1.082,1.082,0,0,0,1.355,0,.8.8,0,0,0,.009-1.205,1.058,1.058,0,0,0-1.359,0A.78.78,0,0,0,1124.547,92.583Zm13.13-22.756a.793.793,0,0,0-.005,1.2,1.085,1.085,0,0,0,1.361,0,.769.769,0,0,0-.016-1.189A1.034,1.034,0,0,0,1137.677,69.827Zm15.057.005a.788.788,0,0,0,0,1.2,1.069,1.069,0,0,0,1.345.008.766.766,0,0,0,.01-1.189A1.041,1.041,0,0,0,1152.734,69.832ZM1126.41,96.31a.791.791,0,0,0,0,1.185,1.068,1.068,0,0,0,1.345,0,.766.766,0,0,0-.007-1.181A1.042,1.042,0,0,0,1126.41,96.31Zm38.942,1.248a.785.785,0,0,0,0-1.188,1.064,1.064,0,0,0-1.339,0,.773.773,0,0,0,0,1.177A1.053,1.053,0,0,0,1165.353,97.558Zm-18.784,8.728a1.051,1.051,0,0,0-1.334,0,.771.771,0,0,0,0,1.176,1.039,1.039,0,0,0,1.331,0A.769.769,0,0,0,1146.568,106.286Zm20.643-23.665a.739.739,0,0,0,.007-1.151,1,1,0,0,0-1.319-.006.751.751,0,0,0,0,1.158A1.02,1.02,0,0,0,1167.211,82.621Zm-11.262,22.033a1,1,0,0,0-1.314.009.745.745,0,0,0,.005,1.149,1.028,1.028,0,0,0,1.316,0A.756.756,0,0,0,1155.949,104.654Zm-18.776,0a1,1,0,0,0-1.314,0,.741.741,0,0,0,.006,1.159,1.018,1.018,0,0,0,1.307,0A.751.751,0,0,0,1137.172,104.653Zm7.494-35.286a.725.725,0,0,0,.008-1.148.97.97,0,0,0-1.3-.005.741.741,0,0,0,0,1.154A1.008,1.008,0,0,0,1144.666,69.367ZM1124.55,81.442a.719.719,0,0,0-.018,1.147.958.958,0,0,0,1.3.013.736.736,0,0,0,.015-1.152A1.007,1.007,0,0,0,1124.55,81.442Zm18.2,24.859a.979.979,0,0,0-1.307,0,.725.725,0,0,0,.005,1.153,1,1,0,0,0,1.3,0A.744.744,0,0,0,1142.749,106.3Zm7.529.006a.971.971,0,0,0-1.3-.014.752.752,0,0,0-.021,1.162,1.056,1.056,0,0,0,1.314,0A.745.745,0,0,0,1150.278,106.307Zm-3.135-36.979a.975.975,0,0,0,1.29,0,.725.725,0,0,0,0-1.137,1,1,0,0,0-1.3-.008A.741.741,0,0,0,1147.144,69.328Zm-15.65,4.972a.723.723,0,0,0,.005-1.114.994.994,0,0,0-1.276.006.719.719,0,0,0,.014,1.108A.956.956,0,0,0,1131.494,74.3Zm28.807-.03a1,1,0,0,0,1.261.01.74.74,0,0,0,.006-1.121.986.986,0,0,0-1.256.005A.72.72,0,0,0,1160.3,74.27Zm-31.925.552a.742.742,0,0,0-.008,1.119,1,1,0,0,0,1.268-.008.72.72,0,0,0-.008-1.1A.985.985,0,0,0,1128.375,74.823Zm35.1.021a1.021,1.021,0,0,0-1.251-.006.74.74,0,0,0-.015,1.111.976.976,0,0,0,1.255,0A.728.728,0,0,0,1163.473,74.844Zm2.457,19.922a.735.735,0,0,0,0,1.107,1,1,0,0,0,1.244,0,.726.726,0,0,0,0-1.1A.982.982,0,0,0,1165.93,94.766Zm-32.542-22.149a.744.744,0,0,0,0-1.106,1.025,1.025,0,0,0-1.248.006.723.723,0,0,0,.009,1.093A.977.977,0,0,0,1133.388,72.617Zm-8.773,22.088a.73.73,0,0,0-.018,1.1,1,1,0,0,0,1.253.007.727.727,0,0,0,0-1.094A.982.982,0,0,0,1124.615,94.705ZM1159.7,71.528a1,1,0,0,0-1.235,0,.729.729,0,0,0-.01,1.1.97.97,0,0,0,1.24,0A.722.722,0,0,0,1159.7,71.528ZM1127.708,77.6a.693.693,0,0,0,0-1.08.939.939,0,0,0-1.226,0,.709.709,0,0,0,0,1.084A.958.958,0,0,0,1127.708,77.6Zm11.943-9.4a.7.7,0,0,0-.014,1.086.938.938,0,0,0,1.221.011.7.7,0,0,0,.013-1.087A.951.951,0,0,0,1139.651,68.2Zm12.51,1.132a.685.685,0,0,0,0-1.079.919.919,0,0,0-1.225,0,.7.7,0,0,0-.006,1.084A.951.951,0,0,0,1152.161,69.334Zm-29.4,17.113a.668.668,0,0,0,0,1.069.9.9,0,0,0,1.221,0,.689.689,0,0,0,0-1.072A.93.93,0,0,0,1122.758,86.447Zm42.557-8.873a.67.67,0,0,0,0-1.067.9.9,0,0,0-1.221,0,.684.684,0,0,0,0,1.079A.923.923,0,0,0,1165.316,77.574Zm2.536,9.961a.886.886,0,0,0,1.206,0,.662.662,0,0,0,0-1.071.92.92,0,0,0-1.209,0A.68.68,0,0,0,1167.852,87.535Zm-43.939,2.242a.889.889,0,0,0-1.187.008.663.663,0,0,0,0,1.038.894.894,0,0,0,1.184,0A.66.66,0,0,0,1123.914,89.777Zm43.9.025a.669.669,0,0,0,0,1.043.9.9,0,0,0,1.193,0,.656.656,0,0,0-.008-1.038A.89.89,0,0,0,1167.814,89.8Zm-30.032,16.538a.676.676,0,0,0,0,1.046.922.922,0,0,0,1.185.013.665.665,0,0,0,0-1.04A.891.891,0,0,0,1137.782,106.34Zm16.2,1.091a.685.685,0,0,0,0-1.033.916.916,0,0,0-1.18,0,.657.657,0,0,0,0,1.035A.9.9,0,0,0,1153.982,107.431ZM1134.04,70.947a.958.958,0,0,0,1.177,0,.7.7,0,0,0,0-1.036.917.917,0,0,0-1.173,0A.68.68,0,0,0,1134.04,70.947Zm22.545-.033a.953.953,0,0,0,1.179,0,.7.7,0,0,0-.01-1.041.929.929,0,0,0-1.165.016A.68.68,0,0,0,1156.585,70.914ZM1168.992,84.2a.676.676,0,0,0,.007-1.021.926.926,0,0,0-1.159-.008.665.665,0,0,0,0,1.018A.9.9,0,0,0,1168.992,84.2Zm-45.09-1.046a.893.893,0,0,0-1.153.007.662.662,0,0,0,.005,1.015.909.909,0,0,0,1.153,0A.667.667,0,0,0,1123.9,83.151Zm1.908-4.953a.88.88,0,0,0-1.151,0,.641.641,0,0,0,0,1,.878.878,0,0,0,1.148,0A.659.659,0,0,0,1125.81,78.2Zm37.542,23.219a.881.881,0,0,0-1.136-.008.652.652,0,0,0-.007,1.014.883.883,0,0,0,1.137,0A.652.652,0,0,0,1163.352,101.417ZM1129.5,101.4a.863.863,0,0,0-1.139.011.63.63,0,0,0,.008,1,.874.874,0,0,0,1.141,0A.656.656,0,0,0,1129.5,101.4Zm31.986,2.657a.64.64,0,0,0,0-.994.864.864,0,0,0-1.141,0,.649.649,0,0,0,0,1A.878.878,0,0,0,1161.49,104.056Zm5.685-25.834a.854.854,0,0,0-1.13-.011.645.645,0,0,0-.016,1,.893.893,0,0,0,1.142.013A.648.648,0,0,0,1167.175,78.222Zm-36.882,24.856a.627.627,0,0,0-.015,1,.842.842,0,0,0,1.126,0,.646.646,0,0,0,.015-.993A.875.875,0,0,0,1130.293,103.078Zm34.947-2.35a.632.632,0,0,0,.012-.983.869.869,0,0,0-1.1,0,.636.636,0,0,0-.026.985A.847.847,0,0,0,1165.24,100.728Zm-18.263,7.809a.6.6,0,0,0,.226.467.851.851,0,0,0,1.119,0,.627.627,0,0,0,.227-.5.842.842,0,0,0-.231-.492.856.856,0,0,0-1.083-.006A.683.683,0,0,0,1146.977,108.537Zm-19.363-8.775a.841.841,0,0,0-1.1.042.621.621,0,0,0,.046.962.834.834,0,0,0,1.09-.043A.621.621,0,0,0,1127.614,99.762Zm-4.78-6.641a.639.639,0,0,0-.023.972.837.837,0,0,0,1.1.011.6.6,0,0,0,.012-.946A.838.838,0,0,0,1122.834,93.121ZM1169,93.15a.844.844,0,0,0-1.091.012.621.621,0,0,0,.014.973.831.831,0,0,0,1.092-.024A.62.62,0,0,0,1169,93.15Zm-24.455,14.914a.836.836,0,0,0-1.094.01.623.623,0,0,0,0,.965.846.846,0,0,0,1.1-.01A.622.622,0,0,0,1144.542,108.063Zm15.012-3.3a.87.87,0,0,0-1.079-.005.641.641,0,0,0-.005.956.826.826,0,0,0,1.075,0A.61.61,0,0,0,1159.554,104.76Zm-13.089-38.124a.88.88,0,0,0-1.074-.006.645.645,0,0,0,0,.958.839.839,0,0,0,1.067,0A.615.615,0,0,0,1146.465,66.637Zm-13.23,39.071a.631.631,0,0,0,.013-.953.858.858,0,0,0-1.081-.006.619.619,0,0,0,0,.943A.839.839,0,0,0,1133.235,105.708Zm3.8-37.389a.863.863,0,0,0-1.073-.009.632.632,0,0,0-.014.94.837.837,0,0,0,1.073.01A.621.621,0,0,0,1137.032,68.319Zm17.75.909a.85.85,0,0,0,1.062,0,.623.623,0,0,0,0-.937.841.841,0,0,0-1.06-.007A.622.622,0,0,0,1154.782,69.228Zm-4.615-1.656a.577.577,0,0,0,0-.917.779.779,0,0,0-1.047.006.6.6,0,0,0,0,.918A.809.809,0,0,0,1150.167,67.572Zm-7.522,0a.629.629,0,0,0-.005-.931.784.784,0,0,0-1.042.013.587.587,0,0,0,0,.915A.869.869,0,0,0,1142.645,67.577Zm24.428,30.576a.772.772,0,0,0-1.047-.008.569.569,0,0,0,0,.91.791.791,0,0,0,1.044.013A.592.592,0,0,0,1167.073,98.152ZM1140.96,108.5a.609.609,0,0,0-.2-.449.828.828,0,0,0-1.045,0,.605.605,0,0,0,.01.921.832.832,0,0,0,1.035-.01A.687.687,0,0,0,1140.96,108.5Zm-16.3-10.372a.573.573,0,0,0,.011.908.752.752,0,0,0,1.024-.008.58.58,0,0,0,0-.907A.82.82,0,0,0,1124.662,98.129Zm27.365,9.971a.754.754,0,0,0-1,0,.554.554,0,0,0,0,.9.749.749,0,0,0,1.012-.009A.569.569,0,0,0,1152.027,108.1Zm-29.187-28.174a.584.584,0,0,0-.025.883.778.778,0,0,0,1.008.018.557.557,0,0,0,.012-.873A.768.768,0,0,0,1122.839,79.926Zm45.135.879a.793.793,0,0,0,.99,0,.589.589,0,0,0,0-.875.757.757,0,0,0-.994,0A.555.555,0,0,0,1167.975,80.805Zm-10.328,25.635a.818.818,0,0,0-1,0,.607.607,0,0,0,.011.876.784.784,0,0,0,.983-.007A.57.57,0,0,0,1157.647,106.441Zm-22.55.03a.8.8,0,0,0-.986,0,.594.594,0,0,0,0,.866.782.782,0,0,0,.986-.006A.57.57,0,0,0,1135.1,106.471Zm-13.157-18.244a.744.744,0,0,0-.964.009.55.55,0,0,0,0,.852.753.753,0,0,0,.975,0A.557.557,0,0,0,1121.939,88.227Zm48.865,0a.718.718,0,0,0-.96-.016.533.533,0,0,0-.006.848.727.727,0,0,0,.952.015A.54.54,0,0,0,1170.8,88.23Zm-48.676-2.935a.556.556,0,0,0-.187-.414.76.76,0,0,0-.952.008.53.53,0,0,0,.013.826.714.714,0,0,0,.938,0A.566.566,0,0,0,1122.128,85.295Zm47.53.064a.527.527,0,0,0,.182.416.689.689,0,0,0,.451.173.7.7,0,0,0,.5-.174.548.548,0,0,0,.192-.43.54.54,0,0,0-.192-.4.689.689,0,0,0-.456-.165.852.852,0,0,0-.478.156A.649.649,0,0,0,1169.658,85.359Zm-7.316-13.687a.542.542,0,0,0-.011.8.719.719,0,0,0,.916.013.51.51,0,0,0,.007-.8A.705.705,0,0,0,1162.342,71.672Zm6.515,25.7a.536.536,0,0,0,.022-.8.726.726,0,0,0-.923-.009.507.507,0,0,0,0,.792A.683.683,0,0,0,1168.857,97.368Zm-40.355-25.7a.523.523,0,0,0,0,.8.723.723,0,0,0,.911.005.512.512,0,0,0-.008-.8A.675.675,0,0,0,1128.5,71.667Zm35.75,1.692a.538.538,0,0,0,0,.8.733.733,0,0,0,.908,0,.518.518,0,0,0,0-.794A.7.7,0,0,0,1164.252,73.359Zm-41.4,23.972a.751.751,0,0,0,.911.025.545.545,0,0,0,.027-.8.691.691,0,0,0-.906-.02A.519.519,0,0,0,1122.851,97.331Zm4.7-23.227a.529.529,0,0,0,0-.791.714.714,0,0,0-.9-.012.505.505,0,0,0-.007.788A.687.687,0,0,0,1127.553,74.1Zm11.3-7.39a.741.741,0,0,0-.908,0,.546.546,0,0,0,.006.8.7.7,0,0,0,.9-.007A.518.518,0,0,0,1138.849,66.715Zm-17.833,25.623a.711.711,0,0,0,.9,0,.524.524,0,0,0,0-.792.689.689,0,0,0-.892.01A.509.509,0,0,0,1121.015,92.338ZM1153.9,67.514a.536.536,0,0,0,0-.8.729.729,0,0,0-.9.009.514.514,0,0,0,.012.786A.7.7,0,0,0,1153.9,67.514ZM1170.755,92.4a.528.528,0,0,0,.009-.794.727.727,0,0,0-.888,0,.518.518,0,0,0,0,.787A.7.7,0,0,0,1170.755,92.4Zm-9.372-22.355a.718.718,0,0,0-.887,0,.525.525,0,0,0,0,.783.717.717,0,0,0,.889,0A.527.527,0,0,0,1161.383,70.045Zm-30.074.729a.515.515,0,0,0,0-.783.717.717,0,0,0-.888.009.526.526,0,0,0,.01.778A.7.7,0,0,0,1131.308,70.774Zm35.854,4.6a.532.532,0,0,0-.172-.354.677.677,0,0,0-.849,0,.473.473,0,0,0,0,.752.654.654,0,0,0,.863,0A.583.583,0,0,0,1167.162,75.37Zm-41.541.391a.525.525,0,0,0,.006-.762.7.7,0,0,0-.861.005.49.49,0,0,0,0,.758A.687.687,0,0,0,1125.621,75.761Zm30.036,33.164a.462.462,0,0,0,0-.734.629.629,0,0,0-.824-.007.466.466,0,0,0,0,.736A.619.619,0,0,0,1155.657,108.925Zm-18.784-.009a.449.449,0,0,0,.015-.73.61.61,0,0,0-.83-.01.459.459,0,0,0-.007.736A.606.606,0,0,0,1136.873,108.916Zm8.583.907a.464.464,0,0,0-.014.724.639.639,0,0,0,.811.019.457.457,0,0,0,.02-.721A.607.607,0,0,0,1145.456,109.823Zm-23.583-28.158a.648.648,0,0,0-.805-.008.48.48,0,0,0-.011.72.639.639,0,0,0,.811,0A.466.466,0,0,0,1121.873,81.665Zm48.048-.024a.5.5,0,0,0-.012.711.673.673,0,0,0,.816.011.467.467,0,0,0,0-.706A.633.633,0,0,0,1169.921,81.641ZM1159.44,68.411a.642.642,0,0,0-.795-.013.482.482,0,0,0-.017.713.643.643,0,0,0,.793.007A.462.462,0,0,0,1159.44,68.411Zm-27.112.694a.659.659,0,0,0,.794-.006.477.477,0,0,0,0-.705.641.641,0,0,0-.8,0A.475.475,0,0,0,1132.328,69.1Zm17.723,40.735a.609.609,0,0,0-.78.007.455.455,0,0,0,0,.7.624.624,0,0,0,.795-.006A.456.456,0,0,0,1150.052,109.839Zm-7.519.7a.452.452,0,0,0-.007-.7.613.613,0,0,0-.781.005.461.461,0,0,0-.006.7A.623.623,0,0,0,1142.532,110.535Zm4.869-44.716a.581.581,0,0,0,.779-.009.43.43,0,0,0,0-.678.6.6,0,0,0-.782,0A.445.445,0,0,0,1147.4,65.819Zm-2.986-.723a.632.632,0,0,0-.78,0,.462.462,0,0,0,0,.678.632.632,0,0,0,.769,0A.466.466,0,0,0,1144.416,65.1Zm23.679,11.668a.422.422,0,0,0,0,.639.586.586,0,0,0,.735,0,.421.421,0,0,0-.007-.645A.557.557,0,0,0,1168.095,76.764Zm-44.4.58a.425.425,0,0,0,0-.642.573.573,0,0,0-.728,0,.406.406,0,0,0,.006.636A.55.55,0,0,0,1123.695,77.344Zm46.983,17.623a.585.585,0,0,0-.728,0,.416.416,0,0,0,.007.633.552.552,0,0,0,.713.006A.416.416,0,0,0,1170.677,94.967Zm-49.58.02a.429.429,0,0,0,0,.632.6.6,0,0,0,.718,0,.412.412,0,0,0,0-.636A.547.547,0,0,0,1121.1,94.987Zm43.228,8.3a.432.432,0,0,0,0,.629.6.6,0,0,0,.714.01.421.421,0,0,0,.01-.635A.572.572,0,0,0,1164.326,103.285Zm-34.976,2.255a.437.437,0,0,0-.01-.63.6.6,0,0,0-.714-.009.429.429,0,0,0,0,.637A.585.585,0,0,0,1129.35,105.54Zm-2.632-1.682a.586.586,0,0,0,.71.008.416.416,0,0,0,.012-.633.55.55,0,0,0-.7-.007A.416.416,0,0,0,1126.717,103.858Zm36.46,1.692a.413.413,0,0,0,0-.618.555.555,0,0,0-.7-.01.416.416,0,0,0-.014.627A.571.571,0,0,0,1163.178,105.55Zm-38.292-3.947a.376.376,0,0,0-.009.592.506.506,0,0,0,.682,0,.386.386,0,0,0,0-.6A.522.522,0,0,0,1124.885,101.6Zm15.691-35.839a.37.37,0,0,0,.009-.585.508.508,0,0,0-.655,0,.37.37,0,0,0,0,.576A.491.491,0,0,0,1140.576,65.764Zm26.347,36.447a.38.38,0,0,0,0-.579.506.506,0,0,0-.665.009.36.36,0,0,0,.015.571A.493.493,0,0,0,1166.923,102.21Zm-10.068-35.378a.377.377,0,0,0,.007.576.516.516,0,0,0,.644-.009.371.371,0,0,0-.01-.566A.5.5,0,0,0,1156.855,66.832Zm-21.964.571a.375.375,0,0,0,.029-.573.511.511,0,0,0-.638-.018.356.356,0,0,0-.022.567A.485.485,0,0,0,1134.891,67.4Zm-3.728,39.742a.363.363,0,0,0,0-.562.488.488,0,0,0-.648.008.358.358,0,0,0,.011.559A.483.483,0,0,0,1131.163,107.145Zm20.709-41.434a.36.36,0,0,0,0-.557.493.493,0,0,0-.633-.006.349.349,0,0,0,0,.563A.461.461,0,0,0,1151.872,65.711ZM1160.6,107.2a.529.529,0,0,0,.631.009.381.381,0,0,0,.017-.556.479.479,0,0,0-.637-.014A.364.364,0,0,0,1160.6,107.2Zm-21.971,3.279a.38.38,0,0,0,.022-.556.523.523,0,0,0-.632-.01.366.366,0,0,0-.007.546A.5.5,0,0,0,1138.627,110.476Zm33.865-23.2a.359.359,0,0,0-.013-.554.514.514,0,0,0-.621.009.374.374,0,0,0,.016.547A.486.486,0,0,0,1172.493,87.278Zm-18.79,23.191a.388.388,0,0,0,0-.546.506.506,0,0,0-.628,0,.365.365,0,0,0,0,.542A.51.51,0,0,0,1153.7,110.469ZM1119.25,86.7a.368.368,0,0,0,0,.55.524.524,0,0,0,.616.005.364.364,0,0,0,.005-.55A.487.487,0,0,0,1119.25,86.7Zm.051,3.326a.354.354,0,0,0,0,.535.473.473,0,0,0,.616,0,.349.349,0,0,0-.006-.534A.482.482,0,0,0,1119.3,90.031Zm53.225.026a.5.5,0,0,0-.605,0,.368.368,0,0,0,0,.533.5.5,0,0,0,.6,0A.365.365,0,0,0,1172.526,90.057Zm-4.367,10.479a.459.459,0,0,0,.588,0,.322.322,0,0,0-.01-.5.415.415,0,0,0-.569,0A.323.323,0,0,0,1168.158,100.536Zm-44.556-.569a.42.42,0,0,0-.574,0,.309.309,0,0,0,.009.507.417.417,0,0,0,.562,0A.311.311,0,0,0,1123.6,99.967Zm47-21.485a.434.434,0,0,0-.558,0,.332.332,0,0,0,.009.495.411.411,0,0,0,.545-.015A.3.3,0,0,0,1170.6,78.482Zm-48.9-.024a.434.434,0,0,0-.559,0,.334.334,0,0,0,0,.485.41.41,0,0,0,.556-.01A.3.3,0,0,0,1121.7,78.457Zm50.794,4.994a.434.434,0,0,0-.532,0,.333.333,0,0,0-.008.474.45.45,0,0,0,.536,0A.315.315,0,0,0,1172.494,83.451Zm-53.147-.027a.326.326,0,0,0-.008.475.469.469,0,0,0,.543,0,.313.313,0,0,0-.013-.465A.412.412,0,0,0,1119.347,83.424Zm13.659,25.358a.315.315,0,0,0,.008-.473.452.452,0,0,0-.528-.005.314.314,0,0,0,0,.473A.4.4,0,0,0,1133.005,108.782Zm26.312-.454a.443.443,0,0,0-.526,0,.318.318,0,0,0,.011.465.4.4,0,0,0,.511,0A.3.3,0,0,0,1159.317,108.329Zm-39.542-14.507a.249.249,0,0,0,.013-.4.365.365,0,0,0-.466-.006.254.254,0,0,0,.009.4A.316.316,0,0,0,1119.775,93.822Zm52.169.022a.379.379,0,0,0,.466,0,.261.261,0,0,0-.015-.4.333.333,0,0,0-.446,0A.261.261,0,0,0,1171.945,93.844Zm-28.183,18.186a.366.366,0,0,0,.456,0,.265.265,0,0,0,.006-.4.33.33,0,0,0-.449,0A.251.251,0,0,0,1143.762,112.03Zm4.22-.356a.379.379,0,0,0-.445,0,.272.272,0,0,0,.009.4.367.367,0,0,0,.439-.013A.27.27,0,0,0,1147.981,111.674Zm-11.263-46.437a.365.365,0,0,0-.443-.007.26.26,0,0,0-.007.388.35.35,0,0,0,.438.009A.263.263,0,0,0,1136.719,65.238Zm18.812.041a.347.347,0,0,0-.431,0,.267.267,0,0,0,0,.39.369.369,0,0,0,.443,0A.259.259,0,0,0,1155.531,65.278Zm15,33.17a.345.345,0,0,0-.429,0,.251.251,0,0,0-.009.389.343.343,0,0,0,.44,0A.252.252,0,0,0,1170.53,98.448Zm-48.853-.061a.359.359,0,0,0-.442.006.263.263,0,0,0,0,.382.359.359,0,0,0,.442,0A.262.262,0,0,0,1121.677,98.387Zm42.773-27.753a.384.384,0,0,0,.423,0,.273.273,0,0,0,0-.381.369.369,0,0,0-.432,0A.274.274,0,0,0,1164.45,70.634Zm1.889,1.667a.38.38,0,0,0,.423.02.28.28,0,0,0,.028-.382.393.393,0,0,0-.423-.02A.274.274,0,0,0,1166.339,72.3Zm-39.02-2.063a.368.368,0,0,0-.425,0,.255.255,0,0,0-.006.379.352.352,0,0,0,.42,0A.269.269,0,0,0,1127.32,70.237Zm18.371-6.282a.254.254,0,0,0,.388,0,.2.2,0,0,0-.006-.333.265.265,0,0,0-.379,0A.2.2,0,0,0,1145.691,63.955Zm-20.258,7.952a.252.252,0,0,0-.384-.014.2.2,0,0,0,0,.336.285.285,0,0,0,.385.01A.2.2,0,0,0,1125.433,71.907Zm3.763-3a.21.21,0,0,0-.008-.317.261.261,0,0,0-.355-.005.194.194,0,0,0-.01.324A.287.287,0,0,0,1129.2,68.9Zm33.788-.265a.273.273,0,0,0-.367,0,.21.21,0,0,0-.006.317.267.267,0,0,0,.366.005A.2.2,0,0,0,1162.983,68.639Zm5.261,4.97a.207.207,0,0,0,0,.307.28.28,0,0,0,.359,0,.213.213,0,0,0,0-.307A.287.287,0,0,0,1168.245,73.609ZM1119.736,80.5a.217.217,0,0,0,.008-.318.3.3,0,0,0-.35-.007.211.211,0,0,0-.009.318A.289.289,0,0,0,1119.736,80.5Zm20.666,31.526a.209.209,0,0,0,.014-.308.3.3,0,0,0-.363-.011.225.225,0,0,0-.009.309A.283.283,0,0,0,1140.4,112.028Zm1.584-48.391a.207.207,0,0,0,.01.316.27.27,0,0,0,.348-.013.2.2,0,0,0-.009-.307A.284.284,0,0,0,1141.986,63.637Zm-7.2,46.4a.274.274,0,0,0-.357-.006.216.216,0,0,0,.007.318.3.3,0,0,0,.35-.007A.208.208,0,0,0,1134.785,110.037Zm14.746-46.408a.205.205,0,0,0-.02.316.274.274,0,0,0,.349.005.208.208,0,0,0,.019-.307A.286.286,0,0,0,1149.531,63.63Zm2.16,48.364a.206.206,0,0,0,.017-.307.276.276,0,0,0-.357-.006.2.2,0,0,0-.006.3A.264.264,0,0,0,1151.691,111.993Zm5.639-1.909a.282.282,0,0,0-.349-.006.2.2,0,0,0,0,.315.275.275,0,0,0,.345,0A.212.212,0,0,0,1157.33,110.084Zm-34.17-36.5a.2.2,0,0,0,0,.314.293.293,0,0,0,.348,0,.207.207,0,0,0,0-.309A.267.267,0,0,0,1123.161,73.586Zm49.2,6.933a.215.215,0,0,0,0-.309.275.275,0,0,0-.358.007.2.2,0,0,0,.011.3A.279.279,0,0,0,1172.362,80.519Zm-11.324-13.278a.147.147,0,0,0,0-.244.208.208,0,0,0-.276-.011c-.1.091-.105.167-.013.253A.2.2,0,0,0,1161.037,67.241Zm-30.031-.019a.142.142,0,0,0,0-.24.2.2,0,0,0-.273,0,.146.146,0,0,0-.005.247A.188.188,0,0,0,1131.006,67.222ZM1174.212,88.8a.237.237,0,0,0-.006-.24.2.2,0,0,0-.254.006.146.146,0,0,0,.006.234A.193.193,0,0,0,1174.212,88.8Zm-56.635-.3a.221.221,0,0,0,0,.24.2.2,0,0,0,.254,0,.154.154,0,0,0,0-.234A.2.2,0,0,0,1117.578,88.5Zm1.942,8.289c-.043.01-.086.037-.075.1a.279.279,0,0,0,.089.2.186.186,0,0,0,.221-.064.16.16,0,0,0-.027-.2A.211.211,0,0,0,1119.52,96.789Zm50.708-21.241a.186.186,0,0,0,.226-.013c-.021-.162-.021-.162-.122-.233l-.123.029C1170.168,75.41,1170.145,75.488,1170.228,75.548Zm-48.722-.3a.151.151,0,0,0-.094.041.827.827,0,0,0-.064.154.153.153,0,0,0,.207.055c.07-.029.083-.092.043-.231A.288.288,0,0,0,1121.506,75.252Zm50.815,21.657a.083.083,0,0,0-.052-.066.3.3,0,0,0-.162.025.112.112,0,0,0-.032.142.173.173,0,0,0,.133.093c.015,0,.035-.01.06-.019A1.143,1.143,0,0,0,1172.321,96.908Zm-54.647-11.429c.1-.01.166-.034.18-.121a.12.12,0,0,0-.084-.138C1117.614,85.275,1117.71,85.39,1117.673,85.479Zm56.254-.151c0,.069.05.108.186.131l-.06-.24C1173.975,85.23,1173.928,85.271,1173.928,85.327ZM1153.29,63.9c.187.055.245.036.236-.069l-.266-.042Zm-14.8-.117a.678.678,0,0,0-.131.024,1,1,0,0,0-.136.078C1138.406,63.958,1138.5,63.914,1138.495,63.78Z" transform="translate(-1117.542 -63.542)" fill="#bf335c"/>
</svg>
