<svg xmlns="http://www.w3.org/2000/svg" xmlns:xlink="http://www.w3.org/1999/xlink" width="250.508" height="267.05" viewBox="0 0 250.508 267.05">
  <defs>
    <linearGradient id="linear-gradient" x1="0.445" y1="1" x2="0.463" y2="0.102" gradientUnits="objectBoundingBox">
      <stop offset="0" stop-color="#d87745"/>
      <stop offset="0.557" stop-color="#4e0d0d"/>
      <stop offset="1"/>
    </linearGradient>
    <linearGradient id="linear-gradient-2" x1="0.5" x2="0.5" y2="1" gradientUnits="objectBoundingBox">
      <stop offset="0" stop-color="#e8b652"/>
      <stop offset="1" stop-color="#bf335c"/>
    </linearGradient>
    <linearGradient id="linear-gradient-4" y1="1" y2="0" xlink:href="#linear-gradient-2"/>
  </defs>
  <g id="no_data_available" transform="translate(-78.37 -251)">
    <g id="Group_60342" data-name="Group 60342" transform="translate(147.384 394.592) rotate(-7)">
      <g id="Group_60341" data-name="Group 60341" transform="translate(0 0)">
        <path id="Path_141280" data-name="Path 141280" d="M13.086,31.048c-2.318-5.784-7.158-12.3-10.611-15.906-3.656-3.818-3.182-5.059.9-2.887,3.558,1.975,6.072,4.653,6.648,4.316.277-.158-1.636-2.368-4.741-5.25C2.085,8.363-.329,6.332.656,5.193c1.16-1.289,10.93,5.632,12.706,8.244,2.187,2.326-4.981-7.629-8.427-10.3C1.34-.029,3.445-1.406,8.775,2.213c5.233,3.717,8.267,8.133,9.647,9.044-.229-1.267-.686-2.885-4.543-8.02-3.022-3.681-.855-4.43,3.066-1.165,4.76,3.912,7.837,12.048,9.565,12.11,1.226-.631.426-2.751,1.381-7.488.885-4.693,3.119,1.26,3.467,6.536.472,5.4,1.515,11.606.755,16.4-.981,6.442-3.228,11.028-7.475,12.737C20.1,44.176,17.6,42.793,13.086,31.048Z" fill="#e29a8f"/>
        <path id="Path_141281" data-name="Path 141281" d="M.306,0A1.078,1.078,0,0,1,.813.117a4.025,4.025,0,0,1,.582.25,11.678,11.678,0,0,1,.978.7C3,1.555,3.6,2.092,4.186,2.642s1.133,1.1,1.649,1.689A8.932,8.932,0,0,1,7.295,6.287a.47.47,0,0,1-.732.572A17.394,17.394,0,0,1,4.977,5.2c-.545-.569-1.09-1.133-1.668-1.669s-1.15-1.014-1.744-1.5c-.295-.241-.591-.482-.879-.733C.538,1.165.448,1,.313.865A1.177,1.177,0,0,1,.014.39.309.309,0,0,1,.306,0Z" transform="translate(17.622 21.383)" fill="#bc4a60" opacity="0.5"/>
      </g>
      <path id="Path_141282" data-name="Path 141282" d="M66.263.954c8.358,4.558,8.89,14.2,2.888,30.816-4.769,13.2-19.724,69.5-38.1,69.008C18.135,100.429,1.294,30.795,0,21.738c3.682-.563,7.411-.045,14.789-4.246C17.238,22.87,28.225,68.72,31.467,65.964,35.4,62.622,38.755,33.58,45.845,19.225,50.84,9.114,57.9-3.6,66.263.954Z" transform="translate(16.245 14.42)" fill="#e29a8f"/>
      <path id="Path_141283" data-name="Path 141283" d="M33.145,0c-3.128.03-15.628,8.385-22.76,26.641A303.46,303.46,0,0,0,0,57.422S8.706,68.673,29.16,71.009c0,0,9.334-24.519,10.7-38.423l1.364-13.9S43.949-.106,33.145,0Z" transform="translate(49.18 7.924)" fill="#e58421"/>
    </g>
    <g id="Group_60343" data-name="Group 60343" transform="translate(222.317 383.392)">
      <path id="Path_141285" data-name="Path 141285" d="M343.707,246.6c-9.667-9.285-60.621-11.06-72.554,2.174s-1.109,50.03-1.824,78.214-5.673,29.251.533,31.456,39.868,9.72,67.792,4.573S360.8,351.994,360.8,345.866,358.5,260.82,343.707,246.6Z" transform="translate(-265.512 -239.247)" fill="#db5225"/>
      <path id="Path_141286" data-name="Path 141286" d="M316.738,242.282c4,3.224-5.265,12.347-18.065,11.806s-7.515-7.306-5.134-9.075S310.973,237.632,316.738,242.282Z" transform="translate(-268.152 -239.232)" fill="#658ee5"/>
    </g>
    <g id="Group_60349" data-name="Group 60349" transform="translate(207.051 256.461)">
      <path id="Path_141287" data-name="Path 141287" d="M260.27,175.736s-8.607-6.059-5.426-20.828,13.472-19.881,13.472-19.881,6.362.378,1.684,13.822S260.27,175.736,260.27,175.736Z" transform="translate(-252.877 -113.533)"/>
      <g id="Group_60344" data-name="Group 60344" transform="translate(38.52 111.103)">
        <path id="Path_141288" data-name="Path 141288" d="M312.08,247.049a22.724,22.724,0,0,1-10.194,4.225c-7.815,1.422-7.332-2.4-7.332-2.4l-1.28-9.224-1.867-13.438,18.408-2.611,1.563,11.314,1.438,10.338A1.954,1.954,0,0,1,312.08,247.049Z" transform="translate(-291.406 -223.602)" fill="#e29a8f"/>
        <path id="Path_141289" data-name="Path 141289" d="M311.377,234.917a36.645,36.645,0,0,1-6.041,2.537,55.158,55.158,0,0,1-8.045,1.846,21.221,21.221,0,0,1-4.017.351l-1.867-13.438,18.408-2.611Z" transform="translate(-291.406 -223.602)" fill="#bc4a60" opacity="0.4"/>
      </g>
      <path id="Path_141290" data-name="Path 141290" d="M256.1,185.287c-2.643,28.475,8.03,52.918,41.383,50.02s40.641-28.826,45.537-55.127-11.7-51.4-39.641-51.5C271.061,128.561,258.837,148.221,256.1,185.287Z" transform="translate(-252.877 -113.607)" fill="#e29a8f"/>
      <path id="Path_141291" data-name="Path 141291" d="M327.757,186.758s-1.19,13.245-11.889,19.188-21.047-3.083-35.589-2.861c-13.648.207-14.967,4.135-18.114,1.162s-2.936-5.519-5.664-4.033-5.663,9.765-1.679,21.652,19.3,15.5,39.229,14.011,34.7-10.82,38.876-20.566c4.907-11.457-2.135-9.442,2.473-25.937C336.959,183.8,328.6,181.876,327.757,186.758Z" transform="translate(-252.876 -112.962)"/>
      <path id="Path_141292" data-name="Path 141292" d="M329.506,189.359c4.938,3.331,19.72.636,22.866-10.614s5.873-36.725-14.684-46.065-55.172-4.671-55.172-4.671,6.923-9.34,2.937-11.251-10.908,6.793-10.908,6.793,3.985-9.341-.84-9.765-18.251,23.138-9.021,30.78,20.769-.212,20.769-.212,3.356,6.156,12.8,8.7,18.04-1.911,18.04-1.911a23.127,23.127,0,0,0,1.679,17.619c4.825,9.341,9.859,12.312,9.859,12.312S325.1,186.387,329.506,189.359Z" transform="translate(-252.878 -113.781)"/>
      <g id="Group_60345" data-name="Group 60345" transform="translate(80.658 68.123)">
        <path id="Path_141293" data-name="Path 141293" d="M334.228,203.087c1.377,4.027,7.876,5.474,13.127,1.852s9.068-14.572,5.17-20.529-13.177-3.307-16.706,3.784C333.153,193.548,333.153,199.947,334.228,203.087Z" transform="translate(-333.555 -181.119)" fill="#e29a8f"/>
        <path id="Path_141294" data-name="Path 141294" d="M349.144,188.563a.4.4,0,0,0-.172-.663c-1.243-.312-2.627.48-3.662,1.11a12.737,12.737,0,0,0-3.065,2.591,11.549,11.549,0,0,0-2.871,7.537c.011.514.8.664.916.125a14.314,14.314,0,0,1,3.054-6.674c.224-.256.478-.477.72-.711.1.124.213.239.313.355.178.209.363.412.539.624a11.141,11.141,0,0,1,.956,1.373c.587.97.942,2.07,1.6,2.995.122.172.471.2.511-.068a5.47,5.47,0,0,0-1.018-3.575,10.916,10.916,0,0,0-1.133-1.523,6.135,6.135,0,0,0-.643-.649c-.106-.09-.212-.179-.322-.26a11.464,11.464,0,0,1,1.182-.858C347.035,189.688,348.315,189.38,349.144,188.563Z" transform="translate(-333.557 -181.04)" fill="#bc4a60" opacity="0.5"/>
      </g>
      <g id="Group_60348" data-name="Group 60348" transform="translate(8.707 45.962)">
        <g id="Group_60346" data-name="Group 60346" transform="translate(5.014 47.232)">
          <path id="Path_141295" data-name="Path 141295" d="M14.6,4.121c7.083.525,11.817-8.485,18.219-1.377,5.1,5.664-3.642,21.516-16.669,21.365S-2.4,10.251.968,5.679,6.2,3.5,14.6,4.121Z" transform="translate(34.297 24.109) rotate(180)" fill="#bc4a60"/>
          <path id="Path_141296" data-name="Path 141296" d="M286.375,209.554a13.164,13.164,0,0,0-3.6,1.139,9.949,9.949,0,0,0-3.081,2.35,8.147,8.147,0,0,0-1.281,1.852,11.354,11.354,0,0,0,1.8.168c4.444.04,7.89-2.706,8.874-5.16C288.427,209.29,287.156,209.433,286.375,209.554Z" transform="translate(-266.603 -205.857)" fill="#fc6b7f"/>
        </g>
        <g id="Group_60347" data-name="Group 60347" transform="translate(1.139 15.396)">
          <path id="Path_141297" data-name="Path 141297" d="M308.408,192.843a18.193,18.193,0,0,0-1.554-1.488,13.787,13.787,0,0,0-3.746-2.4,6.867,6.867,0,0,0-4.274-.466,2.672,2.672,0,0,0-2.1,3.057c.1.486.8.346.825-.113.075-1.426,1.691-1.746,2.816-1.66a7.842,7.842,0,0,1,3.25,1.085,15.112,15.112,0,0,1,2.756,2.087c.815.756,1.659,1.881,2.748,2.207a.393.393,0,0,0,.476-.482A4.27,4.27,0,0,0,308.408,192.843Z" transform="translate(-262.733 -184.904)" fill="#2c1f30"/>
          <path id="Path_141298" data-name="Path 141298" d="M271.955,190.043a10.85,10.85,0,0,0-3.929-4.331,4.033,4.033,0,0,0-3.879-.436,2.465,2.465,0,0,0-1.291,2.938.415.415,0,0,0,.8-.222,1.653,1.653,0,0,1,1.529-1.762,4.2,4.2,0,0,1,2.9,1.164,9.388,9.388,0,0,1,1.992,2.174,11.8,11.8,0,0,1,.734,1.312,3.086,3.086,0,0,0,.892,1.281.417.417,0,0,0,.61-.251A2.51,2.51,0,0,0,271.955,190.043Z" transform="translate(-262.724 -184.943)" fill="#2c1f30"/>
        </g>
        <path id="Path_141299" data-name="Path 141299" d="M.31,1.635a.8.8,0,0,0,.908,1c.162-.024.321-.032.481-.048a.787.787,0,0,0-.057,1.174c-.111.02-.22.036-.331.059a.769.769,0,0,0,.019,1.47.752.752,0,0,0,.3,1.249c4.281.617,8.684,1.862,11.651,5.253a.512.512,0,0,0,.809-.111.749.749,0,0,0,.263-1c-.118-.2-.247-.385-.375-.575.018-.017.043-.02.059-.04,1.394-1.723-.307-3.416-1.514-4.612A21.928,21.928,0,0,0,7.9,1.859,14,14,0,0,0,2.276.054C1.545-.01.285-.182.031.778A.794.794,0,0,0,.31,1.635Z" transform="matrix(0.921, 0.391, -0.391, 0.921, 41.324, 4.826)"/>
        <path id="Path_141300" data-name="Path 141300" d="M12.542.752c-.219-.927-1.306-.762-1.936-.7A11.208,11.208,0,0,0,5.748,1.794a19.4,19.4,0,0,0-3.99,3.475C.716,6.424-.751,8.058.451,9.722c.014.018.036.021.051.038-.11.182-.221.365-.323.554a.772.772,0,0,0,.227.962.416.416,0,0,0,.7.107C3.665,8.111,7.465,6.909,11.16,6.314c.467-.076.6-.882.261-1.206.585-.145.678-1.258.016-1.418-.095-.023-.19-.037-.285-.058A.823.823,0,0,0,11.1,2.5c.138.015.275.022.415.046a.743.743,0,0,0,.784-.967A.816.816,0,0,0,12.542.752Z" transform="translate(0 1.749) rotate(-8)"/>
        <path id="Path_141301" data-name="Path 141301" d="M271.134,201.82c1.226-4.462,2.513-8.906,3.775-13.357.625-2.2,1.247-4.41,1.88-6.611a32.19,32.19,0,0,1,2.158-6.516.445.445,0,0,1,.825.226,31.591,31.591,0,0,1-1.558,6.552q-.949,3.372-1.92,6.738c-1.182,4.138-2.348,8.282-3.556,12.412a53.836,53.836,0,0,0,8.667-1.147.477.477,0,0,1,.251.92,31.972,31.972,0,0,1-9.855,1.672A.705.705,0,0,1,271.134,201.82Z" transform="translate(-261.588 -159.027)" fill="#bc4a60" opacity="0.5"/>
      </g>
    </g>
    <g id="Group_65093" data-name="Group 65093" transform="matrix(0.966, 0.259, -0.259, 0.966, 113.26, 326.007)">
      <path id="Path_141491" data-name="Path 141491" d="M0,110.926S.094,33.959,1.845,31.112,66.721-.667,69,.012l-.39,82.344Z" transform="translate(0 0)" fill="#d87745"/>
      <path id="Path_141494" data-name="Path 141494" d="M0,82.029,1.032,0S62.3,29.712,62.889,32.857s2.2,81.133,2.2,81.133Z" transform="translate(67.971 0.012)" fill="#d87745"/>
      <path id="Path_292200" data-name="Path 292200" d="M0,27.439,68.282,0l64.524,31.679L71.745,53.438Z" transform="translate(0.254 82.314)" fill="url(#linear-gradient)"/>
    </g>
    <g id="Group_60351" data-name="Group 60351" transform="translate(224.126 355.307) rotate(24)">
      <path id="Path_141302" data-name="Path 141302" d="M61.586,0C71.95.1,77.308,9.148,79.854,28.287c2.024,15.21,15.848,77.3-2.158,86.27C65.047,120.862,5.8,61.53,0,53.444c3.275-2.436,7.137-3.854,12.157-11.708,5.065,3.937,46.713,43.3,48.46,38.969,2.118-5.248-9.222-35.035-9.581-52.552C50.784,15.815,51.222-.1,61.586,0Z" transform="translate(25.186 8.131)" fill="#e29a8f"/>
      <path id="Path_141303" data-name="Path 141303" d="M9.018,1.028C6.01,2.667-1.87,17.167.407,38.473a332.347,332.347,0,0,0,5.426,35.08s14.061,6.394,35-1.87c0,0-3.294-28.49-8.96-42.625L26.2,14.923S19.4-4.631,9.018,1.028Z" transform="translate(73.836 0)" fill="#e58421"/>
      <path id="Path_141304" data-name="Path 141304" d="M19.7,34.49c-5-4.418-12.014-10.2-16.1-13.423-4.334-3.42-4.03-5.146.263-3.611,3.807,1.362,7.035,3.467,7.525,2.912.241-.274-2.3-2.007-5.874-4.536-3.669-2.6-6.14-4.708-5.379-6.381S11.259,13.836,13.9,15.868,7.109,8.91,3.84,5.869C.177,2.461,1.915.288,7.286,3.828s9.459,7.484,11.079,8.049c-.509-1.386-1.527-2.815-6.121-8.006-3.41-3.851-1.505-5.277,2.71-2.2C20.012,5.37,25.492,12.934,27.38,12.3c1.067-1.095-.489-2.935-.782-8.428s3.284.562,5.465,5.733c2.256,5.35,6.067,10.653,7.72,15.1,2.225,5.983,2.632,10.545-1.362,13.94S29.816,43.42,19.7,34.49Z" transform="translate(0 24.407)" fill="#e29a8f"/>
      <g id="Group_60350" data-name="Group 60350" transform="translate(31.524 55.571)">
        <path id="Path_141309" data-name="Path 141309" d="M3.842.076,16.627,0a3.764,3.764,0,0,1,3.8,3.794h0a3.873,3.873,0,0,1-3.842,3.839L3.8,7.709A3.764,3.764,0,0,1,0,3.915,3.873,3.873,0,0,1,3.842.076Z" transform="matrix(-0.688, 0.726, -0.726, -0.688, 19.643, 5.302)" fill="#b26167"/>
        <path id="Path_141305" data-name="Path 141305" d="M2.084,11.661a6.62,6.62,0,0,0,9.438-.257,6.812,6.812,0,0,0-.254-9.551A6.619,6.619,0,0,0,1.83,2.11,6.812,6.812,0,0,0,2.084,11.661Z" transform="translate(3.145 3.307)" fill="#ffd0be"/>
      </g>
    </g>
    <g id="Group_65123" data-name="Group 65123" transform="matrix(0.326, -0.946, 0.946, 0.326, 111.527, 491.504)">
      <path id="Path_292211" data-name="Path 292211" d="M29.634,15.359s-2.756-3.151-4.726-2.067-3.741,2.067-3.741,2.067-2.363-3.348-5.809-3.151a11.25,11.25,0,0,0-6.1,2.561A3.647,3.647,0,0,0,5.71,12.208,51.532,51.532,0,0,0,0,12.8S4.135,9.943,4.824,9.353,3.938,6.6,3.938,6.6s3.84-1.084,6.1-.493,0-3.052,0-3.052a47.886,47.886,0,0,0,5.316,0c.3-.2-.787-3.053-.787-3.053a18.078,18.078,0,0,1,9.156,6.1c3.742,4.824,4.726,1.084,5.907,4.036A6.61,6.61,0,0,1,29.634,15.359Z" transform="translate(0 0)" fill="url(#linear-gradient-2)"/>
      <path id="Path_292212" data-name="Path 292212" d="M.148,4.92,0,4.587C.057,4.56,5.651,2.1,9.029,1.083A27.3,27.3,0,0,1,14.061.151C15.486.013,16.508,0,16.518,0l0,.365A31.163,31.163,0,0,0,9.134,1.433C5.778,2.449.2,4.9.148,4.92Z" transform="translate(6.213 5.72)" fill="#fff"/>
      <path id="Path_292213" data-name="Path 292213" d="M.317,3.074.04,2.836c.107-.124.269-.49.159-1.554A10.686,10.686,0,0,0,0,.085L.356,0A11.058,11.058,0,0,1,.562,1.246,2.548,2.548,0,0,1,.317,3.074Z" transform="translate(13.816 7.338)" fill="#fff"/>
      <path id="Path_292214" data-name="Path 292214" d="M3.123,4.452a5.794,5.794,0,0,0-1.6-2.615C.765.97.008.276,0,.27L.246,0C.254.006,1.025.71,1.8,1.593A5.976,5.976,0,0,1,3.487,4.42Z" transform="translate(19.069 6.258)" fill="#fff"/>
      <path id="Path_292215" data-name="Path 292215" d="M1.585,2.243a2.227,2.227,0,0,0-.212-.818A1.935,1.935,0,0,0,0,.356L.084,0A2.3,2.3,0,0,1,1.708,1.281a2.55,2.55,0,0,1,.242.955l-.365.006.183,0Z" transform="translate(19.016 3.662)" fill="#fff"/>
      <path id="Path_292216" data-name="Path 292216" d="M2.718,1.845A5.17,5.17,0,0,0,.155.365.943.943,0,0,0,.044.372L0,.009A1.288,1.288,0,0,1,.152,0C1.333,0,2.9,1.516,2.973,1.582l-.255.263.127-.131Z" transform="translate(13.793 4.68)" fill="#fff"/>
    </g>
    <g id="Group_65126" data-name="Group 65126" transform="matrix(0.899, -0.438, 0.438, 0.899, 138.684, 441.775)" opacity="0.34">
      <path id="Path_292211-2" data-name="Path 292211" d="M18.171,9.417s-1.691-1.931-2.9-1.268-2.294,1.268-2.294,1.268S11.53,7.365,9.418,7.486a6.887,6.887,0,0,0-3.743,1.57A2.237,2.237,0,0,0,3.5,7.486,31.721,31.721,0,0,0,0,7.848S2.536,6.1,2.959,5.735s-.543-1.69-.543-1.69a9.344,9.344,0,0,1,3.743-.3c1.388.362,0-1.871,0-1.871a29.5,29.5,0,0,0,3.26,0C9.6,1.751,8.935,0,8.935,0a11.081,11.081,0,0,1,5.613,3.743c2.295,2.958,2.9.664,3.623,2.474A4.055,4.055,0,0,1,18.171,9.417Z" transform="translate(0 0)" fill="url(#linear-gradient-2)"/>
      <path id="Path_292212-2" data-name="Path 292212" d="M.091,3.017,0,2.811C.035,2.8,3.465,1.291,5.536.664A16.765,16.765,0,0,1,8.621.093C9.5.007,10.122,0,10.128,0l0,.225A19.04,19.04,0,0,0,5.6.878C3.543,1.5.125,3,.091,3.017Z" transform="translate(3.809 3.508)" fill="#fff"/>
      <path id="Path_292213-2" data-name="Path 292213" d="M.194,1.885.024,1.739c.065-.077.165-.3.1-.953A6.626,6.626,0,0,0,0,.052L.218,0A6.569,6.569,0,0,1,.344.763,1.572,1.572,0,0,1,.194,1.885Z" transform="translate(8.471 4.499)" fill="#fff"/>
      <path id="Path_292214-2" data-name="Path 292214" d="M1.915,2.732a3.568,3.568,0,0,0-.978-1.6C.47.595,0,.171,0,.166L.151,0c0,.006.476.436.953.979A3.663,3.663,0,0,1,2.138,2.712Z" transform="translate(11.692 3.837)" fill="#fff"/>
      <path id="Path_292215-2" data-name="Path 292215" d="M.972,1.373a1.349,1.349,0,0,0-.131-.5A1.18,1.18,0,0,0,0,.217L.051,0a1.41,1.41,0,0,1,1,.785,1.58,1.58,0,0,1,.148.585l-.224,0,.111,0Z" transform="translate(11.659 2.246)" fill="#fff"/>
      <path id="Path_292216-2" data-name="Path 292216" d="M1.666,1.131A3.167,3.167,0,0,0,.1.225a.607.607,0,0,0-.069,0L0,.005A.847.847,0,0,1,.093,0C.818,0,1.78.929,1.823.971l-.157.16.079-.078Z" transform="translate(8.457 2.869)" fill="#fff"/>
    </g>
    <g id="Group_65125" data-name="Group 65125" transform="matrix(0.899, 0.438, -0.438, 0.899, 156.931, 504.433)">
      <path id="Path_292211-3" data-name="Path 292211" d="M14.933,0s-1.389,1.587-2.381,1.041S10.666,0,10.666,0A3.8,3.8,0,0,1,7.739,1.587,5.661,5.661,0,0,1,4.664.3,1.837,1.837,0,0,1,2.877,1.587,26.017,26.017,0,0,1,0,1.289S2.083,2.728,2.431,3.026s-.447,1.389-.447,1.389a7.662,7.662,0,0,0,3.076.248c1.141-.3,0,1.538,0,1.538a24.046,24.046,0,0,1,2.679,0c.149.1-.4,1.537-.4,1.537a9.108,9.108,0,0,0,4.614-3.075c1.885-2.432,2.381-.546,2.977-2.034A3.331,3.331,0,0,0,14.933,0Z" transform="translate(0 0)" fill="url(#linear-gradient-4)"/>
      <path id="Path_292212-3" data-name="Path 292212" d="M.074,0,0,.168C.028.18,2.847,1.418,4.549,1.932a13.79,13.79,0,0,0,2.535.47c.718.07,1.234.076,1.239.076l0-.185A15.7,15.7,0,0,1,4.6,1.757C2.911,1.245.1.013.074,0Z" transform="translate(3.131 2.378)" fill="#fff"/>
      <path id="Path_292213-3" data-name="Path 292213" d="M.159,0,.019.12C.073.182.155.367.1.9a5.586,5.586,0,0,1-.1.6l.179.042a5.68,5.68,0,0,0,.1-.628A1.286,1.286,0,0,0,.159,0Z" transform="translate(6.962 2.492)" fill="#fff"/>
      <path id="Path_292214-3" data-name="Path 292214" d="M1.574,0a2.922,2.922,0,0,1-.8,1.318C.386,1.755,0,2.1,0,2.108l.124.135s.392-.358.783-.8A3.015,3.015,0,0,0,1.757.016Z" transform="translate(9.609 2.341)" fill="#fff"/>
      <path id="Path_292215-3" data-name="Path 292215" d="M.8,0A1.118,1.118,0,0,1,.691.412.974.974,0,0,1,0,.95l.042.18A1.159,1.159,0,0,0,.861.484,1.281,1.281,0,0,0,.983,0L.8,0h0Z" transform="translate(9.582 4.763)" fill="#fff"/>
      <path id="Path_292216-3" data-name="Path 292216" d="M1.369,0A2.606,2.606,0,0,1,.078.746a.359.359,0,0,1-.057,0L0,.926a.65.65,0,0,0,.076,0C.671.93,1.463.166,1.5.132L1.369,0l.064.067Z" transform="translate(6.95 4.45)" fill="#fff"/>
    </g>
    <text id="_" data-name="!" transform="translate(194.921 251)" fill="#f2db2b" font-size="25" font-family="Avenir-Black, Avenir" font-weight="800"><tspan x="-5.55" y="25">!</tspan></text>
  </g>
</svg>
