<svg xmlns="http://www.w3.org/2000/svg" xmlns:xlink="http://www.w3.org/1999/xlink" width="81" height="81" viewBox="0 0 81 81">
  <defs>
    <radialGradient id="radial-gradient" cx="0.5" cy="0.5" r="0.348" gradientTransform="translate(0 0)" gradientUnits="objectBoundingBox">
      <stop offset="0" stop-color="#a400ff"/>
      <stop offset="0.645" stop-color="#6e07a7" stop-opacity="0.902"/>
      <stop offset="1" stop-color="#6b0ba2" stop-opacity="0"/>
    </radialGradient>
    <clipPath id="clip-path">
      <rect id="Rectangle_18944" data-name="Rectangle 18944" width="81" height="81" transform="translate(0 0)" fill="url(#radial-gradient)"/>
    </clipPath>
  </defs>
  <g id="Group_62224" data-name="Group 62224" transform="translate(0)">
    <g id="Group_62223" data-name="Group 62223" clip-path="url(#clip-path)">
      <path id="Path_184525" data-name="Path 184525" d="M70.576,9.537l-.7-6.708-51.859,8.2,50.721-13.6L66.65-8.99,17.628,9.813,64.413-14.04l-3.372-5.841L17,8.7,57.8-24.356,53.29-29.368,16.155,7.748l33.038-40.82-5.456-3.964L15.129,6.989l23.829-46.8L32.8-42.551,13.969,6.46,27.547-44.268l-6.6-1.4L12.723,6.187l2.735-52.445H8.713L11.448,6.176,3.219-45.692l-6.6,1.4L10.2,6.43-8.635-42.593-14.8-39.85,9.028,6.938-19.585-37.1l-5.457,3.964L7.991,7.68-29.153-29.445l-4.513,5.012L7.129,8.619l-44.051-28.59-3.372,5.841L6.482,9.718-42.551-9.089l-2.084,6.415,50.712,13.6-51.871-8.2-.7,6.708L5.934,12.2-46.51,14.957l.705,6.708,51.861-8.2L-44.667,27.07l2.084,6.415L6.439,14.68-40.346,38.534l3.373,5.841L7.068,15.79l-40.8,33.06,4.513,5.012L7.913,16.745-25.126,57.566l5.457,3.964L8.938,17.5l-23.83,46.8,6.162,2.743L10.1,18.032-3.48,68.762l6.6,1.4,8.227-51.857L8.609,70.753h6.745L12.619,18.318l8.228,51.868,6.6-1.4L13.868,18.064,32.7,67.088l6.162-2.744L15.038,17.556,43.652,61.592l5.456-3.964L16.077,16.816,53.22,53.94l4.514-5.012-40.8-33.052,44.051,28.59,3.372-5.84L17.585,14.776,66.618,33.583,68.7,27.169,17.99,13.566l51.871,8.2.7-6.708L18.134,12.3Z" transform="translate(28.407 28.233)" fill="url(#radial-gradient)"/>
    </g>
  </g>
</svg>
