<svg xmlns="http://www.w3.org/2000/svg" width="19" height="15.925" viewBox="0 0 19 15.925">
  <g id="Group_88147" data-name="Group 88147" transform="translate(0 0)">
    <path id="Path_184505" data-name="Path 184505" d="M43.867,46.337a6.892,6.892,0,0,1,5-6.111,7.3,7.3,0,0,1,7.723,2.326l1.079-.321a1.36,1.36,0,0,0-1.121-1.045,1.375,1.375,0,0,1-1.052-.818,1.4,1.4,0,0,0-1.592-.805,1.424,1.424,0,0,1-1.3-.37,1.429,1.429,0,0,0-1.792-.159,1.435,1.435,0,0,1-1.346.135h0a1.417,1.417,0,0,0-1.719.511h0a1.4,1.4,0,0,1-1.19.619h0a1.372,1.372,0,0,0-1.384,1.1h0a1.343,1.343,0,0,1-.852,1.009,1.319,1.319,0,0,0-.839,1.528,1.3,1.3,0,0,1-.385,1.246h0a1.291,1.291,0,0,0-.309,1.471ZM49.1,40.952a6.5,6.5,0,0,1,6.67,1.843l.375-.112a6.871,6.871,0,0,0-7.153-2.064,6.492,6.492,0,0,0-4.684,5.585l.375-.112A6.147,6.147,0,0,1,49.1,40.952ZM59.016,46.6h0l-.01-.015-.913.272a6.877,6.877,0,0,1-5.011,6.424A7.283,7.283,0,0,1,45.163,50.7l-.913.272c0,.006,0,.012,0,.018h0A1.346,1.346,0,0,0,45.4,52.32h0a1.375,1.375,0,0,1,1.052.818,1.4,1.4,0,0,0,1.592.805,1.424,1.424,0,0,1,1.3.37h0a1.429,1.429,0,0,0,1.792.159h0a1.435,1.435,0,0,1,1.347-.135h0a1.417,1.417,0,0,0,1.719-.511h0a1.4,1.4,0,0,1,1.19-.619,1.372,1.372,0,0,0,1.384-1.1,1.343,1.343,0,0,1,.853-1.009,1.32,1.32,0,0,0,.839-1.528,1.3,1.3,0,0,1,.385-1.246A1.291,1.291,0,0,0,59.016,46.6Zm-6.062,6.287a6.477,6.477,0,0,0,4.7-5.9l-.368.109a6.132,6.132,0,0,1-4.444,5.459,6.492,6.492,0,0,1-6.881-2.091l-.368.109A6.859,6.859,0,0,0,52.954,52.886Z" transform="translate(-41.423 -38.791)" fill="#61dcbb"/>
    <g id="Group_62218" data-name="Group 62218" transform="translate(0 3.758)">
      <path id="Path_184506" data-name="Path 184506" d="M26.27,164.13l-.217-.238a.691.691,0,0,1-.516.5q-.811.241-1.136-.766l-.455-1.409a1.206,1.206,0,0,1-.066-.421.747.747,0,0,1,.071-.311.688.688,0,0,1,.179-.215,1.043,1.043,0,0,1,.221-.143,1.749,1.749,0,0,1,.232-.086,1.789,1.789,0,0,1,.292-.063.861.861,0,0,1,.242,0,.933.933,0,0,1,.2.053.5.5,0,0,1,.161.1,1.2,1.2,0,0,1,.127.141,1.032,1.032,0,0,1,.106.181q.051.109.088.205t.08.229l-.715.213-.083-.257a.438.438,0,0,0-.059-.124.149.149,0,0,0-.071-.058.207.207,0,0,0-.066-.012.222.222,0,0,0-.06.01.282.282,0,0,0-.1.047.171.171,0,0,0-.048.059.183.183,0,0,0,0,.1,1,1,0,0,0,.026.125q.016.058.056.18l.406,1.258a1.183,1.183,0,0,0,.044.119.54.54,0,0,0,.059.1.177.177,0,0,0,.091.068.206.206,0,0,0,.121,0,.149.149,0,0,0,.123-.129.771.771,0,0,0-.051-.286l-.121-.376-.2.06-.181-.562.906-.27.612,1.9Z" transform="translate(-23.879 -155.951)" fill="#61dcbb"/>
      <path id="Path_184507" data-name="Path 184507" d="M51.707,152.243l-.772-2.391.728-.216.752,2.328,0,.014q.017.053.028.083a.664.664,0,0,0,.038.081.275.275,0,0,0,.055.076.179.179,0,0,0,.072.038.169.169,0,0,0,.1,0,.2.2,0,0,0,.073-.037.117.117,0,0,0,.038-.059.394.394,0,0,0,.012-.066.266.266,0,0,0-.008-.078c-.007-.031-.013-.056-.017-.072s-.012-.04-.021-.07l0-.014-.752-2.328.728-.216.772,2.391a.962.962,0,0,1,0,.735.925.925,0,0,1-.613.431.977.977,0,0,1-.768-.02A1,1,0,0,1,51.707,152.243Z" transform="translate(-48.936 -145.122)" fill="#61dcbb"/>
      <path id="Path_184508" data-name="Path 184508" d="M85.446,141.7l1.425,3.142-.723.215-.211-.474-.379.113.111.5-.728.216-.667-3.367Zm-.362.777-.068.02.4,1.59.268-.08Z" transform="translate(-79.813 -138.052)" fill="#61dcbb"/>
      <path id="Path_184509" data-name="Path 184509" d="M110.244,135.46l.478,1.48-.757.225-1.05-3.253,1.149-.342a.926.926,0,0,1,.317-.044.5.5,0,0,1,.415.226,1.228,1.228,0,0,1,.134.231,3.141,3.141,0,0,1,.109.3q.03.092.045.151a.957.957,0,0,1,.024.154.51.51,0,0,1-.009.165.456.456,0,0,1-.072.149.535.535,0,0,1-.149.141.432.432,0,0,1,.194.017.308.308,0,0,1,.138.094.716.716,0,0,1,.084.124.893.893,0,0,1,.056.137q.26.807.387,1.228l-.732.218-.409-1.268a.393.393,0,0,0-.055-.116.115.115,0,0,0-.08-.047.288.288,0,0,0-.092,0Q110.327,135.436,110.244,135.46Zm-.373-1.171.2.606.187-.056q.149-.044.053-.342-.064-.2-.14-.236a.38.38,0,0,0-.255.015Z" transform="translate(-102.633 -130.457)" fill="#61dcbb"/>
      <path id="Path_184510" data-name="Path 184510" d="M142.62,123.983l1.425,3.142-.723.215-.211-.474-.379.113.111.5-.728.216-.667-3.367Zm-.362.777-.068.02.4,1.59.268-.08Z" transform="translate(-132.764 -121.59)" fill="#61dcbb"/>
      <path id="Path_184511" data-name="Path 184511" d="M167.926,113.553l1.05,3.253-.732.218-.9-1.516.525,1.628-.732.218-1.05-3.253.77-.229.847,1.454-.5-1.556Z" transform="translate(-155.584 -111.9)" fill="#61dcbb"/>
      <path id="Path_184512" data-name="Path 184512" d="M194.646,106.029l1.638-.487.2.627-.445.132.848,2.626-.749.223-.848-2.626-.445.132Z" transform="translate(-182.032 -104.457)" fill="#61dcbb"/>
      <path id="Path_184513" data-name="Path 184513" d="M221.575,101.81l-1.05-3.253,1.5-.446.2.631-.736.219.2.635.706-.21.2.611-.706.21.239.741.785-.233.205.635Z" transform="translate(-206 -97.553)" fill="#61dcbb"/>
      <path id="Path_184514" data-name="Path 184514" d="M246.994,93.933l-1.05-3.253,1.5-.446.2.631-.736.219.2.635.706-.21.2.611-.706.21.239.741.785-.234.205.635Z" transform="translate(-229.541 -90.234)" fill="#61dcbb"/>
    </g>
  </g>
</svg>
