<svg id="vector-invite_frds" data-name="vector-invite frds" xmlns="http://www.w3.org/2000/svg" xmlns:xlink="http://www.w3.org/1999/xlink" width="322.756" height="259.114" viewBox="0 0 322.756 259.114">
  <defs>
    <clipPath id="clip-path">
      <path id="Path_142595" data-name="Path 142595" d="M-330.053,182.653l-9.967-1s-.515,4.653,4.736,5.072S-330.053,182.653-330.053,182.653Z" transform="translate(340.034 -181.653)" fill="#3b1f1b"/>
    </clipPath>
  </defs>
  <g id="Group_60972" data-name="Group 60972" transform="translate(8.207 47.231)">
    <g id="Group_60966" data-name="Group 60966" transform="translate(0 59.99)">
      <g id="Group_60955" data-name="Group 60955" transform="translate(32.93 3.479)">
        <g id="Group_60951" data-name="Group 60951" transform="translate(41.375 18.791)">
          <path id="Path_142566" data-name="Path 142566" d="M-329.387,254.011s12.619,10.634-4.63,66.2l-17.375,2.1Z" transform="translate(354.552 -254.011)" fill="#f49da6"/>
          <g id="Group_60950" data-name="Group 60950" transform="translate(0 18.722)">
            <g id="Group_60947" data-name="Group 60947" transform="translate(44.732)">
              <g id="Group_60946" data-name="Group 60946" transform="translate(14.849)">
                <g id="Group_60945" data-name="Group 60945">
                  <path id="Path_142567" data-name="Path 142567" d="M-250.968,311.094s-5.592-5.195.727-12.436l9.521-11.334a2.187,2.187,0,0,1,3.276-.018h0a2.188,2.188,0,0,1,.334,2.423l-3.254,6.93,16.93-9.312a2.371,2.371,0,0,1,3.425,1.137h0a2.37,2.37,0,0,1-.893,2.87l-11,7.012.142.647,12.4-5.619a2.284,2.284,0,0,1,3.018,1.83h0a2.284,2.284,0,0,1-1.5,2.477l-12.047,6.233.092.814,11.536-3.724c1.035-.214,3.944.473,4.121,1.515h0c.165.973-2.36,1.905-3.321,2.128l-12.015,4.74.056.753,11.022-3.1a1.647,1.647,0,0,1,1.7,1.919h0a1.647,1.647,0,0,1-1.483,1.366l-12.623,4.049s-11.792,6.543-16.425,1.807Z" transform="translate(253.251 -286.577)" fill="#edb892"/>
                  <path id="Path_142568" data-name="Path 142568" d="M-232.216,304.112s2.926,6.583-1.87,11.757" transform="translate(245.104 -294.031)" fill="none" stroke="#d68a65" stroke-linecap="round" stroke-linejoin="round" stroke-width="1.441"/>
                </g>
              </g>
              <path id="Path_142569" data-name="Path 142569" d="M-279.08,323.844l18.992-6.016,6.875,11.813-21.511,9.131Z" transform="translate(279.08 -299.862)" fill="#edb892"/>
            </g>
            <g id="Group_60949" data-name="Group 60949" transform="translate(0 17.462)">
              <path id="Path_142570" data-name="Path 142570" d="M-266.945,320.162l7.94-2.335,6.871,13.454-9.806,4.254Z" transform="translate(318.654 -317.324)" fill="#eb682c"/>
              <g id="Group_60948" data-name="Group 60948">
                <path id="Path_142571" data-name="Path 142571" d="M-349.08,331.321l39.434-13.978a7.4,7.4,0,0,1,9.156,4.067l4.5,10.4a7.4,7.4,0,0,1-3.574,9.6l-37.173,18.847a13.89,13.89,0,0,1-18.089-5.613h0C-358.97,347.4-356.785,334.541-349.08,331.321Z" transform="translate(356.889 -316.952)" fill="#f49da6"/>
              </g>
            </g>
          </g>
        </g>
        <g id="Group_60954" data-name="Group 60954">
          <g id="Group_60952" data-name="Group 60952" transform="translate(0 3.027)">
            <path id="Path_142572" data-name="Path 142572" d="M-428.859,343.043s27.216,21.831,53.142,2.911l1.451-53.793,3.64-36.529-5.091-8.542-15.16-3.9-18.139,1.8-2.381,32.1Z" transform="translate(428.859 -233.649)" fill="#eb682c"/>
            <path id="Path_142573" data-name="Path 142573" d="M-378.713,241.3s12.908,14.39,25.187,2.686l-5.99-16.693-20.481-.7Z" transform="translate(408.087 -226.591)" fill="#edb892"/>
          </g>
          <g id="Group_60953" data-name="Group 60953" transform="translate(49.411)">
            <path id="Path_142574" data-name="Path 142574" d="M-338.827,254.075s-5.206,63.933-2.447,100.831a1.75,1.75,0,0,0,3.111.955h0a23.789,23.789,0,0,0,3.412-11.019l3.184-57.385,8.815-30.307a9.24,9.24,0,0,0-2.642-9.394,49.272,49.272,0,0,0-13.426-8.535Z" transform="translate(342.558 -228.933)" fill="#f78b9a"/>
            <path id="Path_142575" data-name="Path 142575" d="M-342.911,231.613a49.368,49.368,0,0,1,3.294,19.265s10.43-12.7-2.226-29.554Z" transform="translate(342.911 -221.325)" fill="#fff"/>
          </g>
        </g>
      </g>
      <g id="Group_60965" data-name="Group 60965">
        <g id="Group_60957" data-name="Group 60957" transform="translate(18.028)">
          <g id="Group_60956" data-name="Group 60956" transform="translate(32.364)">
            <path id="Path_142576" data-name="Path 142576" d="M-380.417,215.333l5.493.5-2.2,5.177-7.321,1.481-1.263-1.236Z" transform="translate(393.054 -215.299)" fill="#e5e5e5"/>
            <path id="Path_142577" data-name="Path 142577" d="M-385.847,215.307s-3.131,2.484.1,10.929c1.737,4.545,4.047,8.01,4.46,13.6.221,2.983-1.587,10.146-1.587,10.146l-15.607-24.651S-392.281,214.589-385.847,215.307Z" transform="translate(398.484 -215.273)" fill="#fff"/>
          </g>
          <path id="Path_142578" data-name="Path 142578" d="M-406.809,257.416s4.044,50.012-16.605,94.2a5.234,5.234,0,0,1-6.067,2.851c-5.438-1.426-15.744-5.637-25.3-21.76l4.825-82.063a9.879,9.879,0,0,1,4.691-7.829,91.5,91.5,0,0,1,22.849-10.045S-409.864,239.994-406.809,257.416Z" transform="translate(454.78 -222.709)" fill="#f78b9a"/>
        </g>
        <g id="Group_60964" data-name="Group 60964" transform="translate(0 20.132)">
          <path id="Path_142579" data-name="Path 142579" d="M-458.646,250.292s21.923,20.541,5.554,62.633l-2.75,14.879a15.273,15.273,0,0,1-18.6,12.072h0a15.258,15.258,0,0,1-11.519-17.128C-482.473,299.953-473.91,256.511-458.646,250.292Z" transform="translate(486.14 -250.292)" fill="#f49da6"/>
          <g id="Group_60963" data-name="Group 60963" transform="translate(0.957 46.682)">
            <g id="Group_60961" data-name="Group 60961" transform="translate(50.598)">
              <g id="Group_60960" data-name="Group 60960">
                <g id="Group_60959" data-name="Group 60959" transform="translate(17.917)">
                  <g id="Group_60958" data-name="Group 60958">
                    <path id="Path_142580" data-name="Path 142580" d="M-364.44,351.358s-3.755-6.645,4.461-11.631l12.507-7.917a2.187,2.187,0,0,1,3.127.975h0a2.187,2.187,0,0,1-.416,2.41l-5.2,5.618,18.955-3.745a2.371,2.371,0,0,1,2.92,2.121h0a2.37,2.37,0,0,1-1.721,2.465l-12.6,3.351-.061.659,13.517-1.6a2.284,2.284,0,0,1,2.321,2.658h0a2.283,2.283,0,0,1-2.177,1.907l-13.369,2.29-.159.8,12.122-.054a1.865,1.865,0,0,1,1.654,2.116h0a1.865,1.865,0,0,1-1.995,1.6l-12.887.877-.174.735,11.444.385a1.647,1.647,0,0,1,1.037,2.343h0a1.647,1.647,0,0,1-1.827.853l-13.256.034s-13.22,2.664-16.2-3.254Z" transform="translate(365.297 -331.494)" fill="#edb892"/>
                  </g>
                </g>
                <path id="Path_142581" data-name="Path 142581" d="M-396.463,357.041l22.53-.873,2.973,13.341-24.06,3.655Z" transform="translate(396.463 -341.983)" fill="#edb892"/>
              </g>
              <path id="Path_142582" data-name="Path 142582" d="M-380.064,352.759l9.8-.551,2.576,17.126-10.741,1.412Z" transform="translate(389.491 -340.3)" fill="#eb682c"/>
            </g>
            <g id="Group_60962" data-name="Group 60962" transform="translate(0 9.717)">
              <path id="Path_142583" data-name="Path 142583" d="M-472.481,350.627l45.774-2.223a6.176,6.176,0,0,1,6.465,5.8l.792,13.257a6.177,6.177,0,0,1-5.066,6.446l-43.429,7.851A13.889,13.889,0,0,1-484,371.7h0C-486.154,363.637-480.753,351.77-472.481,350.627Z" transform="translate(484.474 -348.396)" fill="#f49da6"/>
              <line id="Line_47" data-name="Line 47" x1="15.654" y2="0.76" transform="translate(18.258 1.166)" fill="none" stroke="#e07988" stroke-linecap="round" stroke-linejoin="round" stroke-width="2.431"/>
            </g>
          </g>
        </g>
      </g>
    </g>
    <g id="Group_60971" data-name="Group 60971" transform="translate(55.749)">
      <path id="Path_142584" data-name="Path 142584" d="M-317.56,140.14s.924,3.518-2.012,8.46l-2.615-9.256Z" transform="translate(360.693 -123.005)" fill="#171717"/>
      <circle id="Ellipse_3823" data-name="Ellipse 3823" cx="5.819" cy="5.819" r="5.819" transform="translate(32.337 40.32) rotate(-74.944)" fill="#d68a65"/>
      <path id="Path_142585" data-name="Path 142585" d="M-355.772,186.735l-2.258,23.459-20.447-7.205,5.577-32.05Z" transform="translate(384.623 -136.436)" fill="#edb892"/>
      <path id="Path_142586" data-name="Path 142586" d="M-348.477,205.877s-9.978-.426-10.524-13.971l11.314,6Z" transform="translate(376.343 -145.35)" fill="#d68a65"/>
      <path id="Path_142587" data-name="Path 142587" d="M-341.272,136.125s3.113,19.716.02,27.271-9.66,11.983-19.593,9.29c0,0-11.628-1.417-13.309-18.95C-376.685,127.34-352.421,121.366-341.272,136.125Z" transform="translate(382.863 -118.281)" fill="#edb892"/>
      <g id="Group_60969" data-name="Group 60969" transform="translate(21.717 22.291)">
        <path id="Path_142588" data-name="Path 142588" d="M-321.48,166.581a1.331,1.331,0,0,0,1.553,1.064,1.332,1.332,0,0,0,1.064-1.553,1.332,1.332,0,0,0-1.554-1.064A1.332,1.332,0,0,0-321.48,166.581Z" transform="translate(338.686 -156.204)" fill="#171717"/>
        <path id="Path_142589" data-name="Path 142589" d="M-341.031,165.561a1.332,1.332,0,0,0,1.553,1.064,1.332,1.332,0,0,0,1.064-1.553,1.331,1.331,0,0,0-1.553-1.064A1.331,1.331,0,0,0-341.031,165.561Z" transform="translate(346.997 -155.771)" fill="#171717"/>
        <path id="Path_142590" data-name="Path 142590" d="M-326.525,169.3l1.129,4.59-2.169.419" transform="translate(341.263 -158.029)" fill="none" stroke="#d68a65" stroke-linecap="round" stroke-linejoin="round" stroke-width="1.441"/>
        <path id="Path_142591" data-name="Path 142591" d="M-341.366,151.225h0a1.833,1.833,0,0,1-1.645,2.167,21.061,21.061,0,0,0-6.152,1.406,1.6,1.6,0,0,1-2.086-.775h0a1.67,1.67,0,0,1,.654-2.057,10.508,10.508,0,0,1,7.447-2.243A1.885,1.885,0,0,1-341.366,151.225Z" transform="translate(351.392 -149.697)" fill="#171717"/>
        <path id="Path_142592" data-name="Path 142592" d="M-324.711,152.086h0c-.146,1.051.344,2.079,1.059,2.217a10.685,10.685,0,0,1,4.048,1.652c.524.367,1.137.083,1.39-.68h0a2.217,2.217,0,0,0-.405-2.067,5.958,5.958,0,0,0-4.893-2.536C-324.091,150.689-324.593,151.24-324.711,152.086Z" transform="translate(340.06 -150.111)" fill="#171717"/>
        <g id="Group_60968" data-name="Group 60968" transform="translate(6.529 18.371)">
          <path id="Path_142593" data-name="Path 142593" d="M-330.053,182.653l-9.967-1s-.515,4.653,4.736,5.072S-330.053,182.653-330.053,182.653Z" transform="translate(340.034 -181.653)" fill="#3b1f1b"/>
          <g id="Group_60967" data-name="Group 60967" clip-path="url(#clip-path)">
            <path id="Path_142594" data-name="Path 142594" d="M-330.518,183.165l-11.757-1.133.5-2.967,13.467.189Z" transform="translate(340.987 -180.553)" fill="#fff"/>
            <circle id="Ellipse_3824" data-name="Ellipse 3824" cx="3.325" cy="3.325" r="3.325" transform="translate(-2.249 7.12) rotate(-61.562)" fill="#e275c2"/>
          </g>
        </g>
      </g>
      <path id="Path_142596" data-name="Path 142596" d="M-375.44,146.567s5.708-.358,4.228-14.953a19.158,19.158,0,0,1,13.869-2.11c7.867,1.831,18.613.835,18.889-7.659.359-11.029-17.324-14.422-29.752-6.85-11.267,6.864-26.064,10.218-14.63,31.77Z" transform="translate(388.228 -110.924)" fill="#171717"/>
      <path id="Path_142597" data-name="Path 142597" d="M-377.764,175.886l2.454,10.631,3.306-8.528Z" transform="translate(384.319 -138.539)" fill="#171717"/>
      <g id="Group_60970" data-name="Group 60970" transform="translate(0 26.785)">
        <circle id="Ellipse_3825" data-name="Ellipse 3825" cx="7.061" cy="7.061" r="7.061" transform="matrix(0.16, -0.987, 0.987, 0.16, 0, 13.941)" fill="#edb892"/>
        <path id="Path_142598" data-name="Path 142598" d="M-380.344,167.564a5.173,5.173,0,0,1,6.233,4.672" transform="translate(385.416 -161.75)" fill="none" stroke="#d68a65" stroke-linecap="round" stroke-linejoin="round" stroke-width="1.441"/>
      </g>
    </g>
  </g>
  <g id="Group_65289" data-name="Group 65289" transform="translate(0 0)">
    <g id="Group_60973" data-name="Group 60973" transform="matrix(0.998, -0.07, 0.07, 0.998, 0, 5.505)">
      <rect id="Rectangle_18631" data-name="Rectangle 18631" width="78.917" height="40.676" rx="20.338" transform="translate(0)" fill="#f78b9a"/>
      <path id="Path_142599" data-name="Path 142599" d="M0,3.039,9.179,14.445,8.2,0Z" transform="translate(50.592 32.554)" fill="#f78b9a"/>
    </g>
    <text id="Game_On_" data-name="Game On!" transform="matrix(0.995, -0.105, 0.105, 0.995, 9.952, 29.248)" fill="#fff" font-size="12" font-family="Montserrat-Bold, Montserrat" font-weight="700" letter-spacing="-0.025em"><tspan x="0" y="0">Game On!</tspan></text>
  </g>
  <g id="Group_60995" data-name="Group 60995" transform="translate(174.119 87.625) rotate(5)">
    <g id="Group_60978" data-name="Group 60978" transform="translate(2.078 51.44)">
      <path id="Path_142600" data-name="Path 142600" d="M59.421,106.869c-.883,1.1-40.056,16.642-58.671-4.115L0,16.386,13.79,0,30.717.161l26.676,48.68Z" transform="translate(20.972)" fill="#fea01e"/>
      <g id="Group_60977" data-name="Group 60977">
        <path id="Path_142601" data-name="Path 142601" d="M17.412,0S1.883,8.175,8.575,64.745L0,89.284H22.263L26.9,33.273Z" transform="translate(0 10.171)" fill="#a8527e"/>
        <g id="Group_60976" data-name="Group 60976" transform="translate(15.359 0)">
          <path id="Path_142602" data-name="Path 142602" d="M14.057,25.549l-1.19,76.507a12.235,12.235,0,0,1-9.887,4.813s-5.19-93.7-1.872-96.227C8.192,5.242,19.086,0,19.086,0Z" transform="translate(0.316)" fill="#a8527e"/>
          <line id="Line_48" data-name="Line 48" x1="2.825" y1="63.223" transform="translate(0 36.231)" fill="none" stroke="#8c3b68" stroke-linecap="round" stroke-linejoin="round" stroke-width="2.208"/>
          <path id="Path_142603" data-name="Path 142603" d="M15.637,10.642l-3.2,14.907L3.369,33.213A2.046,2.046,0,0,1,.018,31.391l1-7.8a17.075,17.075,0,0,1,2.661-7.2L13.258,0Z" transform="translate(1.937)" fill="#f78b9a"/>
        </g>
      </g>
    </g>
    <g id="Group_60985" data-name="Group 60985" transform="translate(9.88 0)">
      <path id="Path_142604" data-name="Path 142604" d="M2.633.009a.351.351,0,0,0-.176.005A3.2,3.2,0,0,0,.106,3.984C.823,7.273,11.5,13.958,18.8,9.8L16.13,2.614Z" transform="translate(0 3.683)" fill="#913969"/>
      <path id="Path_142605" data-name="Path 142605" d="M9.819,6.066A4.97,4.97,0,1,1,6.066.123,4.97,4.97,0,0,1,9.819,6.066Z" transform="translate(6.223 24.983)" fill="#d68a65"/>
      <path id="Path_142606" data-name="Path 142606" d="M0,15.2,4.39,34.839l12.878-4.812a4.835,4.835,0,0,0,2.931-5.94L12.85,0Z" transform="translate(20.741 27.243)" fill="#edb892"/>
      <path id="Path_142607" data-name="Path 142607" d="M1.179,10.94S9.689,10,8.957,0L0,5.736Z" transform="translate(21.143 38.593)" fill="#d68a65"/>
      <path id="Path_142608" data-name="Path 142608" d="M1.187,6.742S-1.472,23.581,1.17,30.033,9.42,40.267,17.9,37.967c0,0,9.931-1.21,11.367-16.184C31.432-.76,10.708-5.864,1.187,6.742Z" transform="translate(8.846 7.604)" fill="#edb892"/>
      <path id="Path_142609" data-name="Path 142609" d="M23.167,20.715s-1.734-2.745.018-10.189S4.778,3.28,0,8.764C0,8.764,3.213.456,15.254.018s21.784,7.241,17.624,20.7l-2.955,4.706Z" transform="translate(10.033 5.582)" fill="#171717"/>
      <path id="Path_142610" data-name="Path 142610" d="M23.222,0s.925,9.811-7.441,11.548c-5.339,1.108-10.743-2.814-15.78.7,0,0,1.98,14.829,17.186,11.254a12.882,12.882,0,0,0,5.492-2.829c3.088-2.68,7.518-8.141,4.887-16.011Z" transform="translate(9.215 22.268)" fill="#171717"/>
      <g id="Group_60979" data-name="Group 60979" transform="translate(32.581 22.582)">
        <circle id="Ellipse_3826" data-name="Ellipse 3826" cx="6.031" cy="6.031" r="6.031" transform="translate(0 3.082) rotate(-14.804)" fill="#edb892"/>
        <path id="Path_142611" data-name="Path 142611" d="M5.324.073A4.418,4.418,0,0,0,0,4.063" transform="translate(4.634 5.345)" fill="none" stroke="#d68a65" stroke-linecap="round" stroke-linejoin="round" stroke-width="1.444"/>
      </g>
      <g id="Group_60981" data-name="Group 60981" transform="translate(3.119 17.765)">
        <path id="Path_142612" data-name="Path 142612" d="M2.255,1.346A1.137,1.137,0,1,1,1.346.02,1.137,1.137,0,0,1,2.255,1.346Z" transform="translate(6.938 7.895)" fill="#171717"/>
        <path id="Path_142613" data-name="Path 142613" d="M2.255,1.346A1.137,1.137,0,1,1,1.347.02,1.137,1.137,0,0,1,2.255,1.346Z" transform="translate(16.537 7.394)" fill="#171717"/>
        <path id="Path_142614" data-name="Path 142614" d="M1.852,0,0,3.068l1.852.971" transform="translate(9.875 10.17)" fill="none" stroke="#d68a65" stroke-linecap="round" stroke-linejoin="round" stroke-width="1.444"/>
        <path id="Path_142615" data-name="Path 142615" d="M0,1.621H0A1.566,1.566,0,0,0,1.612,3.3a17.968,17.968,0,0,1,5.357.588,1.366,1.366,0,0,0,1.694-.862h0a1.426,1.426,0,0,0-.757-1.681A8.973,8.973,0,0,0,1.368.172,1.609,1.609,0,0,0,0,1.621Z" transform="translate(15.24)" fill="#171717"/>
        <path id="Path_142616" data-name="Path 142616" d="M5.823,1.452h0c-.032.9-.584,1.7-1.192,1.717a8.815,8.815,0,0,0-3.569.82C.577,4.225.115,3.9.017,3.222h0A1.928,1.928,0,0,1,.65,1.54,4.948,4.948,0,0,1,5.043.094C5.516.189,5.849.723,5.823,1.452Z" transform="translate(4.977 0.52)" fill="#171717"/>
        <g id="Group_60980" data-name="Group 60980" transform="translate(0 2.041)">
          <path id="Path_142617" data-name="Path 142617" d="M0,6.084a5.954,5.954,0,0,0,5.957,5.949,5.954,5.954,0,0,0,5.818-6.085A5.953,5.953,0,0,0,5.818,0,5.953,5.953,0,0,0,0,6.084Z" transform="translate(13.63)" fill="#fff" opacity="0.26"/>
          <path id="Path_142618" data-name="Path 142618" d="M0,5.836c.037,3.191,2.326,5.751,5.112,5.72S10.128,8.91,10.091,5.72,7.766-.032,4.98,0-.036,2.645,0,5.836Z" transform="translate(0 0.356)" fill="#fff" opacity="0.26"/>
          <path id="Path_142619" data-name="Path 142619" d="M0,6.084a5.954,5.954,0,0,0,5.957,5.949,5.954,5.954,0,0,0,5.818-6.085A5.953,5.953,0,0,0,5.818,0,5.953,5.953,0,0,0,0,6.084Z" transform="translate(13.63)" fill="none" stroke="#fff" stroke-linecap="round" stroke-linejoin="round" stroke-width="1.374"/>
          <path id="Path_142620" data-name="Path 142620" d="M0,5.836c.037,3.191,2.326,5.751,5.112,5.72S10.128,8.91,10.091,5.72,7.766-.032,4.98,0-.036,2.645,0,5.836Z" transform="translate(0 0.356)" fill="none" stroke="#fff" stroke-linecap="round" stroke-linejoin="round" stroke-width="1.374"/>
          <path id="Path_142621" data-name="Path 142621" d="M3.539.664A2.784,2.784,0,0,0,0,.655" transform="translate(10.091 5.42)" fill="none" stroke="#fff" stroke-linecap="round" stroke-linejoin="round" stroke-width="1.374"/>
          <line id="Line_49" data-name="Line 49" x2="5.96" y2="0.874" transform="translate(25.405 5.949)" fill="none" stroke="#fff" stroke-linecap="round" stroke-linejoin="round" stroke-width="1.374"/>
        </g>
        <path id="Path_142622" data-name="Path 142622" d="M0,0,5.259.087s.012,1.625-2.669,1.6S0,0,0,0Z" transform="translate(10.724 17.408)" fill="#fff"/>
      </g>
      <g id="Group_60984" data-name="Group 60984" transform="translate(2.61 0)">
        <path id="Path_142623" data-name="Path 142623" d="M4.828,2.805A2.429,2.429,0,1,1,2.8.03,2.428,2.428,0,0,1,4.828,2.805Z" transform="translate(32.177 0.724)" fill="#a8527e"/>
        <g id="Group_60983" data-name="Group 60983" transform="translate(11.381 0)">
          <g id="Group_60982" data-name="Group 60982">
            <path id="Path_142624" data-name="Path 142624" d="M19.708,1.334c8.8,3.537,13.284,13.011,10.057,21.2L0,5.926C4.413.476,12.4-1.6,19.708,1.334Z" fill="#f78b9a"/>
          </g>
        </g>
        <path id="Path_142625" data-name="Path 142625" d="M30.513,12.913S22.868,2.794,11.853,1.673L0,0S9.165,3.383,12.79,7.271,26.1,14.036,30.513,12.913Z" transform="translate(0 3.688)" fill="#a8527e"/>
      </g>
      <path id="Path_142626" data-name="Path 142626" d="M1,10.752,0,15.42s8.445,5.448,15.083-3.391L16.812,0Z" transform="translate(24.129 51.33)" fill="#edb892"/>
    </g>
    <g id="Group_60994" data-name="Group 60994" transform="translate(0 47.453)">
      <g id="Group_60986" data-name="Group 60986" transform="translate(46.216 0)">
        <path id="Path_142627" data-name="Path 142627" d="M.034,25.806S-.9,94.127,7.048,100.523c14.7,11.821,37.295,9.949,37.295,9.949s-4.934-36.583-11.26-80.247L34.3,5.665A53.93,53.93,0,0,0,6.7.162Z" transform="translate(0.846 3.987)" fill="#a8527e"/>
        <path id="Path_142628" data-name="Path 142628" d="M4.605,3.878S-2.415,19.3.88,29.793C1.824,32.8,10.786,37.6,10.786,37.6a3.6,3.6,0,0,0,6.038-3.031L13.606,6.955A7.737,7.737,0,0,0,4.476.16q-.453.1-.934.231Z" fill="#f78b9a"/>
      </g>
      <g id="Group_60993" data-name="Group 60993" transform="translate(0 9.074)">
        <g id="Group_60987" data-name="Group 60987" transform="translate(68.603 0)">
          <path id="Path_142629" data-name="Path 142629" d="M9.906,0S-8.777,17.505,5.173,53.377L7.516,66.058A13.016,13.016,0,0,0,23.37,76.345h0c6.564-1.584,11.824-7.922,10.8-14.6C31.2,42.322,27.04,6.723,9.906,0Z" transform="translate(1.558)" fill="#a8527e"/>
          <line id="Line_50" data-name="Line 50" x2="7.154" y2="27.594" transform="translate(0 28.075)" fill="none" stroke="#8c3b68" stroke-linecap="round" stroke-linejoin="round" stroke-width="2.208"/>
        </g>
        <g id="Group_60992" data-name="Group 60992" transform="translate(0 49.605)">
          <g id="Group_60990" data-name="Group 60990" transform="translate(0 12.28)">
            <g id="Group_60989" data-name="Group 60989">
              <g id="Group_60988" data-name="Group 60988" transform="translate(35.189 0)">
                <path id="Path_142630" data-name="Path 142630" d="M23.662,0,.508,8.9,0,16.111l27.792-1.484Z" fill="#edb892"/>
              </g>
              <path id="Path_142631" data-name="Path 142631" d="M39.437,6.79a18.607,18.607,0,0,0-14.3-3.216L17.431.81a2.677,2.677,0,0,0-3.18,1.057h0a2.279,2.279,0,0,0,.923,3.2L19.438,7.43H17.7a12.889,12.889,0,0,1-7.59-2.442L3.965.489A2.61,2.61,0,0,0,1.5.177h0A2.179,2.179,0,0,0,.7,3.839l7.244,6.84a14.58,14.58,0,0,0,10.725,3.852l21.543-1.09Z" transform="translate(0 2.416)" fill="#edb892"/>
            </g>
            <path id="Path_142632" data-name="Path 142632" d="M8.581,0,0,2.025,2.442,16.273l9.62-1.576Z" transform="translate(41.458 0.304)" fill="#f2db2b"/>
          </g>
          <g id="Group_60991" data-name="Group 60991" transform="translate(48.299 0)">
            <path id="Path_142633" data-name="Path 142633" d="M40.745.114,3.834,9.846a5.144,5.144,0,0,0-3.677,6.23L2.857,26.8A5.146,5.146,0,0,0,8.5,30.649l36.73-3.909c6.034-.7,10.23-6.711,9.955-12.779h0C54.872,7.013,47.6-1.056,40.745.114Z" fill="#a8527e"/>
            <path id="Path_142634" data-name="Path 142634" d="M35.678,0,3.714,8.427A4.992,4.992,0,0,0,0,12.95l0,.063" transform="translate(0.015 1.446)" fill="none" stroke="#8c3b68" stroke-linecap="round" stroke-linejoin="round" stroke-width="2.208"/>
          </g>
          <path id="Path_142635" data-name="Path 142635" d="M35.439,0,4.784,3.42A4.655,4.655,0,0,1,0,.652H0" transform="translate(51.39 27.453)" fill="none" stroke="#8c3b68" stroke-linecap="round" stroke-linejoin="round" stroke-width="2.208"/>
        </g>
      </g>
    </g>
  </g>
  <g id="Group_65288" data-name="Group 65288" transform="translate(238.852 47.231)">
    <g id="Group_61000" data-name="Group 61000">
      <rect id="Rectangle_18632" data-name="Rectangle 18632" width="81.791" height="43.917" rx="21.958" transform="translate(2.113)" fill="#f78b9a"/>
      <path id="Path_142636" data-name="Path 142636" d="M-234.469,209.744l21.834-5.982-7.2-9.178Z" transform="translate(234.469 -171.436)" fill="#f78b9a"/>
    </g>
    <text id="Join_Me_" data-name="Join Me!" transform="translate(43.111 25.147)" fill="#fff" font-size="12" font-family="Montserrat-Bold, Montserrat" font-weight="700" letter-spacing="-0.025em"><tspan x="-25" y="0">Join Me!</tspan></text>
  </g>
</svg>
