<?xml version="1.0" encoding="utf-8"?>
<svg width="76px" height="55" preserveAspectRatio="xMidYMid slice" viewBox="0 0 76.045 54.168" xmlns="http://www.w3.org/2000/svg" xmlns:bx="https://boxy-svg.com">
  <defs>
    <bx:grid x="0" y="0" width="76.08" height="54.24"/>
  </defs>
  <g id="My_Games" data-name="My Games" transform="translate(-99 -9165)">
    <g id="Group_65065" data-name="Group 65065" transform="translate(0 0.345)">
      <g id="Group_60932" data-name="Group 60932" transform="translate(143.669 9183.41)">
        <path id="Path_142482" data-name="Path 142482" d="M26.463,287.478a4.85,4.85,0,0,0-4.837,3.013h-.018c-2.483,5.349-3.055,10.108-1.372,16.569l3.682,2.166.83-.614c2.18-5.04,3.986-4.393,10.193-4.98v-14.97C30.835,288.757,28.275,287.55,26.463,287.478Z" transform="translate(-19.276 -283.859)" fill="#fdc00f"/>
        <path id="Path_142483" data-name="Path 142483" d="M70.979,287.478a4.85,4.85,0,0,1,4.837,3.013h.018c2.483,5.349,3.055,10.108,1.372,16.569l-3.682,2.166-.83-.614c-2.18-5.04-3.987-4.393-10.192-4.98v-14.97C66.607,288.757,69.167,287.55,70.979,287.478Z" transform="translate(-46.835 -283.859)" fill="#ffa90a"/>
        <path id="Path_142484" data-name="Path 142484" d="M26.463,287.478a4.85,4.85,0,0,0-4.837,3.013h-.018c-2.483,5.349-3.055,10.108-1.372,16.569l3.682,2.166-2.986-2.166a24.607,24.607,0,0,1,1.243-16.569,5.082,5.082,0,0,1,4.468-3Q26.553,287.482,26.463,287.478Z" transform="translate(-19.276 -283.859)" fill="#ffa90a"/>
        <path id="Path_142485" data-name="Path 142485" d="M85.574,287.478a4.85,4.85,0,0,1,4.837,3.013h.018c2.483,5.349,3.055,10.108,1.372,16.569l-3.682,2.166,2.644-2.166c1.525-6.461,1.348-11.22-.9-16.569-1.3-2.192-2.592-2.852-4.469-3C85.454,287.484,85.514,287.481,85.574,287.478Z" transform="translate(-61.43 -283.859)" fill="#f99a26"/>
        <path id="Path_142486" data-name="Path 142486" d="M42.225,317.351a3.672,3.672,0,1,0-3.672-3.672A3.679,3.679,0,0,0,42.225,317.351Z" transform="translate(-31.566 -298.226)" fill="#0f4283"/>
        <g id="Group_60916" data-name="Group 60916" transform="translate(7.972 12.767)">
          <rect id="Rectangle_18623" data-name="Rectangle 18623" width="1.705" height="5.373" transform="translate(1.834 0)" fill="#d9f1fd"/>
          <rect id="Rectangle_18624" data-name="Rectangle 18624" width="5.373" height="1.705" transform="translate(0 1.834)" fill="#d9f1fd"/>
        </g>
        <path id="Path_142487" data-name="Path 142487" d="M69.876,317.351a3.672,3.672,0,1,0-3.672-3.672A3.679,3.679,0,0,0,69.876,317.351Z" transform="translate(-49.196 -298.226)" fill="#072d5e"/>
        <path id="Path_142488" data-name="Path 142488" d="M71.852,318.2a2.549,2.549,0,1,0-2.548-2.548A2.553,2.553,0,0,0,71.852,318.2Z" transform="translate(-51.172 -300.201)" fill="#f5500a"/>
        <g id="Group_60920" data-name="Group 60920" transform="translate(19.959 3.795)">
          <ellipse id="Ellipse_3822" data-name="Ellipse 3822" cx="3.433" cy="3.433" rx="3.433" ry="3.433" transform="translate(0 6.349) rotate(-67.636)" fill="#072d5e"/>
          <g id="Group_60919" data-name="Group 60919" transform="translate(1.682 1.682)">
            <g id="Group_60917" data-name="Group 60917">
              <path id="Path_142489" data-name="Path 142489" d="M79.252,295.014l2.138-2.138a.913.913,0,0,1,1.288,0h0a.913.913,0,0,1,0,1.288L80.541,296.3a.913.913,0,0,1-1.288,0h0A.913.913,0,0,1,79.252,295.014Z" transform="translate(-78.986 -292.611)" fill="#d9f1fd"/>
              <path id="Path_142490" data-name="Path 142490" d="M79.93,299.211a.685.685,0,1,1,0,.968A.684.684,0,0,1,79.93,299.211Z" transform="translate(-79.46 -296.69)" fill="#00c9dd"/>
              <path id="Path_142491" data-name="Path 142491" d="M85.586,293.554a.685.685,0,1,1,0,.968A.685.685,0,0,1,85.586,293.554Z" transform="translate(-83.066 -293.084)" fill="#005a78"/>
            </g>
            <g id="Group_60918" data-name="Group 60918" transform="translate(1.64 1.64)">
              <path id="Path_142492" data-name="Path 142492" d="M83.777,299.54l2.138-2.138a.914.914,0,0,1,1.288,0h0a.914.914,0,0,1,0,1.288l-2.138,2.138a.914.914,0,0,1-1.288,0h0A.913.913,0,0,1,83.777,299.54Z" transform="translate(-83.512 -297.136)" fill="#d9f1fd"/>
              <path id="Path_142493" data-name="Path 142493" d="M84.455,303.736a.685.685,0,1,1,0,.968A.685.685,0,0,1,84.455,303.736Z" transform="translate(-83.985 -301.216)" fill="#ffa90a"/>
              <path id="Path_142494" data-name="Path 142494" d="M90.111,298.079a.685.685,0,1,1,0,.968A.685.685,0,0,1,90.111,298.079Z" transform="translate(-87.591 -297.609)" fill="#f5500a"/>
            </g>
          </g>
        </g>
        <path id="Path_142495" data-name="Path 142495" d="M32.461,297.727a3.433,3.433,0,1,0-3.433-3.433A3.439,3.439,0,0,0,32.461,297.727Z" transform="translate(-25.494 -286.019)" fill="#072d5e"/>
        <path id="Path_142496" data-name="Path 142496" d="M35.457,299.02a1.73,1.73,0,1,0-1.73-1.73A1.733,1.733,0,0,0,35.457,299.02Z" transform="translate(-28.489 -289.015)" fill="#0f4283"/>
        <g id="Group_60921" data-name="Group 60921" transform="translate(3.927)">
          <path id="Path_142497" data-name="Path 142497" d="M35.113,287.166h2.455V292a1.389,1.389,0,0,1-2.455,0Z" transform="translate(-33.3 -283.663)" fill="#ffa90a"/>
          <path id="Path_142498" data-name="Path 142498" d="M33.038,283.353a2.927,2.927,0,1,0-2.927-2.927A2.932,2.932,0,0,0,33.038,283.353Z" transform="translate(-30.111 -277.5)" fill="#f5500a"/>
        </g>
        <path id="Path_142499" data-name="Path 142499" d="M25.788,315.975l.033,9.494-.728-.578a16.322,16.322,0,0,1-.14-8.51Z" transform="translate(-22.576 -302.031)" fill="#ffa90a"/>
        <path id="Path_142500" data-name="Path 142500" d="M96.8,315.975l-.033,9.494.728-.578a16.314,16.314,0,0,0,.14-8.51Z" transform="translate(-68.685 -302.031)" fill="#f99a26"/>
      </g>
      <g id="Group_60931" data-name="Group 60931" transform="translate(99 9164.655)">
        <path id="Path_142539" data-name="Path 142539" d="M-460.069,174.427h0a1.622,1.622,0,0,1-1.667-1.574v-.292a1.622,1.622,0,0,1,1.667-1.573h0a.529.529,0,0,1,.543.513v2.413A.529.529,0,0,1-460.069,174.427Z" transform="translate(477.858 -149.708)" fill="#e5915a"/>
        <path id="Path_142540" data-name="Path 142540" d="M-431.951,174.427h0a1.622,1.622,0,0,0,1.667-1.574v-.292a1.622,1.622,0,0,0-1.667-1.573h0a.529.529,0,0,0-.543.513v2.413A.529.529,0,0,0-431.951,174.427Z" transform="translate(458.508 -149.708)" fill="#e5915a"/>
        <path id="Path_142541" data-name="Path 142541" d="M-453.859,216.861c-.152,1.721-.267,2.851-.267,2.851h-16.732s-1.949-8.1-3.014-15.355c-.041-.291-.078-.575-.1-.856a17.879,17.879,0,0,1,2.182-11.274l1.823.4,2.835.623,2.422.533h3.126l1.106-.179,5.179-.84a35.962,35.962,0,0,1,2.1,10.613C-453.084,207.183-453.544,213.291-453.859,216.861Z" transform="translate(486.038 -164.712)" fill="#57bf9d"/>
        <path id="Path_142542" data-name="Path 142542" d="M-447.6,197.352c-.037.817-1.488,1.852-3.616,1.919s-3.779-.648-3.961-1.778a2.977,2.977,0,0,1,.541-2.066l2.422.533h3.126l1.106-.179A4.056,4.056,0,0,1-447.6,197.352Z" transform="translate(473.534 -166.485)" fill="#409083"/>
        <path id="Path_142543" data-name="Path 142543" d="M-493.38,172.881l-10.892-9.072-2.445,2.9s3.782,7.032,6.669,9.824a20.708,20.708,0,0,0,4.706,3.661S-493.465,175.243-493.38,172.881Z" transform="translate(507.622 -144.892)" fill="#57bf9d"/>
        <path id="Path_142544" data-name="Path 142544" d="M-452.421,188.757l-.34,3.916A3.835,3.835,0,0,0-449.889,194,3.523,3.523,0,0,0-447,192.673l-.377-3.916Z" transform="translate(471.919 -161.92)" fill="#e5915a"/>
        <path id="Path_142545" data-name="Path 142545" d="M-453.092,171.64c-2.6-.081-4.411-3.337-4.411-4.431l-.3-3.809a2.279,2.279,0,0,1,2.342-2.21h4.738a2.279,2.279,0,0,1,2.342,2.21l-.367,3.83C-448.749,168.459-450.943,171.708-453.092,171.64Z" transform="translate(475.255 -143.033)" fill="#fcb078"/>
        <path id="Path_142546" data-name="Path 142546" d="M-422.978,171.833l7.948-10.711,4.225,2.307s-2.75,11.765-8.772,16.109C-419.577,179.538-422.661,174.761-422.978,171.833Z" transform="translate(452.211 -143.066)" fill="#57bf9d"/>
        <path id="Path_142547" data-name="Path 142547" d="M-497.72,107.444a1.48,1.48,0,0,0-.152-.077,9.422,9.422,0,0,1-.463,1.472,2.764,2.764,0,0,1-.633.853,88.688,88.688,0,0,1-3.711,11.316,10.335,10.335,0,0,1-1,1.8,9.753,9.753,0,0,1-4.807,3.461c-.673-.393-1.1-1.606-.815-3.452a11.807,11.807,0,0,1,.815-2.749c1.319-3.132,6.593-10.288,7.361-11.319l.5-3.381s1.414-1.086,1.718-.955.166.591-.22.821c.068-.016.491-.128.71.035.24.179-.118.616-.118.616a.856.856,0,0,1,.558.057c.2.137,0,.607,0,.607a.752.752,0,0,1,.464.054C-497.324,106.719-497.483,107.217-497.72,107.444Z" transform="translate(509.392 -103.997)" fill="#fcb078"/>
        <path id="Path_142548" data-name="Path 142548" d="M-410.371,123.039a2.593,2.593,0,0,1-.9,2.312,9.737,9.737,0,0,1-4.8-3.461,26.462,26.462,0,0,1-2.632-6.07c-1.052-3.135-1.942-6.4-2.212-7.408a2.675,2.675,0,0,1-.626-.843,9.44,9.44,0,0,1-.463-1.472,1.48,1.48,0,0,0-.152.077c-.233-.227-.4-.725-.206-.84a.74.74,0,0,1,.46-.054s-.2-.469,0-.607a.834.834,0,0,1,.558-.057s-.358-.437-.118-.616c.22-.163.646-.051.711-.035-.386-.23-.521-.693-.22-.821s1.718.955,1.718.955l.538,3.614c.193.255,6.052,8.113,7.449,11.437A10.106,10.106,0,0,1-410.371,123.039Z" transform="translate(451.864 -103.133)" fill="#fcb078"/>
        <path id="Path_142549" data-name="Path 142549" d="M-460.329,152.147s.343-.992,2.492-1.618,5.343.906,6.489.647,1.26.518.711.971c0,0,1.072-.4,1.12.626.032.69-.731,1.165-.731,1.165a5.082,5.082,0,0,1,.137,1.9,6.153,6.153,0,0,1-1.486,2.8s-.045-2.885-.5-3.619c-.326-.522-3.623-.661-5.565-.66a2.848,2.848,0,0,0-2.647,1.656l-.017.039a5.958,5.958,0,0,0-.2,3s-2.059-2.529-1.716-4.621A2.468,2.468,0,0,1-460.329,152.147Z" transform="translate(478.222 -135.59)" fill="#916037"/>
        <path id="Path_142550" data-name="Path 142550" d="M-485.747,203.259l.565-2.632a58.19,58.19,0,0,1-6.516-2.657A22.671,22.671,0,0,0-485.747,203.259Z" transform="translate(497.684 -168.246)" fill="#409083"/>
        <path id="Path_142551" data-name="Path 142551" d="M-414.586,205.068l-.85-3.058,5.978-3.382S-412.093,203.611-414.586,205.068Z" transform="translate(447.22 -168.711)" fill="#409083"/>
        <path id="Path_142552" data-name="Path 142552" d="M-465.436,234.069a18.824,18.824,0,0,0,7.168,1.49,17.184,17.184,0,0,0,8.2-2.052Z" transform="translate(480.306 -192.6)" fill="#409083"/>
        <path id="Path_142553" data-name="Path 142553" d="M-483.47,107.423" transform="translate(492.239 -106.053)" fill="#e5915a"/>
        <path id="Path_142554" data-name="Path 142554" d="M-403.049,150.086a2.593,2.593,0,0,1-.9,2.312,9.738,9.738,0,0,1-4.8-3.461,26.467,26.467,0,0,1-2.632-6.07C-409.852,145.444-407.041,149.1-403.049,150.086Z" transform="translate(444.542 -130.435)" fill="#e5915a"/>
        <path id="Path_142555" data-name="Path 142555" d="M-502.679,156.407a10.334,10.334,0,0,1-1,1.8,9.753,9.753,0,0,1-4.807,3.461c-.673-.393-1.1-1.606-.815-3.452A12.675,12.675,0,0,0-502.679,156.407Z" transform="translate(509.392 -139.71)" fill="#e5915a"/>
      </g>
    </g>
  </g>
</svg>