<svg xmlns="http://www.w3.org/2000/svg" width="38.371" height="50.175" viewBox="0 0 38.371 50.175">
  <g id="Group_60934" data-name="Group 60934" transform="translate(-44.834 -136.274)">
    <path id="Path_142556" data-name="Path 142556" d="M81.627,196.88a3.384,3.384,0,0,0-1.245-1.908l-1.6-1.213-4.113-3.381-1.709-1.521H55.08l-1.709,1.521-4.113,3.381-1.6,1.213a3.384,3.384,0,0,0-1.245,1.908l-1.578,6.6H83.205Z" transform="translate(0 -17.029)" fill="#fec02c"/>
    <path id="Path_142557" data-name="Path 142557" d="M58.714,167.336s-1.454,1.548-2.16-2.141c-.755-3.945-.728-6.085.625-6.536a.815.815,0,0,1,1.114.449Z" transform="translate(-3.635 -7.228)" fill="#ffd7af"/>
    <path id="Path_142558" data-name="Path 142558" d="M59.692,182.775l-1.207,1.3-1.842,2.022a.676.676,0,0,0,.069.976c1.135.938,3.893,3.018,6.619,3.537,0,0-5.494.338-8.55-1.452a1.461,1.461,0,0,0-1.647-.016l-2.96,2.229-.507,1.3.494-.373a.676.676,0,0,1,1,.218,9.3,9.3,0,0,0,8.45,4.916c6.7,0,14.017-7.148,16.452-7.72,1.648-.387,3.719,1.642,3.719,1.642L79.64,191a2.769,2.769,0,0,0-.97-1.215l-1.918-1.35a2.776,2.776,0,0,0-2.016-.473v-.19a2.773,2.773,0,0,0-.63-1.76l-1.592-1.938-1.348-1.108Z" transform="translate(-1.565 -15.06)" fill="#57bf9d"/>
    <path id="Path_142559" data-name="Path 142559" d="M64.377,178.618v1.016c0,1.867.617,6.165,5.972,6.085,4.813-.071,5.69-4.218,5.69-6.085V178.35Z" transform="translate(-6.329 -13.627)" fill="#ffd7af"/>
    <path id="Path_142560" data-name="Path 142560" d="M64.456,181.666a7.437,7.437,0,0,0,5.635,2.691A7.709,7.709,0,0,0,76,181.312l.035-1.962-11.662.268Z" transform="translate(-6.329 -13.95)" fill="#f5cda5"/>
    <path id="Path_142561" data-name="Path 142561" d="M68.321,170.791c5.325,0,9.409-5.578,9.409-14.818,0-11.523-3.381-14.2-9.409-14.2s-9.41,2.676-9.41,14.2C58.911,165.213,63,170.791,68.321,170.791Z" transform="translate(-4.559 -1.781)" fill="#fed9ae"/>
    <path id="Path_142562" data-name="Path 142562" d="M85.869,167.336s1.454,1.548,2.161-2.141c.754-3.945.728-6.085-.625-6.536a.815.815,0,0,0-1.114.449Z" transform="translate(-13.289 -7.228)" fill="#ffd7af"/>
    <path id="Path_142563" data-name="Path 142563" d="M73,141.776v29.009c5.266-.082,9.292-5.64,9.292-14.812C82.293,144.527,78.956,141.812,73,141.776Z" transform="translate(-9.122 -1.782)" fill="#ffe1b9"/>
    <path id="Path_142564" data-name="Path 142564" d="M60.445,139.091c5.716-4.287,10.367.846,18.087-2.817,0,0-2.747,3.381-5.4,3.719,0,0,3.648,1.746,8.156-3.719a10.468,10.468,0,0,1-5.974,7.886s2.408.171,5.214-2.928c0,0-.93,7.494-12.762,7.494-6.2,0-7.72-3.662-7.72-3.662s-1.521,2.141-1.183,10.311h-.9s-3.494-6.592,0-11.044A5.544,5.544,0,0,1,60.445,139.091Z" transform="translate(-3.75)" fill="#c85123"/>
    <path id="Path_142565" data-name="Path 142565" d="M84.851,148.923s1.521,2.141,1.183,10.311h.9s3.494-6.592,0-11.044Z" transform="translate(-12.96 -3.859)" fill="#c85123"/>
  </g>
</svg>
