<svg xmlns="http://www.w3.org/2000/svg" xmlns:xlink="http://www.w3.org/1999/xlink" width="49" height="19" viewBox="0 0 49 19">
  <defs>
    <linearGradient id="linear-gradient" x1="0.5" x2="0.5" y2="1" gradientUnits="objectBoundingBox">
      <stop offset="0" stop-color="#e8b652"/>
      <stop offset="1" stop-color="#bf335c"/>
    </linearGradient>
  </defs>
  <g id="Group_65143" data-name="Group 65143" transform="translate(0 0.727)">
    <text id="Welcome_back" data-name="Welcome back" transform="translate(33 12.273)" font-size="12" font-family="Avenir-Regular, Avenir"><tspan x="-15.666" y="0">Prizes</tspan></text>
    <g id="gift" transform="translate(0 2)">
      <path id="Path_146075" data-name="Path 146075" d="M2.25,1.875a1.875,1.875,0,1,1,3.75,0,1.875,1.875,0,1,1,3.75,0v0a2.234,2.234,0,0,1-.028.37H11.25A.75.75,0,0,1,12,3V4.5a.75.75,0,0,1-.75.75v5.625A1.125,1.125,0,0,1,10.125,12H1.875A1.125,1.125,0,0,1,.75,10.875V5.25A.75.75,0,0,1,0,4.5V3a.75.75,0,0,1,.75-.75H2.278a2.226,2.226,0,0,1-.028-.371Zm.8.375h2.2V1.875a1.125,1.125,0,0,0-2.25,0,1.317,1.317,0,0,0,.034.323.392.392,0,0,0,.017.053Zm3.7,0h2.2A.42.42,0,0,0,8.966,2.2,1.3,1.3,0,0,0,9,1.875a1.125,1.125,0,0,0-2.25,0ZM.75,3V4.5h4.5V3Zm6,0V4.5h4.5V3ZM10.5,5.25H6.75v6h3.375a.375.375,0,0,0,.375-.375Zm-5.25,6v-6H1.5v5.625a.375.375,0,0,0,.375.375Z" fill-rule="evenodd" fill="url(#linear-gradient)"/>
    </g>
  </g>
</svg>
