<?xml version="1.0" encoding="utf-8"?>
<svg width="51px" height="51.002" viewBox="0 0 51 51.002" preserveAspectRatio="xMidYMid slice" xmlns="http://www.w3.org/2000/svg">
  <g id="Quiz" transform="translate(-469 -8974)">
    <g id="Quiz-3" data-name="Quiz" transform="translate(466.474 8971.475)">
      <path id="Path_184553" data-name="Path 184553" d="M40.829,24.608l-4.283,3.677a1.8,1.8,0,0,1-2.967-1.364v-4.4h-.933a3.826,3.826,0,0,1-3.82-3.82V12.765a15.622,15.622,0,0,0-14.036,2.05A16.036,16.036,0,0,0,7.278,28.6a3.8,3.8,0,0,1-.072.622,8.694,8.694,0,0,1-2.217,4.3c-.343.367-.7.7-1.093,1.069-.231.215-.471.431-.7.662a1.792,1.792,0,0,0-.646,1.515c.144.734.917,1.053,1.18,1.164s.534.2.806.287c.3.1.614.207.917.343a.5.5,0,0,1,.279.231.644.644,0,0,1-.088.455,1.654,1.654,0,0,0,.383,2.265.953.953,0,0,0-.319.829,1.546,1.546,0,0,0,.718,1.156c.1.088.223.16.335.239s.223.144.343.231a1.142,1.142,0,0,1-.12.175,2.762,2.762,0,0,0-.63,1.9A2.254,2.254,0,0,0,8.617,48.39c.375.024.766.056,1.14.1a5.378,5.378,0,0,1,2.512.933,4.289,4.289,0,0,1,1.675,3.134c.072.495.1,1,.144,1.531.024.263.04.526.064.8a.6.6,0,0,0,.6.542H32.057a.6.6,0,0,0,.6-.6v-.239a26.429,26.429,0,0,1,1.029-9.116,14.777,14.777,0,0,1,3.421-6C40.9,35.486,42.616,30.047,40.829,24.608ZM23.906,38.158a1.413,1.413,0,1,1,0-1.994A1.405,1.405,0,0,1,23.906,38.158Zm2.129-8.095c-1.164.925-2.05,1.691-2.05,3.07a1,1,0,0,1-1.045.925.973.973,0,0,1-1.045-.925c0-2.066,1.077-3.19,2.64-4.442.861-.686,1.755-1.38,1.755-2.424q0-2.6-3.4-2.592a5.934,5.934,0,0,0-3.039.782.963.963,0,1,1-.949-1.659,7.223,7.223,0,0,1,4.179-1.14c3.007,0,5.343,1.539,5.343,4.49C28.428,27.974,27.447,28.954,26.035,30.063Z" transform="translate(0 -1.906)" fill="#fdc00f"/>
      <path id="Path_184554" data-name="Path 184554" d="M57.883,2.525H39.628A2.631,2.631,0,0,0,37,5.149V16.793a2.631,2.631,0,0,0,2.624,2.624h2.129v5.6a.606.606,0,0,0,.351.55.617.617,0,0,0,.638-.1L49.8,19.417h8.079a2.631,2.631,0,0,0,2.624-2.624V5.149A2.631,2.631,0,0,0,57.883,2.525ZM55.65,14.464H41.864a.3.3,0,0,1,0-.6H55.65a.3.3,0,1,1,0,.6Zm0-3.194H41.864a.3.3,0,0,1,0-.6H55.65a.3.3,0,1,1,0,.6Zm0-3.194H41.864a.3.3,0,0,1,0-.6H55.65a.3.3,0,1,1,0,.6Z" transform="translate(-6.981)" fill="#e5811c"/>
    </g>
  </g>
</svg>