<svg xmlns="http://www.w3.org/2000/svg" width="41" height="50" viewBox="0 0 41 50">
  <g id="Group_60930" data-name="Group 60930" transform="translate(342.447 -159.981)">
    <path id="Path_142501" data-name="Path 142501" d="M-273.772,160.594a2.923,2.923,0,0,0-1.1-.525A2.308,2.308,0,0,1-273.772,160.594Z" transform="translate(-44.59 -0.057)" fill="#c98c55"/>
    <path id="Path_142502" data-name="Path 142502" d="M-304.841,161.138c-.07.057-.139.107-.2.164a.682.682,0,0,0-.145.126.9.9,0,0,0-.133.133,1.17,1.17,0,0,0-.12.133,1.073,1.073,0,0,0-.114.139l-.1.139a2.323,2.323,0,0,0-.177.284c-.026.05-.051.1-.076.145a1.059,1.059,0,0,0-.07.145,1.5,1.5,0,0,0-.063.145c-.038.082-.069.164-.1.247-.341.96-.335,1.763-.8,1.548a3.357,3.357,0,0,0-3.525.417c-1.264,1.03-5.187,1.238-7.265-.765,0,0-1.371-2.5,1.977-3.051,1.839,0,4.789,2.9,6.1,2.925a3.97,3.97,0,0,0,3.291-1.4A5.014,5.014,0,0,1-304.841,161.138Z" transform="translate(-16.132 -0.729)" fill="#e7831c"/>
    <path id="Path_142503" data-name="Path 142503" d="M-279.271,161.014a1.228,1.228,0,0,1-.12.076l.013-.013C-279.341,161.058-279.309,161.033-279.271,161.014Z" transform="translate(-41.606 -0.68)" fill="#c1a884"/>
    <path id="Path_142504" data-name="Path 142504" d="M-278.8,160.606c-.079.037-.154.092-.232.137.024-.015.044-.033.068-.048C-278.91,160.663-278.859,160.632-278.8,160.606Z" transform="translate(-41.841 -0.411)" fill="#c98c55"/>
    <path id="Path_142505" data-name="Path 142505" d="M-263.92,168.414l-.082.006c-.834.038-7.689.271-6.558-2.375a3.806,3.806,0,0,0-.9-4.308,17.115,17.115,0,0,1,1.567,1.44c.84.815,5.263.417,6.318,2.5S-263.92,168.414-263.92,168.414Z" transform="translate(-46.852 -1.157)" fill="#e7831c"/>
    <path id="Path_142506" data-name="Path 142506" d="M-302.269,206.439c-3.149,1.5-4.259,1.105-5.6.631s-3.15-.315-7.322,1.264c-6.617,3.706-13.315.081-14.808-.474s-3.151.631-5.356,1.339c-6.7.947-6.541-3.708-5.754-5.837-.944-2.059-1.342-3.555-1.342-10.1,0-10.736,9.3-16.662,10.126-17.318a6.231,6.231,0,0,0,1.5-2.018,4.176,4.176,0,0,0,.421-2.493,3.205,3.205,0,0,0-.395-1.071,59.5,59.5,0,0,1-3.062-6.935l-.007-.013a5.409,5.409,0,0,0,6.579.522,4.512,4.512,0,0,1,3.754-.815c.5.1.89.053,1.23-.907.032-.081.063-.164.1-.245.02-.05.038-.1.063-.146s.045-.1.07-.146.05-.094.076-.145c.05-.1.113-.189.176-.285.031-.044.07-.094.1-.139s.076-.094.113-.139.076-.089.12-.133l.132-.132a1.421,1.421,0,0,1,.146-.126c.063-.058.132-.108.2-.164a.055.055,0,0,1,.013-.013c.056-.038.113-.076.177-.114s.108-.063.164-.089a2.724,2.724,0,0,1,.284-.115c.056-.018.106-.031.156-.043.032-.007.057-.013.083-.02.05-.013.094-.018.138-.025a1.826,1.826,0,0,1,.328-.005.155.155,0,0,1,.05.005l.146.02a2.9,2.9,0,0,1,1.1.524.258.258,0,0,0,.063.043,3.81,3.81,0,0,1,.9,4.308c-1.128,2.646,5.71,2.412,6.541,2.374l.083-.006a20.291,20.291,0,0,1-2.288,3.182,4.59,4.59,0,0,0-.866,1.536,4.166,4.166,0,0,0-.2,1.464,3.87,3.87,0,0,0,.248,1.206h0a4.457,4.457,0,0,0,1.438,1.937c11.394,8.874,9.09,21.565,10.171,24.647C-301.172,204.386-301.172,205.408-302.269,206.439Z" transform="translate(-0.001)" fill="#fdc00f"/>
    <path id="Path_142507" data-name="Path 142507" d="M-291.129,293.832q-1.317.938-2.395,1.636c-.9.24-1.958.594-3.247,1.08-6.633,3.708-13.349.082-14.846-.474a2.19,2.19,0,0,0-.562-.133,16.9,16.9,0,0,1-2.426-2.11C-302.551,299.36-297.92,296.359-291.129,293.832Z" transform="translate(-18.403 -88.216)" fill="#ddc69e" opacity="0.3" style="mix-blend-mode: multiply;isolation: isolate"/>
    <path id="Path_142508" data-name="Path 142508" d="M-328.422,267.447c-2.369-.549-5.6-2.072-7.347-1.51a12.692,12.692,0,0,1-5.572.638,5.738,5.738,0,0,1,.24-.84c-.948-2.059-1.346-3.557-1.346-10.108,0-.341.006-.682.025-1.011a7.288,7.288,0,0,1,3.342,3.481c2.761,5.01,2.919,3.247,5.762,4.757s2.887,4.195,6.027,3.563S-326.053,268-328.422,267.447Z" transform="translate(0 -62.374)" fill="#e7831c" opacity="0.3" style="mix-blend-mode: multiply;isolation: isolate"/>
    <path id="Path_142509" data-name="Path 142509" d="M-296.983,186.884s.706-.25.171-2.74-.371-4.381.6-3.509,1.043,1.164,1.027,2.713a16.834,16.834,0,0,0,.736,3.97s1.7,2.983.012,5.706-2.814,1.817-1.749.033S-297.352,187.937-296.983,186.884Z" transform="translate(-29.916 -13.467)" fill="#e7831c" opacity="0.3" style="mix-blend-mode: multiply;isolation: isolate"/>
    <path id="Path_142510" data-name="Path 142510" d="M-277.8,193.61s-.643.093-.58,2.1-.377,3.453-1.067,2.637-.707-1.053-.447-2.253a12.075,12.075,0,0,0,0-3.187,4.366,4.366,0,0,1,.894-4.43c1.876-1.87,2.693-1.005,1.5.226S-277.314,192.845-277.8,193.61Z" transform="translate(-41.111 -18.067)" fill="#e7831c" opacity="0.3" style="mix-blend-mode: multiply;isolation: isolate"/>
    <path id="Path_142511" data-name="Path 142511" d="M-286.971,218.853a17.246,17.246,0,0,1-.543,2.647c-.02.058-.032.121-.05.178a1.265,1.265,0,0,1-1.213.9,1.456,1.456,0,0,1-.36-.05,1.258,1.258,0,0,1-.8-.721,1.274,1.274,0,0,1-.044-.853,14.488,14.488,0,0,0,.347-1.434,14.764,14.764,0,0,0,.292-2.7,13.009,13.009,0,0,0-.216-2.571,8.886,8.886,0,0,0-.77-2.407,5.779,5.779,0,0,0-.391-.657,15.85,15.85,0,0,0-1.3-1.612c-.487-.53-1-1.035-1.5-1.542-.26-.258-.519-.518-.771-.783a15.5,15.5,0,0,1-1.883-2.236,6.038,6.038,0,0,1-1.106-3.146,5.861,5.861,0,0,1,.31-2.084c.025-.083.051-.159.069-.24.1-.323.171-.658.252-1,.076-.33.153-.664.247-1.006.013-.045.027-.09.039-.136-.4.013-.811.018-1.223.018-.354,0-.714-.007-1.075-.013-.929-.02-1.863-.07-2.773-.139-.853-.063-1.68-.151-2.47-.26-.934-.119-1.8-.271-2.559-.436a12.535,12.535,0,0,1-1.793-.524,4.169,4.169,0,0,0,.422-2.494,1.233,1.233,0,0,1,.4.1,7.963,7.963,0,0,0,1.062.359,18.5,18.5,0,0,0,2.716.519c.835.114,1.726.189,2.629.246.664.045,1.333.07,2,.083.878.019,1.737.019,2.551-.007,1.062-.031,2.041-.094,2.862-.2a5.648,5.648,0,0,0,2.288-.558,4.158,4.158,0,0,0-.2,1.464,3.863,3.863,0,0,0,.248,1.207c-.151.043-.311.084-.478.123-.449.106-.944.193-1.477.266a2.619,2.619,0,0,0,.528,1.381c.063.1.132.191.207.285a10.358,10.358,0,0,0,1.15,1.143c.069.057.139.121.208.184.272.24.544.479.809.732.108.1.222.215.341.335a7.284,7.284,0,0,1,1.067,1.358,5.087,5.087,0,0,1,.633,1.542,1.132,1.132,0,0,1,.031.247,1.265,1.265,0,0,1-.985,1.263,1.424,1.424,0,0,1-.279.032,1.259,1.259,0,0,1-1.111-.676.85.85,0,0,1-.108-.278.1.1,0,0,1-.013-.038,3.13,3.13,0,0,0-.631-1.219,7.656,7.656,0,0,0-.689-.739c-.2-.189-.4-.379-.619-.557-.038-.038-.083-.069-.121-.106a15.056,15.056,0,0,1-1.636-1.618c-.02-.024-.038-.048-.056-.072-.021.073-.042.145-.066.218a.346.346,0,0,1-.013.038,3.1,3.1,0,0,0,.045,2.141,6.644,6.644,0,0,0,1.225,1.845c.443.506.973,1.049,1.579,1.65.076.076.151.151.234.233.55.55,1.131,1.15,1.693,1.8a16.617,16.617,0,0,1,1.161,1.472,7.693,7.693,0,0,1,.469.765,10.532,10.532,0,0,1,1,2.723,14.534,14.534,0,0,1,.354,2.88A16.215,16.215,0,0,1-286.971,218.853Z" transform="translate(-22.592 -22.131)" fill="#e7831c" opacity="0.5" style="mix-blend-mode: multiply;isolation: isolate"/>
    <g id="Group_60929" data-name="Group 60929" transform="translate(-332.946 170.916)">
      <g id="Group_60924" data-name="Group 60924" transform="translate(13.428 1.934)">
        <g id="Group_60923" data-name="Group 60923" transform="translate(4.376 7.095)">
          <path id="Path_142512" data-name="Path 142512" d="M-259.1,220.326a12.52,12.52,0,0,1-2.375.619.811.811,0,0,1-.107-.278.087.087,0,0,1-.013-.038,3.145,3.145,0,0,0-.632-1.219c.2-.025.4-.057.594-.1a5.408,5.408,0,0,0,1.87-.771,5.076,5.076,0,0,1,.632,1.542A1.086,1.086,0,0,1-259.1,220.326Z" transform="translate(262.229 -218.538)" fill="#42342d"/>
          <path id="Path_142513" data-name="Path 142513" d="M-257.649,223.78a1.266,1.266,0,0,1-.985,1.264,1.458,1.458,0,0,1-.278.031,1.26,1.26,0,0,1-1.112-.676A12.518,12.518,0,0,0-257.649,223.78Z" transform="translate(260.776 -221.992)" fill="#54433d"/>
        </g>
        <path id="Path_142514" data-name="Path 142514" d="M-262.291,215.913a5.408,5.408,0,0,1-1.87.771c-.2.044-.391.076-.594.1a7.907,7.907,0,0,0-.689-.739c-.2-.19-.4-.379-.619-.556h.095a4.316,4.316,0,0,0,2.609-.935A7.359,7.359,0,0,1-262.291,215.913Z" transform="translate(269.131 -208.818)" fill="#493a33"/>
        <path id="Path_142515" data-name="Path 142515" d="M-267.144,212.138a4.316,4.316,0,0,1-2.609.935h-.095c-.038-.038-.082-.07-.12-.107a15.15,15.15,0,0,1-1.636-1.617c-.07-.089-.139-.177-.2-.266.227.026.455.032.682.038a9.865,9.865,0,0,0,1.933-.063,4.385,4.385,0,0,0,.689-.171c.07.057.139.12.209.183.271.24.543.48.809.733C-267.377,211.9-267.264,212.018-267.144,212.138Z" transform="translate(272.916 -206.401)" fill="#54433d"/>
        <path id="Path_142516" data-name="Path 142516" d="M-270.381,207.433a4.385,4.385,0,0,1-.689.171,9.867,9.867,0,0,1-1.933.063c-.227-.006-.455-.013-.682-.038a5.413,5.413,0,0,1-.973-1.984c.1.038.2.076.309.107a8.107,8.107,0,0,0,1.914.246,5.149,5.149,0,0,0,.7.006q.095.142.208.284A10.352,10.352,0,0,0-270.381,207.433Z" transform="translate(274.795 -202.947)" fill="#42342d"/>
        <path id="Path_142517" data-name="Path 142517" d="M-272,202.917a5.148,5.148,0,0,1-.7-.006,8.105,8.105,0,0,1-1.914-.246c-.107-.032-.208-.07-.309-.107a4.16,4.16,0,0,1-.1-1.6,5.624,5.624,0,0,0,2.5.3v.044A2.4,2.4,0,0,0-272,202.917Z" transform="translate(275.059 -199.858)" fill="#493a33"/>
        <path id="Path_142518" data-name="Path 142518" d="M-272.453,199.13a5.624,5.624,0,0,1-2.5-.3v-.013a1.262,1.262,0,0,1,1.428-1.074A1.245,1.245,0,0,1-272.453,199.13Z" transform="translate(274.991 -197.733)" fill="#54433d"/>
      </g>
      <g id="Group_60926" data-name="Group 60926" transform="translate(11.904 1.982)">
        <g id="Group_60925" data-name="Group 60925" transform="translate(7.345 25.968)">
          <path id="Path_142519" data-name="Path 142519" d="M-255.565,274.018c-.019.057-.031.12-.05.177a1.262,1.262,0,0,1-1.213.9,1.41,1.41,0,0,1-.36-.05,1.253,1.253,0,0,1-.8-.72,9.559,9.559,0,0,0,1.276-.107C-256.355,274.163-255.963,274.1-255.565,274.018Z" transform="translate(257.991 -274.018)" fill="#493a33"/>
        </g>
        <path id="Path_142520" data-name="Path 142520" d="M-274.2,199.673a7.681,7.681,0,0,0-.4,1.238,4.395,4.395,0,0,1-2.281-.973.5.5,0,0,1-.057-.057,7.53,7.53,0,0,1,.455-1.276,1.262,1.262,0,0,1,1.674-.613A1.26,1.26,0,0,1-274.2,199.673Z" transform="translate(277.823 -197.876)" fill="#42342d"/>
        <path id="Path_142521" data-name="Path 142521" d="M-275.568,204.786c-.038.177-.082.354-.12.531-.107.48-.221.973-.385,1.478-.006.013-.006.025-.013.038a4.823,4.823,0,0,1-2.2-.967c-.038-.032-.082-.063-.12-.1.094-.322.171-.657.253-1,.076-.328.151-.663.246-1a.5.5,0,0,0,.057.057A4.395,4.395,0,0,0-275.568,204.786Z" transform="translate(278.787 -201.751)" fill="#54433d"/>
        <path id="Path_142522" data-name="Path 142522" d="M-276.782,212.856a5.675,5.675,0,0,1-2.527-.752c-.07-.044-.145-.089-.215-.133a5.868,5.868,0,0,1,.31-2.085c.025-.082.051-.158.07-.24.038.038.082.069.12.1a4.823,4.823,0,0,0,2.2.967A3.106,3.106,0,0,0-276.782,212.856Z" transform="translate(279.528 -205.632)" fill="#493a33"/>
        <path id="Path_142523" data-name="Path 142523" d="M-275.549,219.193c-.392.063-.8.095-1.105.151-.581.107-1.169.2-1.756.266a6.024,6.024,0,0,1-1.106-3.146c.07.044.145.088.215.133a5.675,5.675,0,0,0,2.527.752A6.663,6.663,0,0,0-275.549,219.193Z" transform="translate(279.52 -210.125)" fill="#42342d"/>
        <path id="Path_142524" data-name="Path 142524" d="M-271.6,226.349a8.377,8.377,0,0,1-2.287.67c-.171.038-.335.069-.505.1a15.5,15.5,0,0,1-1.883-2.236c.588-.07,1.175-.158,1.756-.266.309-.057.714-.088,1.105-.151.442.505.973,1.049,1.579,1.649Z" transform="translate(277.384 -215.398)" fill="#54433d"/>
        <path id="Path_142525" data-name="Path 142525" d="M-266.269,231.78c-.006.006-.013.019-.019.025a3.889,3.889,0,0,1-2.2,1.276c-.486-.531-1-1.036-1.5-1.542-.259-.259-.518-.518-.771-.783.171-.032.335-.063.505-.1a8.375,8.375,0,0,0,2.287-.67C-267.412,230.536-266.831,231.136-266.269,231.78Z" transform="translate(273.746 -219.035)" fill="#493a33"/>
        <path id="Path_142526" data-name="Path 142526" d="M-260.257,237.483a3.625,3.625,0,0,1-1.087.916,4.07,4.07,0,0,1-1.067.417,5.85,5.85,0,0,0-.392-.657,15.913,15.913,0,0,0-1.3-1.611,3.889,3.889,0,0,0,2.2-1.276c.006-.006.013-.019.019-.025a16.752,16.752,0,0,1,1.163,1.472A7.723,7.723,0,0,1-260.257,237.483Z" transform="translate(269.364 -222.502)" fill="#42342d"/>
        <path id="Path_142527" data-name="Path 142527" d="M-255.98,244.527a4.652,4.652,0,0,1-1.617.859,6.457,6.457,0,0,1-.771.158,8.926,8.926,0,0,0-.771-2.407,4.07,4.07,0,0,0,1.067-.417,3.625,3.625,0,0,0,1.087-.916A10.562,10.562,0,0,1-255.98,244.527Z" transform="translate(266.093 -226.822)" fill="#54433d"/>
        <path id="Path_142528" data-name="Path 142528" d="M-254.137,252.669a8.021,8.021,0,0,1-2.527.708,13.066,13.066,0,0,0-.215-2.571,6.463,6.463,0,0,0,.771-.158,4.652,4.652,0,0,0,1.617-.859A14.5,14.5,0,0,1-254.137,252.669Z" transform="translate(264.603 -232.084)" fill="#493a33"/>
        <path id="Path_142529" data-name="Path 142529" d="M-254.284,258.235a16.11,16.11,0,0,1-.152,2.736c-.455.133-.89.234-1.225.328-.474.133-.954.253-1.441.341a14.752,14.752,0,0,0,.291-2.7A8.02,8.02,0,0,0-254.284,258.235Z" transform="translate(264.75 -237.65)" fill="#42342d"/>
        <path id="Path_142530" data-name="Path 142530" d="M-255.211,266.256a17.093,17.093,0,0,1-.543,2.647c-.4.082-.79.145-1.15.2a9.559,9.559,0,0,1-1.276.107,1.269,1.269,0,0,1-.044-.853,14.2,14.2,0,0,0,.348-1.434c.487-.089.967-.209,1.441-.341C-256.1,266.49-255.666,266.389-255.211,266.256Z" transform="translate(265.525 -242.935)" fill="#54433d"/>
      </g>
      <g id="Group_60928" data-name="Group 60928" transform="translate(0 0)">
        <g id="Group_60927" data-name="Group 60927" transform="translate(17.433 0.274)">
          <path id="Path_142531" data-name="Path 142531" d="M-260.846,194.34a1.266,1.266,0,0,1-.448.765,5.16,5.16,0,0,1-2.022.834,3.361,3.361,0,0,0,.265-.493,17.655,17.655,0,0,0,1.03-2.578,1.237,1.237,0,0,1,.916.461,1.036,1.036,0,0,1,.183.322A1.18,1.18,0,0,1-260.846,194.34Z" transform="translate(263.316 -192.868)" fill="#54433d"/>
        </g>
        <path id="Path_142532" data-name="Path 142532" d="M-311.611,192.527a8.243,8.243,0,0,1-.954.657,7.077,7.077,0,0,1-1.7.765,1.242,1.242,0,0,1-.063-1.118,1.047,1.047,0,0,1,.12-.215,1.254,1.254,0,0,1,1.535-.448A7.98,7.98,0,0,0-311.611,192.527Z" transform="translate(314.432 -192.063)" fill="#42342d"/>
        <path id="Path_142533" data-name="Path 142533" d="M-308.572,193.942a25.286,25.286,0,0,1-2.811,2.04,11.765,11.765,0,0,1-1.965-.594,1.2,1.2,0,0,1-.575-.512c-.006-.013-.013-.019-.019-.031a7.077,7.077,0,0,0,1.7-.765,8.24,8.24,0,0,0,.954-.657A18.62,18.62,0,0,0-308.572,193.942Z" transform="translate(314.109 -192.96)" fill="#54433d"/>
        <path id="Path_142534" data-name="Path 142534" d="M-301,195.189a2.8,2.8,0,0,1-.271.272,22.658,22.658,0,0,1-2.609,1.958c-.935-.12-1.8-.271-2.559-.436a25.287,25.287,0,0,0,2.811-2.04C-302.795,195.057-301.9,195.133-301,195.189Z" transform="translate(309.166 -193.961)" fill="#493a33"/>
        <path id="Path_142535" data-name="Path 142535" d="M-294.061,195.747a8.421,8.421,0,0,1-1.655,1.826c-.246.2-.492.4-.752.581-.853-.063-1.68-.152-2.47-.259a22.649,22.649,0,0,0,2.609-1.958,2.8,2.8,0,0,0,.271-.272C-295.394,195.709-294.724,195.735-294.061,195.747Z" transform="translate(304.222 -194.437)" fill="#42342d"/>
        <path id="Path_142536" data-name="Path 142536" d="M-286.736,195.888a3.66,3.66,0,0,1-.411.714,8.162,8.162,0,0,1-1.775,1.838c-.929-.019-1.864-.07-2.773-.139.259-.183.505-.379.752-.581a8.421,8.421,0,0,0,1.655-1.826C-288.41,195.913-287.551,195.913-286.736,195.888Z" transform="translate(299.449 -194.584)" fill="#54433d"/>
        <path id="Path_142537" data-name="Path 142537" d="M-278.515,195.313a4.884,4.884,0,0,1-.158.815,3.779,3.779,0,0,1-.752,1.251,5.883,5.883,0,0,1-.569.619c-.8.05-1.636.076-2.5.076-.354,0-.714-.006-1.074-.013a8.161,8.161,0,0,0,1.775-1.838,3.661,3.661,0,0,0,.411-.714C-280.316,195.477-279.336,195.414-278.515,195.313Z" transform="translate(294.091 -194.205)" fill="#493a33"/>
        <path id="Path_142538" data-name="Path 142538" d="M-268.466,192.86a17.655,17.655,0,0,1-1.03,2.578,3.359,3.359,0,0,1-.265.493,20.86,20.86,0,0,1-3.336.448,5.886,5.886,0,0,0,.569-.619,3.779,3.779,0,0,0,.752-1.251,4.89,4.89,0,0,0,.158-.815,5.607,5.607,0,0,0,2.293-.562A1.218,1.218,0,0,1-268.466,192.86Z" transform="translate(287.194 -192.586)" fill="#42342d"/>
      </g>
    </g>
  </g>
</svg>
