<?xml version="1.0" encoding="utf-8"?>
<svg width="50px" height="50" viewBox="0 0 50 50" preserveAspectRatio="xMidYMid slice" xmlns="http://www.w3.org/2000/svg">
  <g id="Wall" transform="matrix(1, 0, 0, 1, -221, -8956)">
    <g id="Wall-3" data-name="Wall" transform="translate(215.772 8950.949)">
      <rect id="Rectangle_19124" data-name="Rectangle 19124" width="48.093" height="40.252" transform="translate(6.182 12.68)" fill="#241949"/>
      <g id="Group_62734" data-name="Group 62734" transform="translate(5.228 5.051)">
        <path id="Path_184540" data-name="Path 184540" d="M52.029,5.051H8.428a3.209,3.209,0,0,0-3.2,3.2v43.6a3.209,3.209,0,0,0,3.2,3.2h43.6a3.209,3.209,0,0,0,3.2-3.2V8.251A3.209,3.209,0,0,0,52.029,5.051ZM13.99,8.831H51.607a.914.914,0,1,1,0,1.828H13.99a.914.914,0,1,1,0-1.828ZM10.172,8.17A1.575,1.575,0,1,1,8.6,9.745,1.575,1.575,0,0,1,10.172,8.17Zm41.856,44.1H8.428a.433.433,0,0,1-.422-.422V13.982H52.45V51.851A.433.433,0,0,1,52.029,52.273Z" transform="translate(-5.228 -5.051)" fill="#fdc00f"/>
      </g>
      <g id="Group_62735" data-name="Group 62735" transform="translate(17.361 15.62)">
        <path id="Path_184541" data-name="Path 184541" d="M29.506,32.716a2.438,2.438,0,1,0-2.438-2.438,2.437,2.437,0,0,0,2.438,2.438" transform="translate(-27.068 -27.84)" fill="#30b88e"/>
      </g>
      <g id="Group_62736" data-name="Group 62736" transform="translate(13.876 21.271)">
        <path id="Path_184542" data-name="Path 184542" d="M32.641,42.577V40.215c0-1.763-1.435-2.2-3.187-2.2H23.982c-1.752,0-3.187.44-3.187,2.2v2.362Z" transform="translate(-20.795 -38.012)" fill="#56bf9d"/>
      </g>
      <g id="Group_62737" data-name="Group 62737" transform="translate(30.152 19.961)">
        <line id="Line_1145" data-name="Line 1145" x2="15.872" transform="translate(0.556 0.556)"/>
        <path id="Path_184543" data-name="Path 184543" d="M66.52,36.765H50.648a.556.556,0,1,1,0-1.111H66.52a.556.556,0,0,1,0,1.111Z" transform="translate(-50.092 -35.654)" fill="#f5500a"/>
      </g>
      <g id="Group_62738" data-name="Group 62738" transform="translate(30.152 23.302)">
        <line id="Line_1146" data-name="Line 1146" x2="15.872" transform="translate(0.556 0.556)"/>
        <path id="Path_184544" data-name="Path 184544" d="M66.52,42.779H50.648a.556.556,0,0,1,0-1.111H66.52a.556.556,0,0,1,0,1.111Z" transform="translate(-50.092 -41.668)" fill="#fff"/>
      </g>
      <g id="Group_62739" data-name="Group 62739" transform="translate(17.361 28.108)">
        <path id="Path_184545" data-name="Path 184545" d="M29.506,55.2a2.438,2.438,0,1,0-2.438-2.438A2.438,2.438,0,0,0,29.506,55.2" transform="translate(-27.068 -50.319)" fill="#30b88e"/>
      </g>
      <g id="Group_62740" data-name="Group 62740" transform="translate(13.876 33.76)">
        <path id="Path_184546" data-name="Path 184546" d="M32.641,65.057V62.695c0-1.763-1.435-2.2-3.187-2.2H23.982c-1.752,0-3.187.44-3.187,2.2v2.362Z" transform="translate(-20.795 -60.492)" fill="#56bf9d"/>
      </g>
      <g id="Group_62741" data-name="Group 62741" transform="translate(30.152 32.45)">
        <line id="Line_1147" data-name="Line 1147" x2="15.872" transform="translate(0.556 0.556)"/>
        <path id="Path_184547" data-name="Path 184547" d="M66.52,59.245H50.648a.556.556,0,1,1,0-1.111H66.52a.556.556,0,0,1,0,1.111Z" transform="translate(-50.092 -58.134)" fill="#f5500a"/>
      </g>
      <g id="Group_62742" data-name="Group 62742" transform="translate(30.152 35.791)">
        <line id="Line_1148" data-name="Line 1148" x2="15.872" transform="translate(0.556 0.556)"/>
        <path id="Path_184548" data-name="Path 184548" d="M66.52,65.259H50.648a.556.556,0,1,1,0-1.111H66.52a.556.556,0,0,1,0,1.111Z" transform="translate(-50.092 -64.148)" fill="#fff"/>
      </g>
      <g id="Group_62743" data-name="Group 62743" transform="translate(17.361 40.596)">
        <path id="Path_184549" data-name="Path 184549" d="M29.506,77.675a2.438,2.438,0,1,0-2.438-2.438,2.438,2.438,0,0,0,2.438,2.438" transform="translate(-27.068 -72.798)" fill="#30b88e"/>
      </g>
      <g id="Group_62744" data-name="Group 62744" transform="translate(13.876 46.248)">
        <path id="Path_184550" data-name="Path 184550" d="M32.641,87.536V85.174c0-1.763-1.435-2.2-3.187-2.2H23.982c-1.752,0-3.187.44-3.187,2.2v2.362Z" transform="translate(-20.795 -82.971)" fill="#56bf9d"/>
      </g>
      <g id="Group_62745" data-name="Group 62745" transform="translate(30.152 44.938)">
        <line id="Line_1149" data-name="Line 1149" x2="15.872" transform="translate(0.556 0.556)"/>
        <path id="Path_184551" data-name="Path 184551" d="M66.52,81.724H50.648a.556.556,0,1,1,0-1.111H66.52a.556.556,0,0,1,0,1.111Z" transform="translate(-50.092 -80.613)" fill="#c94919"/>
      </g>
      <g id="Group_62746" data-name="Group 62746" transform="translate(30.152 48.28)">
        <line id="Line_1150" data-name="Line 1150" x2="15.872" transform="translate(0.556 0.556)"/>
        <path id="Path_184552" data-name="Path 184552" d="M66.52,87.739H50.648a.556.556,0,1,1,0-1.111H66.52a.556.556,0,0,1,0,1.111Z" transform="translate(-50.092 -86.628)" fill="#fff"/>
      </g>
    </g>
  </g>
</svg>